<svg width="299" height="149" viewBox="0 0 299 149" fill="none" xmlns="http://www.w3.org/2000/svg">
<rect width="295.895" height="147.852" transform="translate(0.78418 0.526855)" fill="#262626"/>
<path d="M8.04403 12.3772H0.907228V8.9934H19.1799V12.3772H12.0431V30.5269H8.04403V12.3772ZM31.1329 13.9153C33.2042 13.9153 34.8654 14.5203 36.1164 15.7303C37.3673 16.9403 37.9928 18.7347 37.9928 21.1137V30.5269H34.1476V21.6059C34.1476 20.1703 33.8092 19.0936 33.1324 18.3758C32.4557 17.6375 31.4918 17.2684 30.2408 17.2684C28.8257 17.2684 27.7081 17.6991 26.8877 18.5604C26.0674 19.4012 25.6572 20.6215 25.6572 22.2211V30.5269H21.812V7.70139H25.6572V16.0072C26.293 15.3304 27.0723 14.8177 27.9952 14.469C28.9385 14.0999 29.9844 13.9153 31.1329 13.9153ZM58.4636 22.4057C58.4636 22.6723 58.4431 23.0517 58.402 23.5439H45.5127C45.7383 24.7538 46.3228 25.7177 47.2662 26.4355C48.23 27.1328 49.4195 27.4814 50.8346 27.4814C52.6393 27.4814 54.1261 26.8867 55.2951 25.6972L57.3561 28.0659C56.6178 28.9477 55.6847 29.6142 54.5568 30.0654C53.4288 30.5166 52.1573 30.7422 50.7423 30.7422C48.9376 30.7422 47.3482 30.3833 45.9742 29.6655C44.6001 28.9477 43.5337 27.9531 42.7749 26.6816C42.0366 25.3896 41.6675 23.9335 41.6675 22.3134C41.6675 20.7138 42.0264 19.2782 42.7441 18.0067C43.4824 16.7147 44.4976 15.7098 45.7896 14.992C47.0816 14.2742 48.5377 13.9153 50.1578 13.9153C51.7574 13.9153 53.1827 14.2742 54.4337 14.992C55.7052 15.6893 56.6896 16.6839 57.3869 17.9759C58.1047 19.2474 58.4636 20.724 58.4636 22.4057ZM50.1578 16.9915C48.9273 16.9915 47.8814 17.3607 47.0201 18.099C46.1792 18.8168 45.6665 19.7806 45.482 20.9906H54.8029C54.6388 19.8011 54.1364 18.8373 53.2955 18.099C52.4547 17.3607 51.4088 16.9915 50.1578 16.9915ZM86.9627 14.0999V28.0351C86.9627 33.8184 84.0096 36.71 78.1032 36.71C76.5241 36.71 75.027 36.505 73.612 36.0948C72.1969 35.7051 71.028 35.1309 70.1051 34.3721L71.8278 31.4805C72.5456 32.0752 73.4479 32.5469 74.5348 32.8955C75.6423 33.2647 76.76 33.4493 77.8879 33.4493C79.6926 33.4493 81.0154 33.0391 81.8562 32.2188C82.697 31.3984 83.1175 30.1475 83.1175 28.4658V27.6045C82.4612 28.3222 81.6614 28.8657 80.718 29.2348C79.7746 29.604 78.739 29.7886 77.611 29.7886C76.0524 29.7886 74.6374 29.4604 73.3659 28.8042C72.1149 28.1274 71.1202 27.184 70.382 25.9741C69.6642 24.7641 69.3053 23.3798 69.3053 21.8212C69.3053 20.2626 69.6642 18.8885 70.382 17.6991C71.1202 16.4891 72.1149 15.556 73.3659 14.8997C74.6374 14.2435 76.0524 13.9153 77.611 13.9153C78.8005 13.9153 79.8772 14.1102 80.8411 14.4998C81.8254 14.8895 82.6458 15.4842 83.302 16.284V14.0999H86.9627ZM78.1955 26.5278C79.6516 26.5278 80.8411 26.0971 81.7639 25.2358C82.7073 24.3539 83.179 23.2157 83.179 21.8212C83.179 20.4471 82.7073 19.3295 81.7639 18.4681C80.8411 17.6068 79.6516 17.1761 78.1955 17.1761C76.7189 17.1761 75.509 17.6068 74.5656 18.4681C73.6427 19.3295 73.1813 20.4471 73.1813 21.8212C73.1813 23.2157 73.6427 24.3539 74.5656 25.2358C75.509 26.0971 76.7189 26.5278 78.1955 26.5278ZM95.6787 16.4993C96.7862 14.7767 98.7344 13.9153 101.524 13.9153V17.576C101.195 17.5145 100.898 17.4837 100.631 17.4837C99.1343 17.4837 97.9654 17.9247 97.1245 18.8065C96.2837 19.6678 95.8633 20.9188 95.8633 22.5595V30.5269H92.018V14.0999H95.6787V16.4993ZM112.018 30.7422C110.357 30.7422 108.86 30.3833 107.527 29.6655C106.194 28.9477 105.148 27.9531 104.389 26.6816C103.651 25.3896 103.282 23.9335 103.282 22.3134C103.282 20.6932 103.651 19.2474 104.389 17.9759C105.148 16.7044 106.194 15.7098 107.527 14.992C108.86 14.2742 110.357 13.9153 112.018 13.9153C113.7 13.9153 115.207 14.2742 116.54 14.992C117.873 15.7098 118.909 16.7044 119.647 17.9759C120.406 19.2474 120.785 20.6932 120.785 22.3134C120.785 23.9335 120.406 25.3896 119.647 26.6816C118.909 27.9531 117.873 28.9477 116.54 29.6655C115.207 30.3833 113.7 30.7422 112.018 30.7422ZM112.018 27.4506C113.433 27.4506 114.602 26.979 115.525 26.0356C116.448 25.0922 116.909 23.8515 116.909 22.3134C116.909 20.7753 116.448 19.5345 115.525 18.5912C114.602 17.6478 113.433 17.1761 112.018 17.1761C110.603 17.1761 109.434 17.6478 108.511 18.5912C107.609 19.5345 107.158 20.7753 107.158 22.3134C107.158 23.8515 107.609 25.0922 108.511 26.0356C109.434 26.979 110.603 27.4506 112.018 27.4506ZM140.366 14.0999V30.5269H136.706V28.435C136.09 29.1733 135.321 29.7475 134.399 30.1577C133.476 30.5474 132.481 30.7422 131.415 30.7422C129.22 30.7422 127.487 30.1372 126.216 28.9272C124.965 27.6967 124.339 25.8818 124.339 23.4823V14.0999H128.185V22.9594C128.185 24.436 128.513 25.5434 129.169 26.2817C129.846 26.9995 130.799 27.3584 132.03 27.3584C133.404 27.3584 134.491 26.9379 135.291 26.0971C136.111 25.2358 136.521 24.0053 136.521 22.4057V14.0999H140.366ZM154.507 13.9153C156.106 13.9153 157.532 14.264 158.783 14.9612C160.054 15.6585 161.049 16.6429 161.766 17.9144C162.484 19.1859 162.843 20.6522 162.843 22.3134C162.843 23.9745 162.484 25.4511 161.766 26.7431C161.049 28.0146 160.054 28.999 158.783 29.6963C157.532 30.3936 156.106 30.7422 154.507 30.7422C152.292 30.7422 150.538 30.0039 149.246 28.5273V36.4947H145.401V14.0999H149.062V16.2532C149.697 15.4739 150.477 14.8895 151.4 14.4998C152.343 14.1102 153.379 13.9153 154.507 13.9153ZM154.076 27.4506C155.491 27.4506 156.65 26.979 157.552 26.0356C158.475 25.0922 158.936 23.8515 158.936 22.3134C158.936 20.7753 158.475 19.5345 157.552 18.5912C156.65 17.6478 155.491 17.1761 154.076 17.1761C153.153 17.1761 152.323 17.3914 151.584 17.8221C150.846 18.2323 150.261 18.827 149.831 19.6063C149.4 20.3856 149.185 21.288 149.185 22.3134C149.185 23.3388 149.4 24.2411 149.831 25.0204C150.261 25.7997 150.846 26.4047 151.584 26.8354C152.323 27.2456 153.153 27.4506 154.076 27.4506Z" fill="white"/>
<path d="M197.501 25.5978C197.501 26.051 197.339 26.4363 197.014 26.7535L193.728 30.0396C193.411 30.3644 193.022 30.5269 192.561 30.5269H179.405C178.952 30.5269 178.567 30.3644 178.249 30.0396L174.963 26.7535C174.638 26.4363 174.476 26.051 174.476 25.5978V15.7282C174.476 15.275 174.635 14.8897 174.952 14.5724C175.277 14.2476 175.666 14.0852 176.119 14.0852C176.572 14.0852 176.958 14.2476 177.275 14.5724C177.6 14.8897 177.762 15.275 177.762 15.7282V24.9065L180.096 27.2408H191.881L194.215 24.9065V15.7282C194.215 15.275 194.374 14.8897 194.691 14.5724C195.016 14.2476 195.405 14.0852 195.858 14.0852C196.311 14.0852 196.697 14.2476 197.014 14.5724C197.339 14.8897 197.501 15.275 197.501 15.7282V25.5978Z" fill="white"/>
<path d="M212.347 13.9153C214.419 13.9153 216.08 14.5203 217.331 15.7303C218.582 16.9403 219.207 18.7347 219.207 21.1137V30.5269H215.362V21.6059C215.362 20.1703 215.024 19.0936 214.347 18.3758C213.67 17.6375 212.706 17.2684 211.455 17.2684C210.04 17.2684 208.922 17.6991 208.102 18.5604C207.282 19.4012 206.872 20.6215 206.872 22.2211V30.5269H203.026V14.0999H206.687V16.2225C207.323 15.4637 208.123 14.8895 209.087 14.4998C210.05 14.1102 211.137 13.9153 212.347 13.9153ZM224.085 14.0999H227.93V30.5269H224.085V14.0999ZM226.023 11.3928C225.326 11.3928 224.741 11.1775 224.27 10.7468C223.798 10.2957 223.562 9.74194 223.562 9.08568C223.562 8.42942 223.798 7.88596 224.27 7.45529C224.741 7.00412 225.326 6.77853 226.023 6.77853C226.72 6.77853 227.305 6.99386 227.777 7.42453C228.248 7.83469 228.484 8.35765 228.484 8.9934C228.484 9.67016 228.248 10.2444 227.777 10.7161C227.325 11.1672 226.741 11.3928 226.023 11.3928ZM242.852 29.6348C242.401 30.0039 241.847 30.2808 241.191 30.4653C240.555 30.6499 239.878 30.7422 239.161 30.7422C237.356 30.7422 235.961 30.2705 234.977 29.3271C233.993 28.3838 233.5 27.0097 233.5 25.205V17.2992H230.793V14.223H233.5V10.47H237.346V14.223H241.745V17.2992H237.346V25.1127C237.346 25.9125 237.54 26.5278 237.93 26.9585C238.32 27.3686 238.884 27.5737 239.622 27.5737C240.483 27.5737 241.201 27.3481 241.775 26.8969L242.852 29.6348ZM246.015 14.0999H249.86V30.5269H246.015V14.0999ZM247.953 11.3928C247.256 11.3928 246.671 11.1775 246.2 10.7468C245.728 10.2957 245.492 9.74194 245.492 9.08568C245.492 8.42942 245.728 7.88596 246.2 7.45529C246.671 7.00412 247.256 6.77853 247.953 6.77853C248.65 6.77853 249.235 6.99386 249.707 7.42453C250.178 7.83469 250.414 8.35765 250.414 8.9934C250.414 9.67016 250.178 10.2444 249.707 10.7161C249.255 11.1672 248.671 11.3928 247.953 11.3928ZM264.228 13.9153C266.3 13.9153 267.961 14.5203 269.212 15.7303C270.463 16.9403 271.088 18.7347 271.088 21.1137V30.5269H267.243V21.6059C267.243 20.1703 266.905 19.0936 266.228 18.3758C265.551 17.6375 264.587 17.2684 263.336 17.2684C261.921 17.2684 260.803 17.6991 259.983 18.5604C259.163 19.4012 258.753 20.6215 258.753 22.2211V30.5269H254.907V14.0999H258.568V16.2225C259.204 15.4637 260.004 14.8895 260.968 14.4998C261.931 14.1102 263.018 13.9153 264.228 13.9153ZM292.42 14.0999V28.0351C292.42 33.8184 289.467 36.71 283.561 36.71C281.982 36.71 280.485 36.505 279.07 36.0948C277.654 35.7051 276.486 35.1309 275.563 34.3721L277.285 31.4805C278.003 32.0752 278.905 32.5469 279.992 32.8955C281.1 33.2647 282.218 33.4493 283.345 33.4493C285.15 33.4493 286.473 33.0391 287.314 32.2188C288.155 31.3984 288.575 30.1475 288.575 28.4658V27.6045C287.919 28.3222 287.119 28.8657 286.176 29.2348C285.232 29.604 284.197 29.7886 283.069 29.7886C281.51 29.7886 280.095 29.4604 278.823 28.8042C277.572 28.1274 276.578 27.184 275.84 25.9741C275.122 24.7641 274.763 23.3798 274.763 21.8212C274.763 20.2626 275.122 18.8885 275.84 17.6991C276.578 16.4891 277.572 15.556 278.823 14.8997C280.095 14.2435 281.51 13.9153 283.069 13.9153C284.258 13.9153 285.335 14.1102 286.299 14.4998C287.283 14.8895 288.103 15.4842 288.76 16.284V14.0999H292.42ZM283.653 26.5278C285.109 26.5278 286.299 26.0971 287.221 25.2358C288.165 24.3539 288.637 23.2157 288.637 21.8212C288.637 20.4471 288.165 19.3295 287.221 18.4681C286.299 17.6068 285.109 17.1761 283.653 17.1761C282.177 17.1761 280.967 17.6068 280.023 18.4681C279.1 19.3295 278.639 20.4471 278.639 21.8212C278.639 23.2157 279.1 24.3539 280.023 25.2358C280.967 26.0971 282.177 26.5278 283.653 26.5278Z" fill="white"/>
<path d="M13.1813 66.6348C12.7301 67.0039 12.1764 67.2808 11.5201 67.4653C10.8844 67.6499 10.2076 67.7422 9.48985 67.7422C7.68514 67.7422 6.29059 67.2705 5.30621 66.3271C4.32182 65.3838 3.82963 64.0097 3.82963 62.205V54.2992H1.12256V51.223H3.82963V47.47H7.67489V51.223H12.0739V54.2992H7.67489V62.1127C7.67489 62.9125 7.86971 63.5278 8.25937 63.9585C8.64902 64.3686 9.21299 64.5737 9.95128 64.5737C10.8126 64.5737 11.5304 64.3481 12.1046 63.8969L13.1813 66.6348ZM31.2463 59.4057C31.2463 59.6723 31.2258 60.0517 31.1848 60.5439H18.2955C18.5211 61.7538 19.1056 62.7177 20.0489 63.4355C21.0128 64.1328 22.2023 64.4814 23.6173 64.4814C25.422 64.4814 26.9089 63.8867 28.0778 62.6972L30.1389 65.0659C29.4006 65.9477 28.4675 66.6142 27.3395 67.0654C26.2116 67.5166 24.9401 67.7422 23.525 67.7422C21.7203 67.7422 20.131 67.3833 18.7569 66.6655C17.3829 65.9477 16.3165 64.9531 15.5577 63.6816C14.8194 62.3896 14.4502 60.9335 14.4502 59.3134C14.4502 57.7138 14.8091 56.2782 15.5269 55.0067C16.2652 53.7147 17.2803 52.7098 18.5724 51.992C19.8644 51.2742 21.3204 50.9153 22.9406 50.9153C24.5402 50.9153 25.9655 51.2742 27.2165 51.992C28.488 52.6893 29.4724 53.6839 30.1697 54.9759C30.8874 56.2474 31.2463 57.724 31.2463 59.4057ZM22.9406 53.9915C21.7101 53.9915 20.6642 54.3607 19.8028 55.099C18.962 55.8168 18.4493 56.7806 18.2647 57.9906H27.5856C27.4216 56.8011 26.9191 55.8373 26.0783 55.099C25.2375 54.3607 24.1916 53.9915 22.9406 53.9915ZM42.4767 67.7422C40.7745 67.7422 39.2466 67.3833 37.8931 66.6655C36.5396 65.9477 35.4834 64.9531 34.7246 63.6816C33.9658 62.3896 33.5864 60.9335 33.5864 59.3134C33.5864 57.6932 33.9658 56.2474 34.7246 54.9759C35.4834 53.7044 36.5293 52.7098 37.8623 51.992C39.2159 51.2742 40.754 50.9153 42.4767 50.9153C44.0968 50.9153 45.5118 51.2435 46.7218 51.8997C47.9523 52.556 48.8752 53.4993 49.4904 54.7298L46.5373 56.4525C46.0656 55.6937 45.4708 55.1297 44.753 54.7606C44.0558 54.3709 43.2867 54.1761 42.4459 54.1761C41.0103 54.1761 39.8209 54.6478 38.8775 55.5912C37.9341 56.514 37.4624 57.7548 37.4624 59.3134C37.4624 60.872 37.9239 62.123 38.8467 63.0664C39.7901 63.9892 40.9898 64.4506 42.4459 64.4506C43.2867 64.4506 44.0558 64.2661 44.753 63.8969C45.4708 63.5073 46.0656 62.9331 46.5373 62.1743L49.4904 63.8969C48.8547 65.1274 47.9215 66.081 46.6911 66.7578C45.4811 67.4141 44.0763 67.7422 42.4767 67.7422Z" fill="white"/>
<path d="M76.1119 52.7169V65.8725C76.1119 66.3257 75.9495 66.7148 75.6247 67.0396C75.3074 67.3644 74.9221 67.5269 74.4689 67.5269C74.0156 67.5269 73.6266 67.3644 73.3018 67.0396C72.9845 66.7148 72.8258 66.3257 72.8258 65.8725V60.9434H56.3842V65.8725C56.3842 66.3257 56.2218 66.7148 55.8969 67.0396C55.5797 67.3644 55.1944 67.5269 54.7411 67.5269C54.2879 67.5269 53.8989 67.3644 53.574 67.0396C53.2567 66.7148 53.0981 66.3257 53.0981 65.8725V52.7169C53.0981 52.2636 53.2567 51.8784 53.574 51.5611C53.8989 51.2363 54.2879 51.0739 54.7411 51.0739C55.1944 51.0739 55.5797 51.2363 55.8969 51.5611C56.2218 51.8784 56.3842 52.2636 56.3842 52.7169V57.6573H72.8258V52.7169C72.8258 52.2636 72.9845 51.8784 73.3018 51.5611C73.6266 51.2363 74.0156 51.0739 74.4689 51.0739C74.9221 51.0739 75.3074 51.2325 75.6247 51.5498C75.9419 51.867 76.1044 52.2561 76.1119 52.7169Z" fill="white"/>
<path d="M90.9689 50.9153C93.0402 50.9153 94.7014 51.5203 95.9523 52.7303C97.2033 53.9403 97.8288 55.7347 97.8288 58.1137V67.5269H93.9836V58.6059C93.9836 57.1703 93.6452 56.0936 92.9684 55.3758C92.2917 54.6375 91.3278 54.2684 90.0768 54.2684C88.6617 54.2684 87.544 54.6991 86.7237 55.5604C85.9034 56.4012 85.4932 57.6215 85.4932 59.2211V67.5269H81.648V51.0999H85.3087V53.2225C85.9444 52.4637 86.7442 51.8895 87.7081 51.4998C88.672 51.1102 89.7589 50.9153 90.9689 50.9153ZM110.24 67.7422C108.579 67.7422 107.082 67.3833 105.749 66.6655C104.416 65.9477 103.37 64.9531 102.611 63.6816C101.873 62.3896 101.503 60.9335 101.503 59.3134C101.503 57.6932 101.873 56.2474 102.611 54.9759C103.37 53.7044 104.416 52.7098 105.749 51.992C107.082 51.2742 108.579 50.9153 110.24 50.9153C111.922 50.9153 113.429 51.2742 114.762 51.992C116.095 52.7098 117.131 53.7044 117.869 54.9759C118.628 56.2474 119.007 57.6932 119.007 59.3134C119.007 60.9335 118.628 62.3896 117.869 63.6816C117.131 64.9531 116.095 65.9477 114.762 66.6655C113.429 67.3833 111.922 67.7422 110.24 67.7422ZM110.24 64.4506C111.655 64.4506 112.824 63.979 113.747 63.0356C114.67 62.0922 115.131 60.8515 115.131 59.3134C115.131 57.7753 114.67 56.5345 113.747 55.5912C112.824 54.6478 111.655 54.1761 110.24 54.1761C108.825 54.1761 107.656 54.6478 106.733 55.5912C105.831 56.5345 105.379 57.7753 105.379 59.3134C105.379 60.8515 105.831 62.0922 106.733 63.0356C107.656 63.979 108.825 64.4506 110.24 64.4506ZM122.684 44.7014H126.529V67.5269H122.684V44.7014ZM138.959 67.7422C137.298 67.7422 135.801 67.3833 134.468 66.6655C133.135 65.9477 132.089 64.9531 131.33 63.6816C130.592 62.3896 130.223 60.9335 130.223 59.3134C130.223 57.6932 130.592 56.2474 131.33 54.9759C132.089 53.7044 133.135 52.7098 134.468 51.992C135.801 51.2742 137.298 50.9153 138.959 50.9153C140.641 50.9153 142.148 51.2742 143.481 51.992C144.814 52.7098 145.85 53.7044 146.588 54.9759C147.347 56.2474 147.726 57.6932 147.726 59.3134C147.726 60.9335 147.347 62.3896 146.588 63.6816C145.85 64.9531 144.814 65.9477 143.481 66.6655C142.148 67.3833 140.641 67.7422 138.959 67.7422ZM138.959 64.4506C140.374 64.4506 141.543 63.979 142.466 63.0356C143.389 62.0922 143.85 60.8515 143.85 59.3134C143.85 57.7753 143.389 56.5345 142.466 55.5912C141.543 54.6478 140.374 54.1761 138.959 54.1761C137.544 54.1761 136.375 54.6478 135.452 55.5912C134.55 56.5345 134.099 57.7753 134.099 59.3134C134.099 60.8515 134.55 62.0922 135.452 63.0356C136.375 63.979 137.544 64.4506 138.959 64.4506ZM167.707 51.0999V65.0351C167.707 70.8184 164.754 73.71 158.848 73.71C157.269 73.71 155.772 73.505 154.357 73.0948C152.942 72.7051 151.773 72.1309 150.85 71.3721L152.572 68.4805C153.29 69.0752 154.192 69.5469 155.279 69.8955C156.387 70.2647 157.505 70.4493 158.632 70.4493C160.437 70.4493 161.76 70.0391 162.601 69.2188C163.442 68.3984 163.862 67.1475 163.862 65.4658V64.6045C163.206 65.3222 162.406 65.8657 161.463 66.2348C160.519 66.604 159.484 66.7886 158.356 66.7886C156.797 66.7886 155.382 66.4604 154.11 65.8042C152.859 65.1274 151.865 64.184 151.127 62.9741C150.409 61.7641 150.05 60.3798 150.05 58.8212C150.05 57.2626 150.409 55.8885 151.127 54.6991C151.865 53.4891 152.859 52.556 154.11 51.8997C155.382 51.2435 156.797 50.9153 158.356 50.9153C159.545 50.9153 160.622 51.1102 161.586 51.4998C162.57 51.8895 163.39 52.4842 164.047 53.284V51.0999H167.707ZM158.94 63.5278C160.396 63.5278 161.586 63.0971 162.509 62.2358C163.452 61.3539 163.924 60.2157 163.924 58.8212C163.924 57.4471 163.452 56.3295 162.509 55.4681C161.586 54.6068 160.396 54.1761 158.94 54.1761C157.464 54.1761 156.254 54.6068 155.31 55.4681C154.387 56.3295 153.926 57.4471 153.926 58.8212C153.926 60.2157 154.387 61.3539 155.31 62.2358C156.254 63.0971 157.464 63.5278 158.94 63.5278ZM172.763 51.0999H176.608V67.5269H172.763V51.0999ZM174.701 48.3928C174.003 48.3928 173.419 48.1775 172.947 47.7468C172.476 47.2957 172.24 46.7419 172.24 46.0857C172.24 45.4294 172.476 44.886 172.947 44.4553C173.419 44.0041 174.003 43.7785 174.701 43.7785C175.398 43.7785 175.982 43.9939 176.454 44.4245C176.926 44.8347 177.162 45.3576 177.162 45.9934C177.162 46.6702 176.926 47.2444 176.454 47.7161C176.003 48.1672 175.418 48.3928 174.701 48.3928ZM197.097 59.4057C197.097 59.6723 197.077 60.0517 197.036 60.5439H184.147C184.372 61.7538 184.957 62.7177 185.9 63.4355C186.864 64.1328 188.053 64.4814 189.468 64.4814C191.273 64.4814 192.76 63.8867 193.929 62.6972L195.99 65.0659C195.252 65.9477 194.319 66.6142 193.191 67.0654C192.063 67.5166 190.791 67.7422 189.376 67.7422C187.571 67.7422 185.982 67.3833 184.608 66.6655C183.234 65.9477 182.167 64.9531 181.409 63.6816C180.67 62.3896 180.301 60.9335 180.301 59.3134C180.301 57.7138 180.66 56.2782 181.378 55.0067C182.116 53.7147 183.131 52.7098 184.423 51.992C185.715 51.2742 187.171 50.9153 188.792 50.9153C190.391 50.9153 191.817 51.2742 193.068 51.992C194.339 52.6893 195.323 53.6839 196.021 54.9759C196.738 56.2474 197.097 57.724 197.097 59.4057ZM188.792 53.9915C187.561 53.9915 186.515 54.3607 185.654 55.099C184.813 55.8168 184.3 56.7806 184.116 57.9906H193.437C193.273 56.8011 192.77 55.8373 191.929 55.099C191.088 54.3607 190.043 53.9915 188.792 53.9915ZM205.867 67.7422C204.534 67.7422 203.231 67.5679 201.96 67.2192C200.688 66.8706 199.673 66.4297 198.914 65.8965L200.391 62.9741C201.129 63.4663 202.011 63.8662 203.037 64.1738C204.083 64.4609 205.108 64.6045 206.113 64.6045C208.41 64.6045 209.558 63.9995 209.558 62.7895C209.558 62.2153 209.261 61.8154 208.666 61.5898C208.092 61.3642 207.159 61.1488 205.867 60.9438C204.513 60.7387 203.406 60.5028 202.544 60.2362C201.704 59.9696 200.965 59.5082 200.33 58.8519C199.714 58.1752 199.407 57.2421 199.407 56.0526C199.407 54.494 200.053 53.2532 201.345 52.3304C202.657 51.387 204.421 50.9153 206.636 50.9153C207.764 50.9153 208.892 51.0486 210.02 51.3152C211.148 51.5613 212.07 51.8997 212.788 52.3304L211.312 55.2528C209.917 54.4325 208.348 54.0223 206.605 54.0223C205.477 54.0223 204.616 54.1966 204.021 54.5453C203.447 54.8734 203.16 55.3143 203.16 55.868C203.16 56.4833 203.467 56.9242 204.083 57.1908C204.718 57.4369 205.692 57.6727 207.005 57.8983C208.317 58.1034 209.394 58.3392 210.235 58.6059C211.076 58.8725 211.794 59.3236 212.388 59.9594C213.004 60.5951 213.311 61.4975 213.311 62.6664C213.311 64.2046 212.645 65.435 211.312 66.3579C209.979 67.2808 208.164 67.7422 205.867 67.7422Z" fill="white"/>
<path d="M230.972 50.9153C233.392 50.9153 235.237 51.4998 236.509 52.6688C237.801 53.8172 238.447 55.5604 238.447 57.8983V67.5269H234.817V65.5273C234.345 66.2451 233.669 66.7988 232.787 67.1885C231.925 67.5576 230.879 67.7422 229.649 67.7422C228.419 67.7422 227.342 67.5371 226.419 67.1269C225.496 66.6963 224.778 66.1118 224.266 65.3735C223.773 64.6147 223.527 63.7636 223.527 62.8203C223.527 61.3437 224.071 60.1645 225.158 59.2826C226.265 58.3803 227.998 57.9291 230.357 57.9291H234.602V57.683C234.602 56.5345 234.253 55.6527 233.556 55.0374C232.879 54.4222 231.864 54.1146 230.51 54.1146C229.587 54.1146 228.675 54.2581 227.773 54.5453C226.891 54.8324 226.142 55.2323 225.527 55.745L224.02 52.9456C224.881 52.2894 225.917 51.7869 227.127 51.4383C228.336 51.0896 229.618 50.9153 230.972 50.9153ZM230.449 64.9428C231.413 64.9428 232.264 64.7275 233.002 64.2968C233.761 63.8457 234.294 63.2099 234.602 62.3896V60.4823H230.633C228.419 60.4823 227.311 61.2104 227.311 62.6664C227.311 63.3637 227.588 63.9174 228.142 64.3276C228.695 64.7378 229.464 64.9428 230.449 64.9428ZM252.703 50.9153C254.774 50.9153 256.435 51.5203 257.686 52.7303C258.937 53.9403 259.563 55.7347 259.563 58.1137V67.5269H255.717V58.6059C255.717 57.1703 255.379 56.0936 254.702 55.3758C254.026 54.6375 253.062 54.2684 251.811 54.2684C250.396 54.2684 249.278 54.6991 248.458 55.5604C247.637 56.4012 247.227 57.6215 247.227 59.2211V67.5269H243.382V51.0999H247.043V53.2225C247.678 52.4637 248.478 51.8895 249.442 51.4998C250.406 51.1102 251.493 50.9153 252.703 50.9153ZM280.679 44.7014V67.5269H276.988V65.4043C276.352 66.1836 275.563 66.7681 274.619 67.1577C273.696 67.5474 272.671 67.7422 271.543 67.7422C269.964 67.7422 268.539 67.3936 267.267 66.6963C266.016 65.999 265.032 65.0146 264.314 63.7431C263.596 62.4511 263.237 60.9745 263.237 59.3134C263.237 57.6522 263.596 56.1859 264.314 54.9144C265.032 53.6429 266.016 52.6585 267.267 51.9612C268.539 51.264 269.964 50.9153 271.543 50.9153C272.63 50.9153 273.625 51.0999 274.527 51.469C275.429 51.8382 276.198 52.3919 276.834 53.1302V44.7014H280.679ZM272.005 64.4506C272.927 64.4506 273.758 64.2456 274.496 63.8354C275.235 63.4047 275.819 62.7997 276.25 62.0204C276.68 61.2411 276.896 60.3388 276.896 59.3134C276.896 58.288 276.68 57.3856 276.25 56.6063C275.819 55.827 275.235 55.2323 274.496 54.8221C273.758 54.3914 272.927 54.1761 272.005 54.1761C271.082 54.1761 270.251 54.3914 269.513 54.8221C268.775 55.2323 268.19 55.827 267.759 56.6063C267.329 57.3856 267.113 58.288 267.113 59.3134C267.113 60.3388 267.329 61.2411 267.759 62.0204C268.19 62.7997 268.775 63.4047 269.513 63.8354C270.251 64.2456 271.082 64.4506 272.005 64.4506Z" fill="white"/>
<path d="M8.38241 104.742C7.04939 104.742 5.74713 104.568 4.47563 104.219C3.20413 103.871 2.18898 103.43 1.43018 102.896L2.90676 99.9741C3.64505 100.466 4.5269 100.866 5.5523 101.174C6.59821 101.461 7.62362 101.604 8.62851 101.604C10.9254 101.604 12.0739 100.999 12.0739 99.7895C12.0739 99.2153 11.7765 98.8154 11.1818 98.5898C10.6075 98.3642 9.67442 98.1488 8.38241 97.9438C7.02888 97.7387 5.92145 97.5028 5.06011 97.2362C4.21928 96.9696 3.48099 96.5082 2.84524 95.8519C2.23 95.1752 1.92238 94.2421 1.92238 93.0526C1.92238 91.494 2.56838 90.2532 3.86039 89.3304C5.1729 88.387 6.9366 87.9153 9.15147 87.9153C10.2794 87.9153 11.4074 88.0486 12.5353 88.3152C13.6632 88.5613 14.5861 88.8997 15.3039 89.3304L13.8273 92.2528C12.4328 91.4325 10.8639 91.0223 9.12071 91.0223C7.99276 91.0223 7.13142 91.1966 6.53669 91.5453C5.96246 91.8734 5.67535 92.3143 5.67535 92.868C5.67535 93.4833 5.98297 93.9242 6.59821 94.1908C7.23396 94.4369 8.2081 94.6727 9.52061 94.8983C10.8331 95.1034 11.9098 95.3392 12.7506 95.6059C13.5915 95.8725 14.3092 96.3236 14.904 96.9594C15.5192 97.5951 15.8268 98.4975 15.8268 99.6664C15.8268 101.205 15.1603 102.435 13.8273 103.358C12.4943 104.281 10.6793 104.742 8.38241 104.742ZM34.5809 96.4057C34.5809 96.6723 34.5604 97.0517 34.5194 97.5439H21.6301C21.8556 98.7538 22.4401 99.7177 23.3835 100.435C24.3474 101.133 25.5368 101.481 26.9519 101.481C28.7566 101.481 30.2434 100.887 31.4124 99.6972L33.4735 102.066C32.7352 102.948 31.8021 103.614 30.6741 104.065C29.5462 104.517 28.2747 104.742 26.8596 104.742C25.0549 104.742 23.4655 104.383 22.0915 103.666C20.7174 102.948 19.651 101.953 18.8922 100.682C18.1539 99.3896 17.7848 97.9335 17.7848 96.3134C17.7848 94.7138 18.1437 93.2782 18.8615 92.0067C19.5998 90.7147 20.6149 89.7098 21.9069 88.992C23.1989 88.2742 24.655 87.9153 26.2751 87.9153C27.8748 87.9153 29.3001 88.2742 30.5511 88.992C31.8226 89.6893 32.8069 90.6839 33.5042 91.9759C34.222 93.2474 34.5809 94.724 34.5809 96.4057ZM26.2751 90.9915C25.0446 90.9915 23.9987 91.3607 23.1374 92.099C22.2966 92.8168 21.7839 93.7806 21.5993 94.9906H30.9202C30.7561 93.8011 30.2537 92.8373 29.4129 92.099C28.572 91.3607 27.5261 90.9915 26.2751 90.9915ZM41.9352 90.4993C43.0426 88.7767 44.9909 87.9153 47.78 87.9153V91.576C47.4519 91.5145 47.1545 91.4837 46.8879 91.4837C45.3908 91.4837 44.2218 91.9247 43.381 92.8065C42.5402 93.6678 42.1198 94.9188 42.1198 96.5595V104.527H38.2745V88.0999H41.9352V90.4993ZM67.0238 88.0999L59.9793 104.527H56.011L48.9665 88.0999H52.9656L58.0721 100.282L63.3324 88.0999H67.0238ZM69.4271 88.0999H73.2724V104.527H69.4271V88.0999ZM71.3651 85.3928C70.6679 85.3928 70.0834 85.1775 69.6117 84.7468C69.14 84.2957 68.9042 83.7419 68.9042 83.0857C68.9042 82.4294 69.14 81.886 69.6117 81.4553C70.0834 81.0041 70.6679 80.7785 71.3651 80.7785C72.0624 80.7785 72.6469 80.9939 73.1186 81.4245C73.5903 81.8347 73.8261 82.3576 73.8261 82.9934C73.8261 83.6702 73.5903 84.2444 73.1186 84.7161C72.6674 85.1672 72.0829 85.3928 71.3651 85.3928ZM85.856 104.742C84.1538 104.742 82.626 104.383 81.2724 103.666C79.9189 102.948 78.8628 101.953 78.104 100.682C77.3452 99.3896 76.9658 97.9335 76.9658 96.3134C76.9658 94.6932 77.3452 93.2474 78.104 91.9759C78.8628 90.7044 79.9087 89.7098 81.2417 88.992C82.5952 88.2742 84.1333 87.9153 85.856 87.9153C87.4761 87.9153 88.8912 88.2435 90.1012 88.8997C91.3317 89.556 92.2545 90.4993 92.8698 91.7298L89.9166 93.4525C89.4449 92.6937 88.8502 92.1297 88.1324 91.7606C87.4351 91.3709 86.6661 91.1761 85.8252 91.1761C84.3897 91.1761 83.2002 91.6478 82.2568 92.5912C81.3135 93.514 80.8418 94.7548 80.8418 96.3134C80.8418 97.872 81.3032 99.123 82.2261 100.066C83.1694 100.989 84.3692 101.451 85.8252 101.451C86.6661 101.451 87.4351 101.266 88.1324 100.897C88.8502 100.507 89.4449 99.9331 89.9166 99.1743L92.8698 100.897C92.234 102.127 91.3009 103.081 90.0704 103.758C88.8604 104.414 87.4556 104.742 85.856 104.742ZM111.396 96.4057C111.396 96.6723 111.375 97.0517 111.334 97.5439H98.4451C98.6707 98.7538 99.2552 99.7177 100.199 100.435C101.162 101.133 102.352 101.481 103.767 101.481C105.572 101.481 107.059 100.887 108.227 99.6972L110.289 102.066C109.55 102.948 108.617 103.614 107.489 104.065C106.361 104.517 105.09 104.742 103.675 104.742C101.87 104.742 100.281 104.383 98.9066 103.666C97.5325 102.948 96.4661 101.953 95.7073 100.682C94.969 99.3896 94.5999 97.9335 94.5999 96.3134C94.5999 94.7138 94.9588 93.2782 95.6766 92.0067C96.4148 90.7147 97.43 89.7098 98.722 88.992C100.014 88.2742 101.47 87.9153 103.09 87.9153C104.69 87.9153 106.115 88.2742 107.366 88.992C108.638 89.6893 109.622 90.6839 110.319 91.9759C111.037 93.2474 111.396 94.724 111.396 96.4057ZM103.09 90.9915C101.86 90.9915 100.814 91.3607 99.9525 92.099C99.1117 92.8168 98.599 93.7806 98.4144 94.9906H107.735C107.571 93.8011 107.069 92.8373 106.228 92.099C105.387 91.3607 104.341 90.9915 103.09 90.9915ZM120.165 104.742C118.832 104.742 117.53 104.568 116.259 104.219C114.987 103.871 113.972 103.43 113.213 102.896L114.69 99.9741C115.428 100.466 116.31 100.866 117.335 101.174C118.381 101.461 119.407 101.604 120.411 101.604C122.708 101.604 123.857 100.999 123.857 99.7895C123.857 99.2153 123.559 98.8154 122.965 98.5898C122.39 98.3642 121.457 98.1488 120.165 97.9438C118.812 97.7387 117.704 97.5028 116.843 97.2362C116.002 96.9696 115.264 96.5082 114.628 95.8519C114.013 95.1752 113.705 94.2421 113.705 93.0526C113.705 91.494 114.351 90.2532 115.643 89.3304C116.956 88.387 118.72 87.9153 120.934 87.9153C122.062 87.9153 123.19 88.0486 124.318 88.3152C125.446 88.5613 126.369 88.8997 127.087 89.3304L125.61 92.2528C124.216 91.4325 122.647 91.0223 120.904 91.0223C119.776 91.0223 118.914 91.1966 118.32 91.5453C117.745 91.8734 117.458 92.3143 117.458 92.868C117.458 93.4833 117.766 93.9242 118.381 94.1908C119.017 94.4369 119.991 94.6727 121.304 94.8983C122.616 95.1034 123.693 95.3392 124.534 95.6059C125.374 95.8725 126.092 96.3236 126.687 96.9594C127.302 97.5951 127.61 98.4975 127.61 99.6664C127.61 101.205 126.943 102.435 125.61 103.358C124.277 104.281 122.462 104.742 120.165 104.742ZM146.098 84.593C144.478 84.593 143.668 85.4749 143.668 87.2386V88.223H148.19V91.2992H143.791V104.527H139.946V91.2992H137.239V88.223H139.946V87.177C139.946 85.4133 140.459 84.0291 141.484 83.0242C142.509 81.9988 143.955 81.4861 145.821 81.4861C147.298 81.4861 148.457 81.7834 149.298 82.3782L148.221 85.2698C147.565 84.8186 146.857 84.593 146.098 84.593ZM157.921 104.742C156.26 104.742 154.763 104.383 153.43 103.666C152.097 102.948 151.051 101.953 150.292 100.682C149.554 99.3896 149.185 97.9335 149.185 96.3134C149.185 94.6932 149.554 93.2474 150.292 91.9759C151.051 90.7044 152.097 89.7098 153.43 88.992C154.763 88.2742 156.26 87.9153 157.921 87.9153C159.603 87.9153 161.11 88.2742 162.443 88.992C163.776 89.7098 164.812 90.7044 165.55 91.9759C166.309 93.2474 166.688 94.6932 166.688 96.3134C166.688 97.9335 166.309 99.3896 165.55 100.682C164.812 101.953 163.776 102.948 162.443 103.666C161.11 104.383 159.603 104.742 157.921 104.742ZM157.921 101.451C159.336 101.451 160.505 100.979 161.428 100.036C162.351 99.0922 162.812 97.8515 162.812 96.3134C162.812 94.7753 162.351 93.5345 161.428 92.5912C160.505 91.6478 159.336 91.1761 157.921 91.1761C156.506 91.1761 155.337 91.6478 154.414 92.5912C153.512 93.5345 153.061 94.7753 153.061 96.3134C153.061 97.8515 153.512 99.0922 154.414 100.036C155.337 100.979 156.506 101.451 157.921 101.451ZM174.026 90.4993C175.133 88.7767 177.082 87.9153 179.871 87.9153V91.576C179.543 91.5145 179.245 91.4837 178.979 91.4837C177.481 91.4837 176.313 91.9247 175.472 92.8065C174.631 93.6678 174.21 94.9188 174.21 96.5595V104.527H170.365V88.0999H174.026V90.4993Z" fill="white"/>
<path d="M207.444 81.7014V104.527H203.753V102.404C203.117 103.184 202.327 103.768 201.384 104.158C200.461 104.547 199.436 104.742 198.308 104.742C196.729 104.742 195.303 104.394 194.032 103.696C192.781 102.999 191.796 102.015 191.079 100.743C190.361 99.4511 190.002 97.9745 190.002 96.3134C190.002 94.6522 190.361 93.1859 191.079 91.9144C191.796 90.6429 192.781 89.6585 194.032 88.9612C195.303 88.264 196.729 87.9153 198.308 87.9153C199.395 87.9153 200.389 88.0999 201.292 88.469C202.194 88.8382 202.963 89.3919 203.599 90.1302V81.7014H207.444ZM198.769 101.451C199.692 101.451 200.523 101.246 201.261 100.835C201.999 100.405 202.584 99.7997 203.014 99.0204C203.445 98.2411 203.66 97.3388 203.66 96.3134C203.66 95.288 203.445 94.3856 203.014 93.6063C202.584 92.827 201.999 92.2323 201.261 91.8221C200.523 91.3914 199.692 91.1761 198.769 91.1761C197.846 91.1761 197.016 91.3914 196.277 91.8221C195.539 92.2323 194.955 92.827 194.524 93.6063C194.093 94.3856 193.878 95.288 193.878 96.3134C193.878 97.3388 194.093 98.2411 194.524 99.0204C194.955 99.7997 195.539 100.405 196.277 100.835C197.016 101.246 197.846 101.451 198.769 101.451ZM212.474 88.0999H216.32V104.527H212.474V88.0999ZM214.412 85.3928C213.715 85.3928 213.131 85.1775 212.659 84.7468C212.187 84.2957 211.951 83.7419 211.951 83.0857C211.951 82.4294 212.187 81.886 212.659 81.4553C213.131 81.0041 213.715 80.7785 214.412 80.7785C215.11 80.7785 215.694 80.9939 216.166 81.4245C216.638 81.8347 216.873 82.3576 216.873 82.9934C216.873 83.6702 216.638 84.2444 216.166 84.7161C215.715 85.1672 215.13 85.3928 214.412 85.3928Z" fill="white"/>
<path d="M245.172 96.3004V102.884C245.172 103.337 245.01 103.726 244.685 104.051C244.368 104.368 243.982 104.527 243.529 104.527H227.076C226.623 104.527 226.238 104.364 225.92 104.04L222.634 100.754C222.309 100.436 222.147 100.051 222.147 99.5978V93.0143C222.147 92.561 222.309 92.172 222.634 91.8472L225.92 88.5611C226.238 88.2438 226.623 88.0852 227.076 88.0852H243.529C243.982 88.0852 244.368 88.2476 244.685 88.5724C245.01 88.8897 245.172 89.275 245.172 89.7282C245.172 90.1815 245.01 90.5705 244.685 90.8953C244.368 91.2126 243.982 91.3713 243.529 91.3713H227.767L225.433 93.6942V98.9065L227.767 101.241H241.886V97.9434H233.66C233.206 97.9434 232.817 97.7848 232.492 97.4675C232.175 97.1426 232.016 96.7536 232.016 96.3004C232.016 95.8471 232.175 95.4618 232.492 95.1446C232.817 94.8197 233.206 94.6573 233.66 94.6573H243.529C243.982 94.6573 244.368 94.8197 244.685 95.1446C245.01 95.4618 245.172 95.8471 245.172 96.3004Z" fill="white"/>
<path d="M250.697 88.0999H254.543V104.527H250.697V88.0999ZM252.635 85.3928C251.938 85.3928 251.354 85.1775 250.882 84.7468C250.41 84.2957 250.174 83.7419 250.174 83.0857C250.174 82.4294 250.41 81.886 250.882 81.4553C251.354 81.0041 251.938 80.7785 252.635 80.7785C253.333 80.7785 253.917 80.9939 254.389 81.4245C254.86 81.8347 255.096 82.3576 255.096 82.9934C255.096 83.6702 254.86 84.2444 254.389 84.7161C253.938 85.1672 253.353 85.3928 252.635 85.3928ZM269.464 103.635C269.013 104.004 268.459 104.281 267.803 104.465C267.167 104.65 266.49 104.742 265.773 104.742C263.968 104.742 262.573 104.271 261.589 103.327C260.605 102.384 260.112 101.01 260.112 99.205V91.2992H257.405V88.223H260.112V84.47H263.958V88.223H268.357V91.2992H263.958V99.1127C263.958 99.9125 264.153 100.528 264.542 100.958C264.932 101.369 265.496 101.574 266.234 101.574C267.095 101.574 267.813 101.348 268.387 100.897L269.464 103.635ZM278.903 87.9153C281.323 87.9153 283.168 88.4998 284.44 89.6688C285.732 90.8172 286.378 92.5604 286.378 94.8983V104.527H282.748V102.527C282.276 103.245 281.6 103.799 280.718 104.188C279.856 104.558 278.81 104.742 277.58 104.742C276.35 104.742 275.273 104.537 274.35 104.127C273.427 103.696 272.709 103.112 272.197 102.374C271.704 101.615 271.458 100.764 271.458 99.8203C271.458 98.3437 272.002 97.1645 273.089 96.2826C274.196 95.3803 275.929 94.9291 278.288 94.9291H282.533V94.683C282.533 93.5345 282.184 92.6527 281.487 92.0374C280.81 91.4222 279.795 91.1146 278.441 91.1146C277.518 91.1146 276.606 91.2581 275.704 91.5453C274.822 91.8324 274.073 92.2323 273.458 92.745L271.951 89.9456C272.812 89.2894 273.848 88.7869 275.058 88.4383C276.267 88.0896 277.549 87.9153 278.903 87.9153ZM278.38 101.943C279.344 101.943 280.195 101.728 280.933 101.297C281.692 100.846 282.225 100.21 282.533 99.3896V97.4823H278.564C276.35 97.4823 275.242 98.2104 275.242 99.6664C275.242 100.364 275.519 100.917 276.073 101.328C276.626 101.738 277.395 101.943 278.38 101.943ZM291.313 81.7014H295.158V104.527H291.313V81.7014Z" fill="white"/>
<path d="M24.0403 124.915C26.1116 124.915 27.7523 125.52 28.9622 126.73C30.1722 127.92 30.7772 129.714 30.7772 132.114V141.527H26.932V132.606C26.932 131.17 26.6141 130.094 25.9783 129.376C25.3426 128.638 24.43 128.268 23.2405 128.268C21.9485 128.268 20.9128 128.699 20.1335 129.56C19.3542 130.401 18.9646 131.611 18.9646 133.19V141.527H15.1193V132.606C15.1193 131.17 14.8014 130.094 14.1657 129.376C13.5299 128.638 12.6173 128.268 11.4279 128.268C10.1153 128.268 9.06943 128.689 8.29013 129.53C7.53133 130.37 7.15193 131.591 7.15193 133.19V141.527H3.30667V125.1H6.96736V127.192C7.5826 126.453 8.35165 125.889 9.27452 125.5C10.1974 125.11 11.2228 124.915 12.3507 124.915C13.5812 124.915 14.6681 125.151 15.6115 125.623C16.5754 126.074 17.3342 126.751 17.8879 127.653C18.5647 126.792 19.4363 126.125 20.5027 125.654C21.5691 125.161 22.7483 124.915 24.0403 124.915ZM41.9664 124.915C44.3864 124.915 46.2321 125.5 47.5036 126.669C48.7956 127.817 49.4416 129.56 49.4416 131.898V141.527H45.8117V139.527C45.34 140.245 44.6632 140.799 43.7814 141.188C42.9201 141.558 41.8742 141.742 40.6437 141.742C39.4132 141.742 38.3365 141.537 37.4137 141.127C36.4908 140.696 35.773 140.112 35.2603 139.374C34.7681 138.615 34.522 137.764 34.522 136.82C34.522 135.344 35.0655 134.164 36.1524 133.283C37.2598 132.38 38.9928 131.929 41.3512 131.929H45.5964V131.683C45.5964 130.535 45.2477 129.653 44.5505 129.037C43.8737 128.422 42.8585 128.115 41.505 128.115C40.5821 128.115 39.6695 128.258 38.7672 128.545C37.8853 128.832 37.1368 129.232 36.5216 129.745L35.0142 126.946C35.8755 126.289 36.9112 125.787 38.1212 125.438C39.3312 125.09 40.6129 124.915 41.9664 124.915ZM41.4435 138.943C42.4074 138.943 43.2584 138.728 43.9967 138.297C44.7555 137.846 45.2887 137.21 45.5964 136.39V134.482H41.6281C39.4132 134.482 38.3058 135.21 38.3058 136.666C38.3058 137.364 38.5826 137.917 39.1363 138.328C39.69 138.738 40.4591 138.943 41.4435 138.943ZM58.0372 127.499C59.1447 125.777 61.0929 124.915 63.882 124.915V128.576C63.5539 128.514 63.2565 128.484 62.9899 128.484C61.4928 128.484 60.3239 128.925 59.483 129.807C58.6422 130.668 58.2218 131.919 58.2218 133.559V141.527H54.3765V125.1H58.0372V127.499ZM73.8501 134.482L70.9893 137.189V141.527H67.144V118.701H70.9893V132.483L78.9566 125.1H83.571L76.711 131.991L84.217 141.527H79.5411L73.8501 134.482ZM101.452 133.406C101.452 133.672 101.432 134.052 101.391 134.544H88.5015C88.7271 135.754 89.3116 136.718 90.255 137.435C91.2189 138.133 92.4083 138.481 93.8234 138.481C95.6281 138.481 97.1149 137.887 98.2839 136.697L100.345 139.066C99.6067 139.948 98.6735 140.614 97.5456 141.065C96.4176 141.517 95.1461 141.742 93.7311 141.742C91.9264 141.742 90.337 141.383 88.963 140.666C87.5889 139.948 86.5225 138.953 85.7637 137.682C85.0254 136.39 84.6563 134.934 84.6563 133.313C84.6563 131.714 85.0152 130.278 85.733 129.007C86.4712 127.715 87.4864 126.71 88.7784 125.992C90.0704 125.274 91.5265 124.915 93.1466 124.915C94.7462 124.915 96.1716 125.274 97.4225 125.992C98.694 126.689 99.6784 127.684 100.376 128.976C101.093 130.247 101.452 131.724 101.452 133.406ZM93.1466 127.992C91.9161 127.992 90.8702 128.361 90.0089 129.099C89.1681 129.817 88.6553 130.781 88.4708 131.991H97.7917C97.6276 130.801 97.1252 129.837 96.2843 129.099C95.4435 128.361 94.3976 127.992 93.1466 127.992ZM115.021 140.635C114.569 141.004 114.016 141.281 113.359 141.465C112.724 141.65 112.047 141.742 111.329 141.742C109.524 141.742 108.13 141.271 107.146 140.327C106.161 139.384 105.669 138.01 105.669 136.205V128.299H102.962V125.223H105.669V121.47H109.514V125.223H113.913V128.299H109.514V136.113C109.514 136.913 109.709 137.528 110.099 137.958C110.488 138.369 111.052 138.574 111.791 138.574C112.652 138.574 113.37 138.348 113.944 137.897L115.021 140.635ZM118.184 125.1H122.029V141.527H118.184V125.1ZM120.122 122.393C119.425 122.393 118.84 122.178 118.368 121.747C117.897 121.296 117.661 120.742 117.661 120.086C117.661 119.429 117.897 118.886 118.368 118.455C118.84 118.004 119.425 117.779 120.122 117.779C120.819 117.779 121.404 117.994 121.875 118.425C122.347 118.835 122.583 119.358 122.583 119.993C122.583 120.67 122.347 121.244 121.875 121.716C121.424 122.167 120.84 122.393 120.122 122.393ZM136.397 124.915C138.468 124.915 140.129 125.52 141.38 126.73C142.631 127.94 143.257 129.735 143.257 132.114V141.527H139.412V132.606C139.412 131.17 139.073 130.094 138.396 129.376C137.72 128.638 136.756 128.268 135.505 128.268C134.09 128.268 132.972 128.699 132.152 129.56C131.331 130.401 130.921 131.621 130.921 133.221V141.527H127.076V125.1H130.737V127.222C131.372 126.464 132.172 125.889 133.136 125.5C134.1 125.11 135.187 124.915 136.397 124.915ZM164.589 125.1V139.035C164.589 144.818 161.636 147.71 155.729 147.71C154.15 147.71 152.653 147.505 151.238 147.095C149.823 146.705 148.654 146.131 147.731 145.372L149.454 142.48C150.172 143.075 151.074 143.547 152.161 143.896C153.268 144.265 154.386 144.449 155.514 144.449C157.319 144.449 158.642 144.039 159.482 143.219C160.323 142.398 160.744 141.147 160.744 139.466V138.604C160.087 139.322 159.288 139.866 158.344 140.235C157.401 140.604 156.365 140.789 155.237 140.789C153.679 140.789 152.264 140.46 150.992 139.804C149.741 139.127 148.746 138.184 148.008 136.974C147.29 135.764 146.931 134.38 146.931 132.821C146.931 131.263 147.29 129.889 148.008 128.699C148.746 127.489 149.741 126.556 150.992 125.9C152.264 125.243 153.679 124.915 155.237 124.915C156.427 124.915 157.503 125.11 158.467 125.5C159.452 125.889 160.272 126.484 160.928 127.284V125.1H164.589ZM155.822 137.528C157.278 137.528 158.467 137.097 159.39 136.236C160.333 135.354 160.805 134.216 160.805 132.821C160.805 131.447 160.333 130.329 159.39 129.468C158.467 128.607 157.278 128.176 155.822 128.176C154.345 128.176 153.135 128.607 152.192 129.468C151.269 130.329 150.807 131.447 150.807 132.821C150.807 134.216 151.269 135.354 152.192 136.236C153.135 137.097 154.345 137.528 155.822 137.528Z" fill="white"/>
</svg>
