<svg width="298" height="149" viewBox="0 0 298 149" fill="none" xmlns="http://www.w3.org/2000/svg">
<rect width="295.895" height="147.852" transform="translate(0 0.938721)" fill="#262626"/>
<path d="M7.25985 12.7891H0.123048V9.40526H18.3957V12.7891H11.2589V30.9387H7.25985V12.7891ZM30.3487 14.3272C32.42 14.3272 34.0812 14.9322 35.3322 16.1422C36.5832 17.3521 37.2087 19.1466 37.2087 21.5255V30.9387H33.3634V22.0177C33.3634 20.5822 33.025 19.5055 32.3483 18.7877C31.6715 18.0494 30.7076 17.6803 29.4566 17.6803C28.0416 17.6803 26.9239 18.1109 26.1036 18.9723C25.2832 19.8131 24.8731 21.0333 24.8731 22.633V30.9387H21.0278V8.11325H24.8731V16.419C25.5088 15.7423 26.2881 15.2296 27.211 14.8809C28.1544 14.5118 29.2003 14.3272 30.3487 14.3272ZM57.6794 22.8175C57.6794 23.0841 57.6589 23.4635 57.6179 23.9557H44.7286C44.9541 25.1657 45.5386 26.1296 46.482 26.8474C47.4459 27.5446 48.6353 27.8933 50.0504 27.8933C51.8551 27.8933 53.3419 27.2985 54.5109 26.1091L56.572 28.4778C55.8337 29.3596 54.9005 30.0261 53.7726 30.4773C52.6447 30.9285 51.3732 31.1541 49.9581 31.1541C48.1534 31.1541 46.564 30.7952 45.19 30.0774C43.8159 29.3596 42.7495 28.365 41.9907 27.0935C41.2524 25.8015 40.8833 24.3454 40.8833 22.7252C40.8833 21.1256 41.2422 19.6901 41.96 18.4186C42.6983 17.1265 43.7134 16.1217 45.0054 15.4039C46.2974 14.6861 47.7535 14.3272 49.3736 14.3272C50.9733 14.3272 52.3986 14.6861 53.6496 15.4039C54.9211 16.1011 55.9054 17.0958 56.6027 18.3878C57.3205 19.6593 57.6794 21.1359 57.6794 22.8175ZM49.3736 17.4034C48.1431 17.4034 47.0972 17.7725 46.2359 18.5108C45.3951 19.2286 44.8824 20.1925 44.6978 21.4025H54.0187C53.8546 20.213 53.3522 19.2491 52.5114 18.5108C51.6705 17.7725 50.6246 17.4034 49.3736 17.4034ZM86.1785 14.5118V28.447C86.1785 34.2303 83.2254 37.1219 77.3191 37.1219C75.7399 37.1219 74.2428 36.9168 72.8278 36.5067C71.4127 36.117 70.2438 35.5428 69.3209 34.784L71.0436 31.8923C71.7614 32.4871 72.6637 32.9588 73.7507 33.3074C74.8581 33.6765 75.9758 33.8611 77.1037 33.8611C78.9084 33.8611 80.2312 33.451 81.072 32.6306C81.9129 31.8103 82.3333 30.5593 82.3333 28.8777V28.0163C81.677 28.7341 80.8772 29.2776 79.9338 29.6467C78.9905 30.0159 77.9548 30.2004 76.8269 30.2004C75.2683 30.2004 73.8532 29.8723 72.5817 29.216C71.3307 28.5393 70.3361 27.5959 69.5978 26.3859C68.88 25.176 68.5211 23.7917 68.5211 22.2331C68.5211 20.6744 68.88 19.3004 69.5978 18.1109C70.3361 16.901 71.3307 15.9678 72.5817 15.3116C73.8532 14.6553 75.2683 14.3272 76.8269 14.3272C78.0163 14.3272 79.093 14.522 80.0569 14.9117C81.0413 15.3013 81.8616 15.8961 82.5179 16.6959V14.5118H86.1785ZM77.4113 26.9396C78.8674 26.9396 80.0569 26.509 80.9797 25.6476C81.9231 24.7658 82.3948 23.6276 82.3948 22.2331C82.3948 20.859 81.9231 19.7413 80.9797 18.88C80.0569 18.0186 78.8674 17.588 77.4113 17.588C75.9348 17.588 74.7248 18.0186 73.7814 18.88C72.8586 19.7413 72.3971 20.859 72.3971 22.2331C72.3971 23.6276 72.8586 24.7658 73.7814 25.6476C74.7248 26.509 75.9348 26.9396 77.4113 26.9396ZM94.8945 16.9112C96.002 15.1885 97.9502 14.3272 100.739 14.3272V17.9879C100.411 17.9264 100.114 17.8956 99.8472 17.8956C98.3502 17.8956 97.1812 18.3365 96.3404 19.2184C95.4995 20.0797 95.0791 21.3307 95.0791 22.9713V30.9387H91.2339V14.5118H94.8945V16.9112ZM111.234 31.1541C109.573 31.1541 108.076 30.7952 106.743 30.0774C105.41 29.3596 104.364 28.365 103.605 27.0935C102.867 25.8015 102.498 24.3454 102.498 22.7252C102.498 21.1051 102.867 19.6593 103.605 18.3878C104.364 17.1163 105.41 16.1217 106.743 15.4039C108.076 14.6861 109.573 14.3272 111.234 14.3272C112.916 14.3272 114.423 14.6861 115.756 15.4039C117.089 16.1217 118.125 17.1163 118.863 18.3878C119.622 19.6593 120.001 21.1051 120.001 22.7252C120.001 24.3454 119.622 25.8015 118.863 27.0935C118.125 28.365 117.089 29.3596 115.756 30.0774C114.423 30.7952 112.916 31.1541 111.234 31.1541ZM111.234 27.8625C112.649 27.8625 113.818 27.3908 114.741 26.4475C115.664 25.5041 116.125 24.2633 116.125 22.7252C116.125 21.1871 115.664 19.9464 114.741 19.003C113.818 18.0597 112.649 17.588 111.234 17.588C109.819 17.588 108.65 18.0597 107.727 19.003C106.825 19.9464 106.374 21.1871 106.374 22.7252C106.374 24.2633 106.825 25.5041 107.727 26.4475C108.65 27.3908 109.819 27.8625 111.234 27.8625ZM139.582 14.5118V30.9387H135.922V28.8469C135.306 29.5852 134.537 30.1594 133.614 30.5696C132.692 30.9592 131.697 31.1541 130.63 31.1541C128.436 31.1541 126.703 30.5491 125.432 29.3391C124.181 28.1086 123.555 26.2936 123.555 23.8942V14.5118H127.4V23.3712C127.4 24.8478 127.729 25.9553 128.385 26.6936C129.062 27.4113 130.015 27.7702 131.246 27.7702C132.62 27.7702 133.707 27.3498 134.506 26.509C135.327 25.6476 135.737 24.4172 135.737 22.8175V14.5118H139.582ZM153.722 14.3272C155.322 14.3272 156.747 14.6758 157.998 15.3731C159.27 16.0704 160.265 17.0548 160.982 18.3263C161.7 19.5978 162.059 21.0641 162.059 22.7252C162.059 24.3864 161.7 25.863 160.982 27.155C160.265 28.4265 159.27 29.4109 157.998 30.1081C156.747 30.8054 155.322 31.1541 153.722 31.1541C151.508 31.1541 149.754 30.4158 148.462 28.9392V36.9066H144.617V14.5118H148.278V16.6651C148.913 15.8858 149.693 15.3013 150.615 14.9117C151.559 14.522 152.595 14.3272 153.722 14.3272ZM153.292 27.8625C154.707 27.8625 155.866 27.3908 156.768 26.4475C157.691 25.5041 158.152 24.2633 158.152 22.7252C158.152 21.1871 157.691 19.9464 156.768 19.003C155.866 18.0597 154.707 17.588 153.292 17.588C152.369 17.588 151.538 17.8033 150.8 18.234C150.062 18.6441 149.477 19.2389 149.047 20.0182C148.616 20.7975 148.401 21.6998 148.401 22.7252C148.401 23.7506 148.616 24.653 149.047 25.4323C149.477 26.2116 150.062 26.8166 150.8 27.2473C151.538 27.6574 152.369 27.8625 153.292 27.8625Z" fill="white"/>
<path d="M196.717 26.0096C196.717 26.4629 196.554 26.8481 196.229 27.1654L192.943 30.4515C192.626 30.7763 192.237 30.9387 191.776 30.9387H178.62C178.167 30.9387 177.782 30.7763 177.465 30.4515L174.179 27.1654C173.854 26.8481 173.691 26.4629 173.691 26.0096V16.1401C173.691 15.6868 173.85 15.3016 174.167 14.9843C174.492 14.6595 174.881 14.4971 175.334 14.4971C175.788 14.4971 176.173 14.6595 176.49 14.9843C176.815 15.3016 176.977 15.6868 176.977 16.1401V25.3184L179.312 27.6527H191.096L193.43 25.3184V16.1401C193.43 15.6868 193.589 15.3016 193.906 14.9843C194.231 14.6595 194.62 14.4971 195.073 14.4971C195.527 14.4971 195.912 14.6595 196.229 14.9843C196.554 15.3016 196.717 15.6868 196.717 16.1401V26.0096Z" fill="#EF6600"/>
<path d="M211.563 14.3272C213.634 14.3272 215.295 14.9322 216.546 16.1422C217.797 17.3521 218.423 19.1466 218.423 21.5255V30.9387H214.577V22.0177C214.577 20.5822 214.239 19.5055 213.562 18.7877C212.885 18.0494 211.922 17.6803 210.671 17.6803C209.255 17.6803 208.138 18.1109 207.317 18.9723C206.497 19.8131 206.087 21.0333 206.087 22.633V30.9387H202.242V14.5118H205.902V16.6344C206.538 15.8756 207.338 15.3013 208.302 14.9117C209.266 14.522 210.353 14.3272 211.563 14.3272ZM223.301 14.5118H227.146V30.9387H223.301V14.5118ZM225.239 11.8047C224.541 11.8047 223.957 11.5894 223.485 11.1587C223.013 10.7075 222.778 10.1538 222.778 9.49755C222.778 8.84129 223.013 8.29783 223.485 7.86716C223.957 7.41598 224.541 7.19039 225.239 7.19039C225.936 7.19039 226.52 7.40573 226.992 7.83639C227.464 8.24656 227.7 8.76951 227.7 9.40526C227.7 10.082 227.464 10.6563 226.992 11.1279C226.541 11.5791 225.956 11.8047 225.239 11.8047ZM242.067 30.0466C241.616 30.4158 241.062 30.6926 240.406 30.8772C239.77 31.0618 239.094 31.1541 238.376 31.1541C236.571 31.1541 235.177 30.6824 234.192 29.739C233.208 28.7956 232.716 27.4216 232.716 25.6169V17.711H230.009V14.6348H232.716V10.8818H236.561V14.6348H240.96V17.711H236.561V25.5246C236.561 26.3244 236.756 26.9396 237.145 27.3703C237.535 27.7805 238.099 27.9856 238.837 27.9856C239.699 27.9856 240.416 27.76 240.991 27.3088L242.067 30.0466ZM245.231 14.5118H249.076V30.9387H245.231V14.5118ZM247.169 11.8047C246.471 11.8047 245.887 11.5894 245.415 11.1587C244.943 10.7075 244.708 10.1538 244.708 9.49755C244.708 8.84129 244.943 8.29783 245.415 7.86716C245.887 7.41598 246.471 7.19039 247.169 7.19039C247.866 7.19039 248.45 7.40573 248.922 7.83639C249.394 8.24656 249.63 8.76951 249.63 9.40526C249.63 10.082 249.394 10.6563 248.922 11.1279C248.471 11.5791 247.886 11.8047 247.169 11.8047ZM263.444 14.3272C265.515 14.3272 267.176 14.9322 268.427 16.1422C269.678 17.3521 270.304 19.1466 270.304 21.5255V30.9387H266.458V22.0177C266.458 20.5822 266.12 19.5055 265.443 18.7877C264.766 18.0494 263.803 17.6803 262.552 17.6803C261.136 17.6803 260.019 18.1109 259.198 18.9723C258.378 19.8131 257.968 21.0333 257.968 22.633V30.9387H254.123V14.5118H257.783V16.6344C258.419 15.8756 259.219 15.3013 260.183 14.9117C261.147 14.522 262.234 14.3272 263.444 14.3272ZM291.636 14.5118V28.447C291.636 34.2303 288.682 37.1219 282.776 37.1219C281.197 37.1219 279.7 36.9168 278.285 36.5067C276.87 36.117 275.701 35.5428 274.778 34.784L276.501 31.8923C277.218 32.4871 278.121 32.9588 279.208 33.3074C280.315 33.6765 281.433 33.8611 282.561 33.8611C284.366 33.8611 285.688 33.451 286.529 32.6306C287.37 31.8103 287.79 30.5593 287.79 28.8777V28.0163C287.134 28.7341 286.334 29.2776 285.391 29.6467C284.448 30.0159 283.412 30.2004 282.284 30.2004C280.725 30.2004 279.31 29.8723 278.039 29.216C276.788 28.5393 275.793 27.5959 275.055 26.3859C274.337 25.176 273.978 23.7917 273.978 22.2331C273.978 20.6744 274.337 19.3004 275.055 18.1109C275.793 16.901 276.788 15.9678 278.039 15.3116C279.31 14.6553 280.725 14.3272 282.284 14.3272C283.473 14.3272 284.55 14.522 285.514 14.9117C286.498 15.3013 287.319 15.8961 287.975 16.6959V14.5118H291.636ZM282.868 26.9396C284.325 26.9396 285.514 26.509 286.437 25.6476C287.38 24.7658 287.852 23.6276 287.852 22.2331C287.852 20.859 287.38 19.7413 286.437 18.88C285.514 18.0186 284.325 17.588 282.868 17.588C281.392 17.588 280.182 18.0186 279.239 18.88C278.316 19.7413 277.854 20.859 277.854 22.2331C277.854 23.6276 278.316 24.7658 279.239 25.6476C280.182 26.509 281.392 26.9396 282.868 26.9396Z" fill="white"/>
<path d="M12.3971 67.0466C11.9459 67.4158 11.3922 67.6926 10.736 67.8772C10.1002 68.0618 9.42345 68.1541 8.70567 68.1541C6.90096 68.1541 5.50641 67.6824 4.52203 66.739C3.53764 65.7956 3.04545 64.4216 3.04545 62.6169V54.711H0.338383V51.6348H3.04545V47.8818H6.89071V51.6348H11.2897V54.711H6.89071V62.5246C6.89071 63.3244 7.08553 63.9396 7.47519 64.3703C7.86484 64.7805 8.42881 64.9856 9.1671 64.9856C10.0284 64.9856 10.7462 64.76 11.3204 64.3088L12.3971 67.0466ZM30.4622 59.8175C30.4622 60.0841 30.4416 60.4635 30.4006 60.9557H17.5113C17.7369 62.1657 18.3214 63.1296 19.2648 63.8474C20.2286 64.5446 21.4181 64.8933 22.8332 64.8933C24.6379 64.8933 26.1247 64.2985 27.2937 63.1091L29.3547 65.4778C28.6164 66.3596 27.6833 67.0261 26.5554 67.4773C25.4274 67.9285 24.1559 68.1541 22.7409 68.1541C20.9362 68.1541 19.3468 67.7952 17.9727 67.0774C16.5987 66.3596 15.5323 65.365 14.7735 64.0935C14.0352 62.8015 13.6661 61.3454 13.6661 59.7252C13.6661 58.1256 14.0249 56.6901 14.7427 55.4186C15.481 54.1265 16.4962 53.1217 17.7882 52.4039C19.0802 51.6861 20.5363 51.3272 22.1564 51.3272C23.756 51.3272 25.1813 51.6861 26.4323 52.4039C27.7038 53.1011 28.6882 54.0958 29.3855 55.3878C30.1033 56.6593 30.4622 58.1359 30.4622 59.8175ZM22.1564 54.4034C20.9259 54.4034 19.88 54.7725 19.0187 55.5108C18.1778 56.2286 17.6651 57.1925 17.4806 58.4025H26.8015C26.6374 57.213 26.135 56.2491 25.2941 55.5108C24.4533 54.7725 23.4074 54.4034 22.1564 54.4034ZM41.6925 68.1541C39.9903 68.1541 38.4625 67.7952 37.1089 67.0774C35.7554 66.3596 34.6992 65.365 33.9404 64.0935C33.1816 62.8015 32.8022 61.3454 32.8022 59.7252C32.8022 58.1051 33.1816 56.6593 33.9404 55.3878C34.6992 54.1163 35.7451 53.1217 37.0782 52.4039C38.4317 51.6861 39.9698 51.3272 41.6925 51.3272C43.3126 51.3272 44.7277 51.6553 45.9376 52.3116C47.1681 52.9678 48.091 53.9112 48.7062 55.1417L45.7531 56.8644C45.2814 56.1056 44.6867 55.5416 43.9689 55.1725C43.2716 54.7828 42.5025 54.588 41.6617 54.588C40.2261 54.588 39.0367 55.0597 38.0933 56.003C37.1499 56.9259 36.6783 58.1666 36.6783 59.7252C36.6783 61.2839 37.1397 62.5348 38.0625 63.4782C39.0059 64.4011 40.2056 64.8625 41.6617 64.8625C42.5025 64.8625 43.2716 64.6779 43.9689 64.3088C44.6867 63.9191 45.2814 63.3449 45.7531 62.5861L48.7062 64.3088C48.0705 65.5393 47.1374 66.4929 45.9069 67.1697C44.6969 67.8259 43.2921 68.1541 41.6925 68.1541Z" fill="white"/>
<path d="M75.3277 53.1288V66.2844C75.3277 66.7376 75.1653 67.1266 74.8405 67.4515C74.5232 67.7763 74.138 67.9387 73.6847 67.9387C73.2315 67.9387 72.8424 67.7763 72.5176 67.4515C72.2003 67.1266 72.0417 66.7376 72.0417 66.2844V61.3553H55.6V66.2844C55.6 66.7376 55.4376 67.1266 55.1128 67.4515C54.7955 67.7763 54.4102 67.9387 53.957 67.9387C53.5037 67.9387 53.1147 67.7763 52.7898 67.4515C52.4726 67.1266 52.3139 66.7376 52.3139 66.2844V53.1288C52.3139 52.6755 52.4726 52.2902 52.7898 51.973C53.1147 51.6481 53.5037 51.4857 53.957 51.4857C54.4102 51.4857 54.7955 51.6481 55.1128 51.973C55.4376 52.2902 55.6 52.6755 55.6 53.1288V58.0692H72.0417V53.1288C72.0417 52.6755 72.2003 52.2902 72.5176 51.973C72.8424 51.6481 73.2315 51.4857 73.6847 51.4857C74.138 51.4857 74.5232 51.6444 74.8405 51.9616C75.1578 52.2789 75.3202 52.668 75.3277 53.1288Z" fill="#EF6600"/>
<path d="M90.1847 51.3272C92.256 51.3272 93.9172 51.9322 95.1682 53.1422C96.4192 54.3521 97.0447 56.1466 97.0447 58.5255V67.9387H93.1994V59.0177C93.1994 57.5822 92.861 56.5055 92.1842 55.7877C91.5075 55.0494 90.5436 54.6803 89.2926 54.6803C87.8776 54.6803 86.7599 55.1109 85.9395 55.9723C85.1192 56.8131 84.7091 58.0333 84.7091 59.633V67.9387H80.8638V51.5118H84.5245V53.6344C85.1602 52.8756 85.9601 52.3013 86.9239 51.9117C87.8878 51.522 88.9747 51.3272 90.1847 51.3272ZM109.456 68.1541C107.795 68.1541 106.297 67.7952 104.964 67.0774C103.631 66.3596 102.586 65.365 101.827 64.0935C101.088 62.8015 100.719 61.3454 100.719 59.7252C100.719 58.1051 101.088 56.6593 101.827 55.3878C102.586 54.1163 103.631 53.1217 104.964 52.4039C106.297 51.6861 107.795 51.3272 109.456 51.3272C111.137 51.3272 112.645 51.6861 113.978 52.4039C115.311 53.1217 116.346 54.1163 117.085 55.3878C117.844 56.6593 118.223 58.1051 118.223 59.7252C118.223 61.3454 117.844 62.8015 117.085 64.0935C116.346 65.365 115.311 66.3596 113.978 67.0774C112.645 67.7952 111.137 68.1541 109.456 68.1541ZM109.456 64.8625C110.871 64.8625 112.04 64.3908 112.963 63.4475C113.885 62.5041 114.347 61.2633 114.347 59.7252C114.347 58.1871 113.885 56.9464 112.963 56.003C112.04 55.0597 110.871 54.588 109.456 54.588C108.041 54.588 106.872 55.0597 105.949 56.003C105.046 56.9464 104.595 58.1871 104.595 59.7252C104.595 61.2633 105.046 62.5041 105.949 63.4475C106.872 64.3908 108.041 64.8625 109.456 64.8625ZM121.9 45.1133H125.745V67.9387H121.9V45.1133ZM138.175 68.1541C136.514 68.1541 135.017 67.7952 133.684 67.0774C132.351 66.3596 131.305 65.365 130.546 64.0935C129.808 62.8015 129.439 61.3454 129.439 59.7252C129.439 58.1051 129.808 56.6593 130.546 55.3878C131.305 54.1163 132.351 53.1217 133.684 52.4039C135.017 51.6861 136.514 51.3272 138.175 51.3272C139.857 51.3272 141.364 51.6861 142.697 52.4039C144.03 53.1217 145.066 54.1163 145.804 55.3878C146.563 56.6593 146.942 58.1051 146.942 59.7252C146.942 61.3454 146.563 62.8015 145.804 64.0935C145.066 65.365 144.03 66.3596 142.697 67.0774C141.364 67.7952 139.857 68.1541 138.175 68.1541ZM138.175 64.8625C139.59 64.8625 140.759 64.3908 141.682 63.4475C142.605 62.5041 143.066 61.2633 143.066 59.7252C143.066 58.1871 142.605 56.9464 141.682 56.003C140.759 55.0597 139.59 54.588 138.175 54.588C136.76 54.588 135.591 55.0597 134.668 56.003C133.766 56.9464 133.315 58.1871 133.315 59.7252C133.315 61.2633 133.766 62.5041 134.668 63.4475C135.591 64.3908 136.76 64.8625 138.175 64.8625ZM166.923 51.5118V65.447C166.923 71.2303 163.97 74.1219 158.064 74.1219C156.485 74.1219 154.987 73.9168 153.572 73.5067C152.157 73.117 150.988 72.5428 150.066 71.784L151.788 68.8923C152.506 69.4871 153.408 69.9588 154.495 70.3074C155.603 70.6765 156.72 70.8611 157.848 70.8611C159.653 70.8611 160.976 70.451 161.817 69.6306C162.657 68.8103 163.078 67.5593 163.078 65.8777V65.0163C162.422 65.7341 161.622 66.2776 160.678 66.6467C159.735 67.0159 158.699 67.2004 157.571 67.2004C156.013 67.2004 154.598 66.8723 153.326 66.216C152.075 65.5393 151.081 64.5959 150.342 63.3859C149.625 62.176 149.266 60.7917 149.266 59.2331C149.266 57.6744 149.625 56.3004 150.342 55.1109C151.081 53.901 152.075 52.9678 153.326 52.3116C154.598 51.6553 156.013 51.3272 157.571 51.3272C158.761 51.3272 159.838 51.522 160.801 51.9117C161.786 52.3013 162.606 52.8961 163.262 53.6959V51.5118H166.923ZM158.156 63.9396C159.612 63.9396 160.801 63.509 161.724 62.6476C162.668 61.7658 163.139 60.6276 163.139 59.2331C163.139 57.859 162.668 56.7413 161.724 55.88C160.801 55.0186 159.612 54.588 158.156 54.588C156.679 54.588 155.469 55.0186 154.526 55.88C153.603 56.7413 153.142 57.859 153.142 59.2331C153.142 60.6276 153.603 61.7658 154.526 62.6476C155.469 63.509 156.679 63.9396 158.156 63.9396ZM171.978 51.5118H175.824V67.9387H171.978V51.5118ZM173.916 48.8047C173.219 48.8047 172.635 48.5894 172.163 48.1587C171.691 47.7075 171.455 47.1538 171.455 46.4975C171.455 45.8413 171.691 45.2978 172.163 44.8672C172.635 44.416 173.219 44.1904 173.916 44.1904C174.614 44.1904 175.198 44.4057 175.67 44.8364C176.142 45.2466 176.377 45.7695 176.377 46.4053C176.377 47.082 176.142 47.6563 175.67 48.1279C175.219 48.5791 174.634 48.8047 173.916 48.8047ZM196.313 59.8175C196.313 60.0841 196.293 60.4635 196.252 60.9557H183.362C183.588 62.1657 184.172 63.1296 185.116 63.8474C186.08 64.5446 187.269 64.8933 188.684 64.8933C190.489 64.8933 191.976 64.2985 193.145 63.1091L195.206 65.4778C194.467 66.3596 193.534 67.0261 192.406 67.4773C191.278 67.9285 190.007 68.1541 188.592 68.1541C186.787 68.1541 185.198 67.7952 183.824 67.0774C182.45 66.3596 181.383 65.365 180.625 64.0935C179.886 62.8015 179.517 61.3454 179.517 59.7252C179.517 58.1256 179.876 56.6901 180.594 55.4186C181.332 54.1265 182.347 53.1217 183.639 52.4039C184.931 51.6861 186.387 51.3272 188.007 51.3272C189.607 51.3272 191.032 51.6861 192.283 52.4039C193.555 53.1011 194.539 54.0958 195.237 55.3878C195.954 56.6593 196.313 58.1359 196.313 59.8175ZM188.007 54.4034C186.777 54.4034 185.731 54.7725 184.87 55.5108C184.029 56.2286 183.516 57.1925 183.332 58.4025H192.652C192.488 57.213 191.986 56.2491 191.145 55.5108C190.304 54.7725 189.258 54.4034 188.007 54.4034ZM205.083 68.1541C203.75 68.1541 202.447 67.9797 201.176 67.6311C199.904 67.2825 198.889 66.8415 198.13 66.3083L199.607 63.3859C200.345 63.8781 201.227 64.278 202.252 64.5857C203.298 64.8728 204.324 65.0163 205.329 65.0163C207.626 65.0163 208.774 64.4113 208.774 63.2014C208.774 62.6271 208.477 62.2272 207.882 62.0016C207.308 61.776 206.375 61.5607 205.083 61.3556C203.729 61.1506 202.622 60.9147 201.76 60.6481C200.919 60.3815 200.181 59.9201 199.545 59.2638C198.93 58.587 198.622 57.6539 198.622 56.4645C198.622 54.9059 199.268 53.6651 200.561 52.7423C201.873 51.7989 203.637 51.3272 205.852 51.3272C206.98 51.3272 208.107 51.4605 209.235 51.7271C210.363 51.9732 211.286 52.3116 212.004 52.7423L210.527 55.6646C209.133 54.8443 207.564 54.4342 205.821 54.4342C204.693 54.4342 203.832 54.6085 203.237 54.9571C202.663 55.2852 202.375 55.7262 202.375 56.2799C202.375 56.8951 202.683 57.3361 203.298 57.6027C203.934 57.8488 204.908 58.0846 206.221 58.3102C207.533 58.5153 208.61 58.7511 209.451 59.0177C210.292 59.2843 211.009 59.7355 211.604 60.3712C212.219 61.007 212.527 61.9094 212.527 63.0783C212.527 64.6164 211.86 65.8469 210.527 66.7698C209.194 67.6926 207.379 68.1541 205.083 68.1541Z" fill="white"/>
<path d="M230.188 51.3272C232.608 51.3272 234.453 51.9117 235.725 53.0806C237.017 54.2291 237.663 55.9723 237.663 58.3102V67.9387H234.033V65.9392C233.561 66.657 232.884 67.2107 232.003 67.6003C231.141 67.9695 230.095 68.1541 228.865 68.1541C227.634 68.1541 226.558 67.949 225.635 67.5388C224.712 67.1081 223.994 66.5237 223.481 65.7854C222.989 65.0266 222.743 64.1755 222.743 63.2321C222.743 61.7555 223.287 60.5763 224.374 59.6945C225.481 58.7921 227.214 58.341 229.572 58.341H233.818V58.0949C233.818 56.9464 233.469 56.0646 232.772 55.4493C232.095 54.8341 231.08 54.5265 229.726 54.5265C228.803 54.5265 227.891 54.67 226.988 54.9571C226.107 55.2442 225.358 55.6441 224.743 56.1568L223.235 53.3575C224.097 52.7012 225.132 52.1988 226.342 51.8502C227.552 51.5015 228.834 51.3272 230.188 51.3272ZM229.665 65.3547C230.629 65.3547 231.48 65.1394 232.218 64.7087C232.977 64.2575 233.51 63.6218 233.818 62.8015V60.8942H229.849C227.634 60.8942 226.527 61.6222 226.527 63.0783C226.527 63.7756 226.804 64.3293 227.357 64.7395C227.911 65.1496 228.68 65.3547 229.665 65.3547ZM251.919 51.3272C253.99 51.3272 255.651 51.9322 256.902 53.1422C258.153 54.3521 258.779 56.1466 258.779 58.5255V67.9387H254.933V59.0177C254.933 57.5822 254.595 56.5055 253.918 55.7877C253.241 55.0494 252.278 54.6803 251.027 54.6803C249.611 54.6803 248.494 55.1109 247.673 55.9723C246.853 56.8131 246.443 58.0333 246.443 59.633V67.9387H242.598V51.5118H246.258V53.6344C246.894 52.8756 247.694 52.3013 248.658 51.9117C249.622 51.522 250.709 51.3272 251.919 51.3272ZM279.895 45.1133V67.9387H276.204V65.8161C275.568 66.5954 274.779 67.1799 273.835 67.5696C272.912 67.9592 271.887 68.1541 270.759 68.1541C269.18 68.1541 267.755 67.8054 266.483 67.1081C265.232 66.4109 264.248 65.4265 263.53 64.155C262.812 62.863 262.453 61.3864 262.453 59.7252C262.453 58.0641 262.812 56.5978 263.53 55.3263C264.248 54.0548 265.232 53.0704 266.483 52.3731C267.755 51.6758 269.18 51.3272 270.759 51.3272C271.846 51.3272 272.841 51.5118 273.743 51.8809C274.645 52.2501 275.414 52.8038 276.05 53.5421V45.1133H279.895ZM271.22 64.8625C272.143 64.8625 272.974 64.6574 273.712 64.2473C274.45 63.8166 275.035 63.2116 275.466 62.4323C275.896 61.653 276.112 60.7506 276.112 59.7252C276.112 58.6998 275.896 57.7975 275.466 57.0182C275.035 56.2389 274.45 55.6441 273.712 55.234C272.974 54.8033 272.143 54.588 271.22 54.588C270.298 54.588 269.467 54.8033 268.729 55.234C267.99 55.6441 267.406 56.2389 266.975 57.0182C266.545 57.7975 266.329 58.6998 266.329 59.7252C266.329 60.7506 266.545 61.653 266.975 62.4323C267.406 63.2116 267.99 63.8166 268.729 64.2473C269.467 64.6574 270.298 64.8625 271.22 64.8625Z" fill="white"/>
<path d="M7.59823 105.154C6.26521 105.154 4.96295 104.98 3.69145 104.631C2.41995 104.282 1.4048 103.842 0.646004 103.308L2.12258 100.386C2.86087 100.878 3.74272 101.278 4.76812 101.586C5.81403 101.873 6.83944 102.016 7.84433 102.016C10.1412 102.016 11.2897 101.411 11.2897 100.201C11.2897 99.6271 10.9923 99.2272 10.3976 99.0016C9.82336 98.776 8.89024 98.5607 7.59823 98.3556C6.2447 98.1506 5.13727 97.9147 4.27593 97.6481C3.4351 97.3815 2.69681 96.9201 2.06106 96.2638C1.44582 95.587 1.1382 94.6539 1.1382 93.4645C1.1382 91.9059 1.7842 90.6651 3.07621 89.7423C4.38872 88.7989 6.15242 88.3272 8.36729 88.3272C9.49523 88.3272 10.6232 88.4605 11.7511 88.7271C12.8791 88.9732 13.8019 89.3116 14.5197 89.7423L13.0431 92.6646C11.6486 91.8443 10.0797 91.4342 8.33653 91.4342C7.20858 91.4342 6.34724 91.6085 5.75251 91.9571C5.17828 92.2852 4.89117 92.7262 4.89117 93.2799C4.89117 93.8951 5.19879 94.3361 5.81403 94.6027C6.44978 94.8488 7.42392 95.0846 8.73643 95.3102C10.0489 95.5153 11.1256 95.7511 11.9665 96.0177C12.8073 96.2843 13.5251 96.7355 14.1198 97.3712C14.735 98.007 15.0427 98.9094 15.0427 100.078C15.0427 101.616 14.3761 102.847 13.0431 103.77C11.7101 104.693 9.89514 105.154 7.59823 105.154ZM33.7967 96.8175C33.7967 97.0841 33.7762 97.4635 33.7352 97.9557H20.8459C21.0715 99.1657 21.6559 100.13 22.5993 100.847C23.5632 101.545 24.7527 101.893 26.1677 101.893C27.9724 101.893 29.4593 101.299 30.6282 100.109L32.6893 102.478C31.951 103.36 31.0179 104.026 29.8899 104.477C28.762 104.928 27.4905 105.154 26.0754 105.154C24.2707 105.154 22.6813 104.795 21.3073 104.077C19.9333 103.36 18.8669 102.365 18.1081 101.093C17.3698 99.8015 17.0006 98.3454 17.0006 96.7252C17.0006 95.1256 17.3595 93.6901 18.0773 92.4186C18.8156 91.1265 19.8307 90.1217 21.1227 89.4039C22.4147 88.6861 23.8708 88.3272 25.491 88.3272C27.0906 88.3272 28.5159 88.6861 29.7669 89.4039C31.0384 90.1011 32.0228 91.0958 32.72 92.3878C33.4378 93.6593 33.7967 95.1359 33.7967 96.8175ZM25.491 91.4034C24.2605 91.4034 23.2146 91.7725 22.3532 92.5108C21.5124 93.2286 20.9997 94.1925 20.8151 95.4025H30.136C29.972 94.213 29.4695 93.2491 28.6287 92.5108C27.7879 91.7725 26.7419 91.4034 25.491 91.4034ZM41.151 90.9112C42.2585 89.1885 44.2067 88.3272 46.9958 88.3272V91.9879C46.6677 91.9264 46.3703 91.8956 46.1037 91.8956C44.6066 91.8956 43.4377 92.3365 42.5968 93.2184C41.756 94.0797 41.3356 95.3307 41.3356 96.9713V104.939H37.4903V88.5118H41.151V90.9112ZM66.2397 88.5118L59.1951 104.939H55.2268L48.1823 88.5118H52.1814L57.2879 100.694L62.5482 88.5118H66.2397ZM68.6429 88.5118H72.4882V104.939H68.6429V88.5118ZM70.581 85.8047C69.8837 85.8047 69.2992 85.5894 68.8275 85.1587C68.3558 84.7075 68.12 84.1538 68.12 83.4975C68.12 82.8413 68.3558 82.2978 68.8275 81.8672C69.2992 81.416 69.8837 81.1904 70.581 81.1904C71.2782 81.1904 71.8627 81.4057 72.3344 81.8364C72.8061 82.2466 73.0419 82.7695 73.0419 83.4053C73.0419 84.082 72.8061 84.6563 72.3344 85.1279C71.8832 85.5791 71.2987 85.8047 70.581 85.8047ZM85.0718 105.154C83.3697 105.154 81.8418 104.795 80.4883 104.077C79.1347 103.36 78.0786 102.365 77.3198 101.093C76.561 99.8015 76.1816 98.3454 76.1816 96.7252C76.1816 95.1051 76.561 93.6593 77.3198 92.3878C78.0786 91.1163 79.1245 90.1217 80.4575 89.4039C81.811 88.6861 83.3491 88.3272 85.0718 88.3272C86.692 88.3272 88.107 88.6553 89.317 89.3116C90.5475 89.9678 91.4703 90.9112 92.0856 92.1417L89.1324 93.8644C88.6607 93.1056 88.066 92.5416 87.3482 92.1725C86.6509 91.7828 85.8819 91.588 85.0411 91.588C83.6055 91.588 82.416 92.0597 81.4727 93.003C80.5293 93.9259 80.0576 95.1666 80.0576 96.7252C80.0576 98.2839 80.519 99.5348 81.4419 100.478C82.3853 101.401 83.585 101.863 85.0411 101.863C85.8819 101.863 86.6509 101.678 87.3482 101.309C88.066 100.919 88.6607 100.345 89.1324 99.5861L92.0856 101.309C91.4498 102.539 90.5167 103.493 89.2862 104.17C88.0763 104.826 86.6714 105.154 85.0718 105.154ZM110.612 96.8175C110.612 97.0841 110.591 97.4635 110.55 97.9557H97.661C97.8866 99.1657 98.471 100.13 99.4144 100.847C100.378 101.545 101.568 101.893 102.983 101.893C104.788 101.893 106.274 101.299 107.443 100.109L109.504 102.478C108.766 103.36 107.833 104.026 106.705 104.477C105.577 104.928 104.306 105.154 102.891 105.154C101.086 105.154 99.4964 104.795 98.1224 104.077C96.7484 103.36 95.6819 102.365 94.9231 101.093C94.1848 99.8015 93.8157 98.3454 93.8157 96.7252C93.8157 95.1256 94.1746 93.6901 94.8924 92.4186C95.6307 91.1265 96.6458 90.1217 97.9378 89.4039C99.2298 88.6861 100.686 88.3272 102.306 88.3272C103.906 88.3272 105.331 88.6861 106.582 89.4039C107.853 90.1011 108.838 91.0958 109.535 92.3878C110.253 93.6593 110.612 95.1359 110.612 96.8175ZM102.306 91.4034C101.076 91.4034 100.03 91.7725 99.1683 92.5108C98.3275 93.2286 97.8148 94.1925 97.6302 95.4025H106.951C106.787 94.213 106.285 93.2491 105.444 92.5108C104.603 91.7725 103.557 91.4034 102.306 91.4034ZM119.381 105.154C118.048 105.154 116.746 104.98 115.474 104.631C114.203 104.282 113.188 103.842 112.429 103.308L113.906 100.386C114.644 100.878 115.526 101.278 116.551 101.586C117.597 101.873 118.622 102.016 119.627 102.016C121.924 102.016 123.073 101.411 123.073 100.201C123.073 99.6271 122.775 99.2272 122.181 99.0016C121.606 98.776 120.673 98.5607 119.381 98.3556C118.028 98.1506 116.92 97.9147 116.059 97.6481C115.218 97.3815 114.48 96.9201 113.844 96.2638C113.229 95.587 112.921 94.6539 112.921 93.4645C112.921 91.9059 113.567 90.6651 114.859 89.7423C116.172 88.7989 117.935 88.3272 120.15 88.3272C121.278 88.3272 122.406 88.4605 123.534 88.7271C124.662 88.9732 125.585 89.3116 126.303 89.7423L124.826 92.6646C123.431 91.8443 121.863 91.4342 120.119 91.4342C118.992 91.4342 118.13 91.6085 117.535 91.9571C116.961 92.2852 116.674 92.7262 116.674 93.2799C116.674 93.8951 116.982 94.3361 117.597 94.6027C118.233 94.8488 119.207 95.0846 120.519 95.3102C121.832 95.5153 122.909 95.7511 123.749 96.0177C124.59 96.2843 125.308 96.7355 125.903 97.3712C126.518 98.007 126.826 98.9094 126.826 100.078C126.826 101.616 126.159 102.847 124.826 103.77C123.493 104.693 121.678 105.154 119.381 105.154ZM145.314 85.0049C143.694 85.0049 142.884 85.8867 142.884 87.6504V88.6348H147.406V91.711H143.007V104.939H139.162V91.711H136.455V88.6348H139.162V87.5889C139.162 85.8252 139.674 84.4409 140.7 83.436C141.725 82.4106 143.171 81.8979 145.037 81.8979C146.514 81.8979 147.673 82.1953 148.513 82.79L147.437 85.6817C146.78 85.2305 146.073 85.0049 145.314 85.0049ZM157.137 105.154C155.476 105.154 153.979 104.795 152.646 104.077C151.313 103.36 150.267 102.365 149.508 101.093C148.77 99.8015 148.4 98.3454 148.4 96.7252C148.4 95.1051 148.77 93.6593 149.508 92.3878C150.267 91.1163 151.313 90.1217 152.646 89.4039C153.979 88.6861 155.476 88.3272 157.137 88.3272C158.818 88.3272 160.326 88.6861 161.659 89.4039C162.992 90.1217 164.028 91.1163 164.766 92.3878C165.525 93.6593 165.904 95.1051 165.904 96.7252C165.904 98.3454 165.525 99.8015 164.766 101.093C164.028 102.365 162.992 103.36 161.659 104.077C160.326 104.795 158.818 105.154 157.137 105.154ZM157.137 101.863C158.552 101.863 159.721 101.391 160.644 100.447C161.567 99.5041 162.028 98.2633 162.028 96.7252C162.028 95.1871 161.567 93.9464 160.644 93.003C159.721 92.0597 158.552 91.588 157.137 91.588C155.722 91.588 154.553 92.0597 153.63 93.003C152.728 93.9464 152.276 95.1871 152.276 96.7252C152.276 98.2633 152.728 99.5041 153.63 100.447C154.553 101.391 155.722 101.863 157.137 101.863ZM173.242 90.9112C174.349 89.1885 176.297 88.3272 179.087 88.3272V91.9879C178.758 91.9264 178.461 91.8956 178.194 91.8956C176.697 91.8956 175.528 92.3365 174.688 93.2184C173.847 94.0797 173.426 95.3307 173.426 96.9713V104.939H169.581V88.5118H173.242V90.9112Z" fill="white"/>
<path d="M206.659 82.1133V104.939H202.968V102.816C202.332 103.595 201.543 104.18 200.599 104.57C199.676 104.959 198.651 105.154 197.523 105.154C195.944 105.154 194.519 104.805 193.247 104.108C191.996 103.411 191.012 102.426 190.294 101.155C189.576 99.863 189.217 98.3864 189.217 96.7252C189.217 95.0641 189.576 93.5978 190.294 92.3263C191.012 91.0548 191.996 90.0704 193.247 89.3731C194.519 88.6758 195.944 88.3272 197.523 88.3272C198.61 88.3272 199.605 88.5118 200.507 88.8809C201.409 89.2501 202.178 89.8038 202.814 90.5421V82.1133H206.659ZM197.984 101.863C198.907 101.863 199.738 101.657 200.476 101.247C201.215 100.817 201.799 100.212 202.23 99.4323C202.66 98.653 202.876 97.7506 202.876 96.7252C202.876 95.6998 202.66 94.7975 202.23 94.0182C201.799 93.2389 201.215 92.6441 200.476 92.234C199.738 91.8033 198.907 91.588 197.984 91.588C197.062 91.588 196.231 91.8033 195.493 92.234C194.754 92.6441 194.17 93.2389 193.739 94.0182C193.309 94.7975 193.093 95.6998 193.093 96.7252C193.093 97.7506 193.309 98.653 193.739 99.4323C194.17 100.212 194.754 100.817 195.493 101.247C196.231 101.657 197.062 101.863 197.984 101.863ZM211.69 88.5118H215.535V104.939H211.69V88.5118ZM213.628 85.8047C212.93 85.8047 212.346 85.5894 211.874 85.1587C211.403 84.7075 211.167 84.1538 211.167 83.4975C211.167 82.8413 211.403 82.2978 211.874 81.8672C212.346 81.416 212.93 81.1904 213.628 81.1904C214.325 81.1904 214.909 81.4057 215.381 81.8364C215.853 82.2466 216.089 82.7695 216.089 83.4053C216.089 84.082 215.853 84.6563 215.381 85.1279C214.93 85.5791 214.346 85.8047 213.628 85.8047Z" fill="white"/>
<path d="M244.387 96.7122V103.296C244.387 103.749 244.225 104.138 243.9 104.463C243.583 104.78 243.198 104.939 242.744 104.939H226.291C225.838 104.939 225.453 104.776 225.136 104.451L221.85 101.165C221.525 100.848 221.362 100.463 221.362 100.01V93.4262C221.362 92.9729 221.525 92.5839 221.85 92.259L225.136 88.973C225.453 88.6557 225.838 88.4971 226.291 88.4971H242.744C243.198 88.4971 243.583 88.6595 243.9 88.9843C244.225 89.3016 244.387 89.6868 244.387 90.1401C244.387 90.5933 244.225 90.9824 243.9 91.3072C243.583 91.6245 243.198 91.7831 242.744 91.7831H226.983L224.648 94.106V99.3184L226.983 101.653H241.101V98.3553H232.875C232.422 98.3553 232.033 98.1966 231.708 97.8793C231.39 97.5545 231.232 97.1655 231.232 96.7122C231.232 96.259 231.39 95.8737 231.708 95.5564C232.033 95.2316 232.422 95.0692 232.875 95.0692H242.744C243.198 95.0692 243.583 95.2316 243.9 95.5564C244.225 95.8737 244.387 96.259 244.387 96.7122Z" fill="#EF6600"/>
<path d="M249.912 88.5118H253.757V104.939H249.912V88.5118ZM251.85 85.8047C251.153 85.8047 250.568 85.5894 250.097 85.1587C249.625 84.7075 249.389 84.1538 249.389 83.4975C249.389 82.8413 249.625 82.2978 250.097 81.8672C250.568 81.416 251.153 81.1904 251.85 81.1904C252.547 81.1904 253.132 81.4057 253.604 81.8364C254.075 82.2466 254.311 82.7695 254.311 83.4053C254.311 84.082 254.075 84.6563 253.604 85.1279C253.152 85.5791 252.568 85.8047 251.85 85.8047ZM268.679 104.047C268.228 104.416 267.674 104.693 267.018 104.877C266.382 105.062 265.705 105.154 264.987 105.154C263.183 105.154 261.788 104.682 260.804 103.739C259.819 102.796 259.327 101.422 259.327 99.6169V91.711H256.62V88.6348H259.327V84.8818H263.173V88.6348H267.571V91.711H263.173V99.5246C263.173 100.324 263.367 100.94 263.757 101.37C264.147 101.78 264.711 101.986 265.449 101.986C266.31 101.986 267.028 101.76 267.602 101.309L268.679 104.047ZM278.118 88.3272C280.538 88.3272 282.383 88.9117 283.655 90.0806C284.947 91.2291 285.593 92.9723 285.593 95.3102V104.939H281.963V102.939C281.491 103.657 280.814 104.211 279.933 104.6C279.071 104.969 278.025 105.154 276.795 105.154C275.564 105.154 274.488 104.949 273.565 104.539C272.642 104.108 271.924 103.524 271.411 102.785C270.919 102.027 270.673 101.175 270.673 100.232C270.673 98.7555 271.217 97.5763 272.304 96.6945C273.411 95.7921 275.144 95.341 277.502 95.341H281.748V95.0949C281.748 93.9464 281.399 93.0646 280.702 92.4493C280.025 91.8341 279.01 91.5265 277.656 91.5265C276.733 91.5265 275.821 91.67 274.918 91.9571C274.037 92.2442 273.288 92.6441 272.673 93.1568L271.165 90.3575C272.027 89.7012 273.062 89.1988 274.272 88.8502C275.482 88.5015 276.764 88.3272 278.118 88.3272ZM277.595 102.355C278.559 102.355 279.41 102.139 280.148 101.709C280.907 101.258 281.44 100.622 281.748 99.8015V97.8942H277.779C275.564 97.8942 274.457 98.6222 274.457 100.078C274.457 100.776 274.734 101.329 275.287 101.739C275.841 102.15 276.61 102.355 277.595 102.355ZM290.528 82.1133H294.373V104.939H290.528V82.1133Z" fill="white"/>
<path d="M23.2561 125.327C25.3274 125.327 26.9681 125.932 28.1781 127.142C29.388 128.332 29.993 130.126 29.993 132.526V141.939H26.1478V133.018C26.1478 131.582 25.8299 130.505 25.1941 129.788C24.5584 129.049 23.6458 128.68 22.4563 128.68C21.1643 128.68 20.1287 129.111 19.3494 129.972C18.57 130.813 18.1804 132.023 18.1804 133.602V141.939H14.3351V133.018C14.3351 131.582 14.0173 130.505 13.3815 129.788C12.7458 129.049 11.8331 128.68 10.6437 128.68C9.33117 128.68 8.28525 129.101 7.50595 129.942C6.74715 130.782 6.36775 132.003 6.36775 133.602V141.939H2.52249V125.512H6.18318V127.604C6.79842 126.865 7.56747 126.301 8.49034 125.912C9.4132 125.522 10.4386 125.327 11.5665 125.327C12.797 125.327 13.884 125.563 14.8273 126.035C15.7912 126.486 16.55 127.163 17.1037 128.065C17.7805 127.204 18.6521 126.537 19.7185 126.065C20.7849 125.573 21.9641 125.327 23.2561 125.327ZM41.1823 125.327C43.6022 125.327 45.4479 125.912 46.7194 127.081C48.0114 128.229 48.6574 129.972 48.6574 132.31V141.939H45.0275V139.939C44.5558 140.657 43.8791 141.211 42.9972 141.6C42.1359 141.969 41.09 142.154 39.8595 142.154C38.629 142.154 37.5523 141.949 36.6295 141.539C35.7066 141.108 34.9888 140.524 34.4761 139.785C33.9839 139.027 33.7378 138.175 33.7378 137.232C33.7378 135.756 34.2813 134.576 35.3682 133.694C36.4757 132.792 38.2086 132.341 40.567 132.341H44.8122V132.095C44.8122 130.946 44.4635 130.065 43.7663 129.449C43.0895 128.834 42.0744 128.526 40.7208 128.526C39.798 128.526 38.8854 128.67 37.983 128.957C37.1012 129.244 36.3526 129.644 35.7374 130.157L34.23 127.357C35.0914 126.701 36.127 126.199 37.337 125.85C38.547 125.502 39.8287 125.327 41.1823 125.327ZM40.6593 139.355C41.6232 139.355 42.4743 139.139 43.2126 138.709C43.9714 138.258 44.5046 137.622 44.8122 136.801V134.894H40.8439C38.629 134.894 37.5216 135.622 37.5216 137.078C37.5216 137.776 37.7984 138.329 38.3521 138.739C38.9059 139.15 39.6749 139.355 40.6593 139.355ZM57.253 127.911C58.3605 126.189 60.3087 125.327 63.0978 125.327V128.988C62.7697 128.926 62.4723 128.896 62.2057 128.896C60.7087 128.896 59.5397 129.337 58.6989 130.218C57.858 131.08 57.4376 132.331 57.4376 133.971V141.939H53.5924V125.512H57.253V127.911ZM73.066 134.894L70.2051 137.601V141.939H66.3598V119.113H70.2051V132.895L78.1725 125.512H82.7868L75.9268 132.402L83.4328 141.939H78.7569L73.066 134.894ZM100.668 133.818C100.668 134.084 100.648 134.464 100.607 134.956H87.7174C87.9429 136.166 88.5274 137.13 89.4708 137.847C90.4347 138.545 91.6241 138.893 93.0392 138.893C94.8439 138.893 96.3307 138.299 97.4997 137.109L99.5608 139.478C98.8225 140.36 97.8894 141.026 96.7614 141.477C95.6335 141.928 94.362 142.154 92.9469 142.154C91.1422 142.154 89.5528 141.795 88.1788 141.077C86.8048 140.36 85.7383 139.365 84.9795 138.093C84.2412 136.801 83.8721 135.345 83.8721 133.725C83.8721 132.126 84.231 130.69 84.9488 129.419C85.6871 128.127 86.7022 127.122 87.9942 126.404C89.2862 125.686 90.7423 125.327 92.3624 125.327C93.9621 125.327 95.3874 125.686 96.6384 126.404C97.9099 127.101 98.8943 128.096 99.5915 129.388C100.309 130.659 100.668 132.136 100.668 133.818ZM92.3624 128.403C91.132 128.403 90.086 128.773 89.2247 129.511C88.3839 130.229 87.8712 131.192 87.6866 132.402H97.0075C96.8434 131.213 96.341 130.249 95.5002 129.511C94.6593 128.773 93.6134 128.403 92.3624 128.403ZM114.236 141.047C113.785 141.416 113.232 141.693 112.575 141.877C111.94 142.062 111.263 142.154 110.545 142.154C108.74 142.154 107.346 141.682 106.361 140.739C105.377 139.796 104.885 138.422 104.885 136.617V128.711H102.178V125.635H104.885V121.882H108.73V125.635H113.129V128.711H108.73V136.525C108.73 137.324 108.925 137.94 109.315 138.37C109.704 138.78 110.268 138.986 111.006 138.986C111.868 138.986 112.586 138.76 113.16 138.309L114.236 141.047ZM117.4 125.512H121.245V141.939H117.4V125.512ZM119.338 122.805C118.64 122.805 118.056 122.589 117.584 122.159C117.113 121.708 116.877 121.154 116.877 120.498C116.877 119.841 117.113 119.298 117.584 118.867C118.056 118.416 118.64 118.19 119.338 118.19C120.035 118.19 120.619 118.406 121.091 118.836C121.563 119.247 121.799 119.77 121.799 120.405C121.799 121.082 121.563 121.656 121.091 122.128C120.64 122.579 120.055 122.805 119.338 122.805ZM135.613 125.327C137.684 125.327 139.345 125.932 140.596 127.142C141.847 128.352 142.473 130.147 142.473 132.526V141.939H138.627V133.018C138.627 131.582 138.289 130.505 137.612 129.788C136.935 129.049 135.972 128.68 134.721 128.68C133.306 128.68 132.188 129.111 131.368 129.972C130.547 130.813 130.137 132.033 130.137 133.633V141.939H126.292V125.512H129.952V127.634C130.588 126.876 131.388 126.301 132.352 125.912C133.316 125.522 134.403 125.327 135.613 125.327ZM163.805 125.512V139.447C163.805 145.23 160.852 148.122 154.945 148.122C153.366 148.122 151.869 147.917 150.454 147.507C149.039 147.117 147.87 146.543 146.947 145.784L148.67 142.892C149.388 143.487 150.29 143.959 151.377 144.307C152.484 144.677 153.602 144.861 154.73 144.861C156.535 144.861 157.857 144.451 158.698 143.631C159.539 142.81 159.959 141.559 159.959 139.878V139.016C159.303 139.734 158.503 140.278 157.56 140.647C156.617 141.016 155.581 141.2 154.453 141.2C152.894 141.2 151.479 140.872 150.208 140.216C148.957 139.539 147.962 138.596 147.224 137.386C146.506 136.176 146.147 134.792 146.147 133.233C146.147 131.674 146.506 130.3 147.224 129.111C147.962 127.901 148.957 126.968 150.208 126.312C151.479 125.655 152.894 125.327 154.453 125.327C155.643 125.327 156.719 125.522 157.683 125.912C158.667 126.301 159.488 126.896 160.144 127.696V125.512H163.805ZM155.038 137.94C156.494 137.94 157.683 137.509 158.606 136.648C159.549 135.766 160.021 134.628 160.021 133.233C160.021 131.859 159.549 130.741 158.606 129.88C157.683 129.019 156.494 128.588 155.038 128.588C153.561 128.588 152.351 129.019 151.408 129.88C150.485 130.741 150.023 131.859 150.023 133.233C150.023 134.628 150.485 135.766 151.408 136.648C152.351 137.509 153.561 137.94 155.038 137.94Z" fill="white"/>
</svg>
