<svg width="519" height="66" viewBox="0 0 519 66" fill="none" xmlns="http://www.w3.org/2000/svg">
<path d="M20.9735 13.9652C24.2698 13.9652 27.1315 14.5086 29.5585 15.5953C32.0217 16.682 33.9053 18.2396 35.2093 20.2681C36.5134 22.2966 37.1654 24.7055 37.1654 27.4947C37.1654 30.2477 36.5134 32.6566 35.2093 34.7213C33.9053 36.7499 32.0217 38.3075 29.5585 39.3942C27.1315 40.4809 24.2698 41.0242 20.9735 41.0242H12.3885V52H5.32487V13.9652H20.9735ZM20.6475 35.0474C23.7265 35.0474 26.0629 34.3953 27.6567 33.0913C29.2506 31.7872 30.0475 29.9217 30.0475 27.4947C30.0475 25.0678 29.2506 23.2022 27.6567 21.8982C26.0629 20.5941 23.7265 19.9421 20.6475 19.9421H12.3885V35.0474H20.6475Z" fill="black"/>
<path d="M80.9465 46.1361C81.7525 46.1361 82.4376 46.4249 83.0019 47.0026C83.5795 47.5668 83.8683 48.2519 83.8683 49.058C83.8683 49.864 83.5795 50.5559 83.0019 51.1335C82.4376 51.7112 81.7525 52 80.9465 52H45.8437C45.0377 52 44.3459 51.7112 43.7682 51.1335C43.204 50.5559 42.9219 49.864 42.9219 49.058V25.6629C42.9219 24.8568 43.204 24.1717 43.7682 23.6075C44.3459 23.0298 45.0377 22.741 45.8437 22.741H80.9465C81.7525 22.741 82.4376 23.0298 83.0019 23.6075C83.5795 24.1717 83.8683 24.8568 83.8683 25.6629C83.8683 26.4689 83.5795 27.1608 83.0019 27.7384C82.4376 28.3026 81.7525 28.5847 80.9465 28.5847H48.7656V34.4486H75.1027C75.9088 34.4486 76.5939 34.7375 77.1581 35.3151C77.7358 35.8793 78.0246 36.5645 78.0246 37.3705C78.0246 38.1765 77.7358 38.8684 77.1581 39.446C76.5939 40.0103 75.9088 40.2924 75.1027 40.2924H48.7656V46.1361H80.9465Z" fill="url(#paint0_linear_29_937)"/>
<path d="M114.548 28.7444H104.387V52H97.5954V28.7444H87.3803V22.9849H114.548V28.7444ZM130.287 22.6589C134.562 22.6589 137.822 23.6913 140.068 25.756C142.35 27.7845 143.491 30.8635 143.491 34.993V52H137.079V48.4682C136.246 49.736 135.051 50.7141 133.493 51.4023C131.972 52.0543 130.124 52.3803 127.951 52.3803C125.778 52.3803 123.876 52.0181 122.246 51.2936C120.616 50.5329 119.348 49.5006 118.442 48.1965C117.573 46.8562 117.138 45.353 117.138 43.6867C117.138 41.0786 118.098 38.9957 120.018 37.4381C121.974 35.8443 125.035 35.0474 129.201 35.0474H136.699V34.6127C136.699 32.5842 136.083 31.0265 134.852 29.9398C133.656 28.8531 131.863 28.3098 129.472 28.3098C127.842 28.3098 126.23 28.5633 124.637 29.0705C123.079 29.5776 121.757 30.284 120.67 31.1895L118.008 26.245C119.529 25.0859 121.358 24.1984 123.496 23.5826C125.633 22.9668 127.897 22.6589 130.287 22.6589ZM129.364 47.4358C131.066 47.4358 132.57 47.0555 133.874 46.2948C135.214 45.4979 136.156 44.3749 136.699 42.926V39.5572H129.69C125.778 39.5572 123.822 40.8431 123.822 43.415C123.822 44.6466 124.311 45.6246 125.289 46.3491C126.267 47.0736 127.625 47.4358 129.364 47.4358ZM167.979 22.6589C170.804 22.6589 173.322 23.2747 175.531 24.5063C177.777 25.7379 179.534 27.4766 180.802 29.7225C182.07 31.9683 182.704 34.5583 182.704 37.4924C182.704 40.4266 182.07 43.0347 180.802 45.3167C179.534 47.5626 177.777 49.3013 175.531 50.5329C173.322 51.7645 170.804 52.3803 167.979 52.3803C164.067 52.3803 160.97 51.0763 158.687 48.4682V62.5411H151.896V22.9849H158.361V26.7884C159.484 25.4119 160.861 24.3795 162.491 23.6913C164.157 23.003 165.987 22.6589 167.979 22.6589ZM167.218 46.5665C169.718 46.5665 171.764 45.7333 173.358 44.067C174.988 42.4007 175.803 40.2092 175.803 37.4924C175.803 34.7757 174.988 32.5842 173.358 30.9179C171.764 29.2516 169.718 28.4184 167.218 28.4184C165.588 28.4184 164.121 28.7988 162.817 29.5595C161.513 30.284 160.481 31.3344 159.72 32.7109C158.959 34.0874 158.579 35.6813 158.579 37.4924C158.579 39.3036 158.959 40.8975 159.72 42.274C160.481 43.6505 161.513 44.7191 162.817 45.4798C164.121 46.2042 165.588 46.5665 167.218 46.5665ZM211.741 28.7444H196.255V52H189.463V22.9849H211.741V28.7444ZM242.578 37.6555C242.578 38.1264 242.542 38.7965 242.47 39.6659H219.703C220.102 41.8031 221.134 43.5056 222.8 44.7734C224.503 46.005 226.604 46.6208 229.103 46.6208C232.291 46.6208 234.917 45.5703 236.982 43.4693L240.622 47.6532C239.318 49.2108 237.67 50.388 235.678 51.185C233.685 51.9819 231.44 52.3803 228.94 52.3803C225.753 52.3803 222.945 51.7464 220.518 50.4786C218.091 49.2108 216.208 47.4539 214.867 45.2081C213.563 42.926 212.911 40.3541 212.911 37.4924C212.911 34.667 213.545 32.1314 214.813 29.8855C216.117 27.6034 217.91 25.8285 220.192 24.5606C222.474 23.2928 225.046 22.6589 227.908 22.6589C230.733 22.6589 233.251 23.2928 235.46 24.5606C237.706 25.7922 239.445 27.5491 240.677 29.8312C241.944 32.077 242.578 34.6851 242.578 37.6555ZM227.908 28.0924C225.734 28.0924 223.887 28.7444 222.366 30.0485C220.88 31.3163 219.975 33.0188 219.649 35.156H236.112C235.823 33.0551 234.935 31.3525 233.45 30.0485C231.965 28.7444 230.117 28.0924 227.908 28.0924ZM271.93 28.7444H261.769V52H254.977V28.7444H244.762V22.9849H271.93V28.7444Z" fill="black"/>
<path d="M316.868 25.683V49.0781C316.868 49.8842 316.58 50.576 316.002 51.1537C315.438 51.7179 314.753 52 313.946 52C313.14 52 312.449 51.7179 311.871 51.1537C311.307 50.576 311.025 49.8842 311.025 49.0781V28.6049H309.312L286.763 51.1537C286.199 51.7179 285.507 52 284.687 52H278.844C278.038 52 277.346 51.7179 276.768 51.1537C276.204 50.576 275.922 49.8842 275.922 49.0781V25.683C275.922 24.877 276.204 24.1919 276.768 23.6276C277.346 23.05 278.038 22.7612 278.844 22.7612C279.65 22.7612 280.335 23.05 280.899 23.6276C281.477 24.1919 281.766 24.877 281.766 25.683V46.1563H283.478L306.027 23.6075C306.591 23.0433 307.283 22.7612 308.103 22.7612H313.946C314.753 22.7612 315.438 23.05 316.002 23.6276C316.58 24.1919 316.868 24.877 316.868 25.683Z" fill="url(#paint1_linear_29_937)"/>
<path d="M324.564 22.9849H331.356V34.7757H345.972V22.9849H352.764V52H345.972V40.5352H331.356V52H324.564V22.9849ZM384.144 28.7444H368.659V52H361.867V22.9849H384.144V28.7444ZM400.746 52.3803C397.812 52.3803 395.167 51.7464 392.813 50.4786C390.458 49.2108 388.611 47.4539 387.271 45.2081C385.967 42.926 385.315 40.3541 385.315 37.4924C385.315 34.6308 385.967 32.077 387.271 29.8312C388.611 27.5853 390.458 25.8285 392.813 24.5606C395.167 23.2928 397.812 22.6589 400.746 22.6589C403.716 22.6589 406.379 23.2928 408.733 24.5606C411.088 25.8285 412.917 27.5853 414.221 29.8312C415.561 32.077 416.231 34.6308 416.231 37.4924C416.231 40.3541 415.561 42.926 414.221 45.2081C412.917 47.4539 411.088 49.2108 408.733 50.4786C406.379 51.7464 403.716 52.3803 400.746 52.3803ZM400.746 46.5665C403.245 46.5665 405.31 45.7333 406.94 44.067C408.57 42.4007 409.385 40.2092 409.385 37.4924C409.385 34.7757 408.57 32.5842 406.94 30.9179C405.31 29.2516 403.245 28.4184 400.746 28.4184C398.246 28.4184 396.182 29.2516 394.552 30.9179C392.958 32.5842 392.161 34.7757 392.161 37.4924C392.161 40.2092 392.958 42.4007 394.552 44.067C396.182 45.7333 398.246 46.5665 400.746 46.5665ZM443.969 36.8948C447.555 37.9815 449.348 40.2998 449.348 43.8497C449.348 46.4578 448.37 48.4682 446.414 49.8809C444.458 51.2936 441.56 52 437.72 52H422.941V22.9849H437.122C440.672 22.9849 443.444 23.6369 445.436 24.941C447.428 26.245 448.424 28.0924 448.424 30.4832C448.424 31.9683 448.026 33.2543 447.229 34.341C446.468 35.4277 445.381 36.279 443.969 36.8948ZM429.407 35.1017H436.525C440.038 35.1017 441.795 33.8882 441.795 31.4612C441.795 29.1067 440.038 27.9294 436.525 27.9294H429.407V35.1017ZM437.177 47.0555C440.908 47.0555 442.773 45.842 442.773 43.415C442.773 42.1472 442.339 41.2054 441.469 40.5896C440.6 39.9375 439.242 39.6115 437.394 39.6115H429.407V47.0555H437.177ZM467.395 22.6589C471.669 22.6589 474.929 23.6913 477.175 25.756C479.457 27.7845 480.598 30.8635 480.598 34.993V52H474.187V48.4682C473.354 49.736 472.158 50.7141 470.601 51.4023C469.079 52.0543 467.232 52.3803 465.059 52.3803C462.885 52.3803 460.983 52.0181 459.353 51.2936C457.723 50.5329 456.455 49.5006 455.55 48.1965C454.68 46.8562 454.246 45.353 454.246 43.6867C454.246 41.0786 455.206 38.9957 457.126 37.4381C459.082 35.8443 462.143 35.0474 466.308 35.0474H473.807V34.6127C473.807 32.5842 473.191 31.0265 471.959 29.9398C470.764 28.8531 468.971 28.3098 466.58 28.3098C464.95 28.3098 463.338 28.5633 461.744 29.0705C460.186 29.5776 458.864 30.284 457.778 31.1895L455.115 26.245C456.637 25.0859 458.466 24.1984 460.603 23.5826C462.74 22.9668 465.004 22.6589 467.395 22.6589ZM466.471 47.4358C468.174 47.4358 469.677 47.0555 470.981 46.2948C472.321 45.4979 473.263 44.3749 473.807 42.926V39.5572H466.797C462.885 39.5572 460.929 40.8431 460.929 43.415C460.929 44.6466 461.418 45.6246 462.396 46.3491C463.374 47.0736 464.733 47.4358 466.471 47.4358ZM513.508 22.9849V52H507.423V43.252H499.761L493.839 52H486.558L493.404 42.3283C491.303 41.6038 489.691 40.499 488.568 39.0138C487.482 37.4924 486.938 35.6269 486.938 33.4173C486.938 30.0847 488.116 27.5128 490.47 25.7017C492.825 23.8905 496.067 22.9849 500.196 22.9849H513.508ZM500.413 28.6901C496.03 28.6901 493.839 30.3383 493.839 33.6346C493.839 36.8948 495.958 38.5248 500.196 38.5248H507.423V28.6901H500.413Z" fill="black"/>
<defs>
<linearGradient id="paint0_linear_29_937" x1="58.4771" y1="48.6429" x2="87" y2="48.6429" gradientUnits="userSpaceOnUse">
<stop/>
<stop offset="1" stop-color="#EF6600"/>
</linearGradient>
<linearGradient id="paint1_linear_29_937" x1="291.477" y1="48.6429" x2="320" y2="48.6429" gradientUnits="userSpaceOnUse">
<stop/>
<stop offset="1" stop-color="#EF6600"/>
</linearGradient>
</defs>
</svg>
