<svg width="299" height="149" viewBox="0 0 299 149" fill="none" xmlns="http://www.w3.org/2000/svg">
<rect width="298.115" height="147.852" transform="translate(0.683105 0.526855)" fill="#262626"/>
<path d="M7.94296 12.3772H0.806154V8.9934H19.0788V12.3772H11.942V30.5269H7.94296V12.3772ZM31.0318 13.9153C33.1031 13.9153 34.7643 14.5203 36.0153 15.7303C37.2663 16.9403 37.8918 18.7347 37.8918 21.1137V30.5269H34.0465V21.6059C34.0465 20.1703 33.7081 19.0936 33.0314 18.3758C32.3546 17.6375 31.3907 17.2684 30.1397 17.2684C28.7247 17.2684 27.607 17.6991 26.7867 18.5604C25.9663 19.4012 25.5562 20.6215 25.5562 22.2211V30.5269H21.7109V7.70139H25.5562V16.0072C26.1919 15.3304 26.9712 14.8177 27.8941 14.469C28.8375 14.0999 29.8834 13.9153 31.0318 13.9153ZM58.3625 22.4057C58.3625 22.6723 58.342 23.0517 58.301 23.5439H45.4117C45.6372 24.7538 46.2217 25.7177 47.1651 26.4355C48.129 27.1328 49.3184 27.4814 50.7335 27.4814C52.5382 27.4814 54.025 26.8867 55.194 25.6972L57.2551 28.0659C56.5168 28.9477 55.5837 29.6142 54.4557 30.0654C53.3278 30.5166 52.0563 30.7422 50.6412 30.7422C48.8365 30.7422 47.2471 30.3833 45.8731 29.6655C44.499 28.9477 43.4326 27.9531 42.6738 26.6816C41.9355 25.3896 41.5664 23.9335 41.5664 22.3134C41.5664 20.7138 41.9253 19.2782 42.6431 18.0067C43.3814 16.7147 44.3965 15.7098 45.6885 14.992C46.9805 14.2742 48.4366 13.9153 50.0567 13.9153C51.6564 13.9153 53.0817 14.2742 54.3327 14.992C55.6042 15.6893 56.5885 16.6839 57.2858 17.9759C58.0036 19.2474 58.3625 20.724 58.3625 22.4057ZM50.0567 16.9915C48.8262 16.9915 47.7803 17.3607 46.919 18.099C46.0782 18.8168 45.5655 19.7806 45.3809 20.9906H54.7018C54.5377 19.8011 54.0353 18.8373 53.1945 18.099C52.3536 17.3607 51.3077 16.9915 50.0567 16.9915ZM86.8616 14.0999V28.0351C86.8616 33.8184 83.9085 36.71 78.0022 36.71C76.423 36.71 74.926 36.505 73.5109 36.0948C72.0958 35.7051 70.9269 35.1309 70.004 34.3721L71.7267 31.4805C72.4445 32.0752 73.3468 32.5469 74.4338 32.8955C75.5412 33.2647 76.6589 33.4493 77.7868 33.4493C79.5915 33.4493 80.9143 33.0391 81.7551 32.2188C82.596 31.3984 83.0164 30.1475 83.0164 28.4658V27.6045C82.3601 28.3222 81.5603 28.8657 80.6169 29.2348C79.6736 29.604 78.6379 29.7886 77.51 29.7886C75.9514 29.7886 74.5363 29.4604 73.2648 28.8042C72.0138 28.1274 71.0192 27.184 70.2809 25.9741C69.5631 24.7641 69.2042 23.3798 69.2042 21.8212C69.2042 20.2626 69.5631 18.8885 70.2809 17.6991C71.0192 16.4891 72.0138 15.556 73.2648 14.8997C74.5363 14.2435 75.9514 13.9153 77.51 13.9153C78.6994 13.9153 79.7761 14.1102 80.74 14.4998C81.7244 14.8895 82.5447 15.4842 83.201 16.284V14.0999H86.8616ZM78.0944 26.5278C79.5505 26.5278 80.74 26.0971 81.6629 25.2358C82.6062 24.3539 83.0779 23.2157 83.0779 21.8212C83.0779 20.4471 82.6062 19.3295 81.6629 18.4681C80.74 17.6068 79.5505 17.1761 78.0944 17.1761C76.6179 17.1761 75.4079 17.6068 74.4645 18.4681C73.5417 19.3295 73.0802 20.4471 73.0802 21.8212C73.0802 23.2157 73.5417 24.3539 74.4645 25.2358C75.4079 26.0971 76.6179 26.5278 78.0944 26.5278ZM95.5776 16.4993C96.6851 14.7767 98.6334 13.9153 101.422 13.9153V17.576C101.094 17.5145 100.797 17.4837 100.53 17.4837C99.0333 17.4837 97.8643 17.9247 97.0235 18.8065C96.1826 19.6678 95.7622 20.9188 95.7622 22.5595V30.5269H91.917V14.0999H95.5776V16.4993ZM111.917 30.7422C110.256 30.7422 108.759 30.3833 107.426 29.6655C106.093 28.9477 105.047 27.9531 104.288 26.6816C103.55 25.3896 103.181 23.9335 103.181 22.3134C103.181 20.6932 103.55 19.2474 104.288 17.9759C105.047 16.7044 106.093 15.7098 107.426 14.992C108.759 14.2742 110.256 13.9153 111.917 13.9153C113.599 13.9153 115.106 14.2742 116.439 14.992C117.772 15.7098 118.808 16.7044 119.546 17.9759C120.305 19.2474 120.684 20.6932 120.684 22.3134C120.684 23.9335 120.305 25.3896 119.546 26.6816C118.808 27.9531 117.772 28.9477 116.439 29.6655C115.106 30.3833 113.599 30.7422 111.917 30.7422ZM111.917 27.4506C113.332 27.4506 114.501 26.979 115.424 26.0356C116.347 25.0922 116.808 23.8515 116.808 22.3134C116.808 20.7753 116.347 19.5345 115.424 18.5912C114.501 17.6478 113.332 17.1761 111.917 17.1761C110.502 17.1761 109.333 17.6478 108.41 18.5912C107.508 19.5345 107.057 20.7753 107.057 22.3134C107.057 23.8515 107.508 25.0922 108.41 26.0356C109.333 26.979 110.502 27.4506 111.917 27.4506ZM140.265 14.0999V30.5269H136.605V28.435C135.989 29.1733 135.22 29.7475 134.297 30.1577C133.375 30.5474 132.38 30.7422 131.314 30.7422C129.119 30.7422 127.386 30.1372 126.115 28.9272C124.864 27.6967 124.238 25.8818 124.238 23.4823V14.0999H128.084V22.9594C128.084 24.436 128.412 25.5434 129.068 26.2817C129.745 26.9995 130.698 27.3584 131.929 27.3584C133.303 27.3584 134.39 26.9379 135.19 26.0971C136.01 25.2358 136.42 24.0053 136.42 22.4057V14.0999H140.265ZM154.406 13.9153C156.005 13.9153 157.431 14.264 158.681 14.9612C159.953 15.6585 160.948 16.6429 161.665 17.9144C162.383 19.1859 162.742 20.6522 162.742 22.3134C162.742 23.9745 162.383 25.4511 161.665 26.7431C160.948 28.0146 159.953 28.999 158.681 29.6963C157.431 30.3936 156.005 30.7422 154.406 30.7422C152.191 30.7422 150.437 30.0039 149.145 28.5273V36.4947H145.3V14.0999H148.961V16.2532C149.596 15.4739 150.376 14.8895 151.299 14.4998C152.242 14.1102 153.278 13.9153 154.406 13.9153ZM153.975 27.4506C155.39 27.4506 156.549 26.979 157.451 26.0356C158.374 25.0922 158.835 23.8515 158.835 22.3134C158.835 20.7753 158.374 19.5345 157.451 18.5912C156.549 17.6478 155.39 17.1761 153.975 17.1761C153.052 17.1761 152.221 17.3914 151.483 17.8221C150.745 18.2323 150.16 18.827 149.73 19.6063C149.299 20.3856 149.084 21.288 149.084 22.3134C149.084 23.3388 149.299 24.2411 149.73 25.0204C150.16 25.7997 150.745 26.4047 151.483 26.8354C152.221 27.2456 153.052 27.4506 153.975 27.4506Z" fill="white"/>
<path d="M197.4 25.5978C197.4 26.051 197.237 26.4363 196.912 26.7535L193.626 30.0396C193.309 30.3644 192.92 30.5269 192.459 30.5269H179.304C178.85 30.5269 178.465 30.3644 178.148 30.0396L174.862 26.7535C174.537 26.4363 174.374 26.051 174.374 25.5978V15.7282C174.374 15.275 174.533 14.8897 174.85 14.5724C175.175 14.2476 175.564 14.0852 176.018 14.0852C176.471 14.0852 176.856 14.2476 177.173 14.5724C177.498 14.8897 177.661 15.275 177.661 15.7282V24.9065L179.995 27.2408H191.779L194.114 24.9065V15.7282C194.114 15.275 194.272 14.8897 194.589 14.5724C194.914 14.2476 195.303 14.0852 195.757 14.0852C196.21 14.0852 196.595 14.2476 196.912 14.5724C197.237 14.8897 197.4 15.275 197.4 15.7282V25.5978Z" fill="url(#paint0_linear_29_2352)"/>
<path d="M212.246 13.9153C214.317 13.9153 215.978 14.5203 217.229 15.7303C218.48 16.9403 219.106 18.7347 219.106 21.1137V30.5269H215.26V21.6059C215.26 20.1703 214.922 19.0936 214.245 18.3758C213.569 17.6375 212.605 17.2684 211.354 17.2684C209.939 17.2684 208.821 17.6991 208.001 18.5604C207.18 19.4012 206.77 20.6215 206.77 22.2211V30.5269H202.925V14.0999H206.586V16.2225C207.221 15.4637 208.021 14.8895 208.985 14.4998C209.949 14.1102 211.036 13.9153 212.246 13.9153ZM223.984 14.0999H227.829V30.5269H223.984V14.0999ZM225.922 11.3928C225.224 11.3928 224.64 11.1775 224.168 10.7468C223.697 10.2957 223.461 9.74194 223.461 9.08568C223.461 8.42942 223.697 7.88596 224.168 7.45529C224.64 7.00412 225.224 6.77853 225.922 6.77853C226.619 6.77853 227.203 6.99386 227.675 7.42453C228.147 7.83469 228.383 8.35765 228.383 8.9934C228.383 9.67016 228.147 10.2444 227.675 10.7161C227.224 11.1672 226.639 11.3928 225.922 11.3928ZM242.75 29.6348C242.299 30.0039 241.746 30.2808 241.089 30.4653C240.454 30.6499 239.777 30.7422 239.059 30.7422C237.254 30.7422 235.86 30.2705 234.875 29.3271C233.891 28.3838 233.399 27.0097 233.399 25.205V17.2992H230.692V14.223H233.399V10.47H237.244V14.223H241.643V17.2992H237.244V25.1127C237.244 25.9125 237.439 26.5278 237.829 26.9585C238.218 27.3686 238.782 27.5737 239.52 27.5737C240.382 27.5737 241.1 27.3481 241.674 26.8969L242.75 29.6348ZM245.914 14.0999H249.759V30.5269H245.914V14.0999ZM247.852 11.3928C247.154 11.3928 246.57 11.1775 246.098 10.7468C245.627 10.2957 245.391 9.74194 245.391 9.08568C245.391 8.42942 245.627 7.88596 246.098 7.45529C246.57 7.00412 247.154 6.77853 247.852 6.77853C248.549 6.77853 249.133 6.99386 249.605 7.42453C250.077 7.83469 250.313 8.35765 250.313 8.9934C250.313 9.67016 250.077 10.2444 249.605 10.7161C249.154 11.1672 248.569 11.3928 247.852 11.3928ZM264.127 13.9153C266.198 13.9153 267.859 14.5203 269.11 15.7303C270.361 16.9403 270.987 18.7347 270.987 21.1137V30.5269H267.141V21.6059C267.141 20.1703 266.803 19.0936 266.126 18.3758C265.449 17.6375 264.486 17.2684 263.235 17.2684C261.82 17.2684 260.702 17.6991 259.882 18.5604C259.061 19.4012 258.651 20.6215 258.651 22.2211V30.5269H254.806V14.0999H258.466V16.2225C259.102 15.4637 259.902 14.8895 260.866 14.4998C261.83 14.1102 262.917 13.9153 264.127 13.9153ZM292.319 14.0999V28.0351C292.319 33.8184 289.366 36.71 283.459 36.71C281.88 36.71 280.383 36.505 278.968 36.0948C277.553 35.7051 276.384 35.1309 275.461 34.3721L277.184 31.4805C277.902 32.0752 278.804 32.5469 279.891 32.8955C280.998 33.2647 282.116 33.4493 283.244 33.4493C285.049 33.4493 286.371 33.0391 287.212 32.2188C288.053 31.3984 288.473 30.1475 288.473 28.4658V27.6045C287.817 28.3222 287.017 28.8657 286.074 29.2348C285.131 29.604 284.095 29.7886 282.967 29.7886C281.408 29.7886 279.993 29.4604 278.722 28.8042C277.471 28.1274 276.476 27.184 275.738 25.9741C275.02 24.7641 274.661 23.3798 274.661 21.8212C274.661 20.2626 275.02 18.8885 275.738 17.6991C276.476 16.4891 277.471 15.556 278.722 14.8997C279.993 14.2435 281.408 13.9153 282.967 13.9153C284.157 13.9153 285.233 14.1102 286.197 14.4998C287.181 14.8895 288.002 15.4842 288.658 16.284V14.0999H292.319ZM283.552 26.5278C285.008 26.5278 286.197 26.0971 287.12 25.2358C288.063 24.3539 288.535 23.2157 288.535 21.8212C288.535 20.4471 288.063 19.3295 287.12 18.4681C286.197 17.6068 285.008 17.1761 283.552 17.1761C282.075 17.1761 280.865 17.6068 279.922 18.4681C278.999 19.3295 278.537 20.4471 278.537 21.8212C278.537 23.2157 278.999 24.3539 279.922 25.2358C280.865 26.0971 282.075 26.5278 283.552 26.5278Z" fill="white"/>
<path d="M13.0802 66.6348C12.629 67.0039 12.0753 67.2808 11.4191 67.4653C10.7833 67.6499 10.1066 67.7422 9.38878 67.7422C7.58407 67.7422 6.18952 67.2705 5.20513 66.3271C4.22075 65.3838 3.72855 64.0097 3.72855 62.205V54.2992H1.02149V51.223H3.72855V47.47H7.57381V51.223H11.9728V54.2992H7.57381V62.1127C7.57381 62.9125 7.76864 63.5278 8.15829 63.9585C8.54795 64.3686 9.11192 64.5737 9.85021 64.5737C10.7115 64.5737 11.4293 64.3481 12.0036 63.8969L13.0802 66.6348ZM31.1453 59.4057C31.1453 59.6723 31.1248 60.0517 31.0837 60.5439H18.1944C18.42 61.7538 19.0045 62.7177 19.9479 63.4355C20.9117 64.1328 22.1012 64.4814 23.5163 64.4814C25.321 64.4814 26.8078 63.8867 27.9768 62.6972L30.0378 65.0659C29.2995 65.9477 28.3664 66.6142 27.2385 67.0654C26.1105 67.5166 24.839 67.7422 23.424 67.7422C21.6193 67.7422 20.0299 67.3833 18.6559 66.6655C17.2818 65.9477 16.2154 64.9531 15.4566 63.6816C14.7183 62.3896 14.3492 60.9335 14.3492 59.3134C14.3492 57.7138 14.7081 56.2782 15.4258 55.0067C16.1641 53.7147 17.1793 52.7098 18.4713 51.992C19.7633 51.2742 21.2194 50.9153 22.8395 50.9153C24.4391 50.9153 25.8644 51.2742 27.1154 51.992C28.3869 52.6893 29.3713 53.6839 30.0686 54.9759C30.7864 56.2474 31.1453 57.724 31.1453 59.4057ZM22.8395 53.9915C21.609 53.9915 20.5631 54.3607 19.7018 55.099C18.8609 55.8168 18.3482 56.7806 18.1637 57.9906H27.4846C27.3205 56.8011 26.8181 55.8373 25.9772 55.099C25.1364 54.3607 24.0905 53.9915 22.8395 53.9915ZM42.3756 67.7422C40.6734 67.7422 39.1456 67.3833 37.792 66.6655C36.4385 65.9477 35.3823 64.9531 34.6235 63.6816C33.8647 62.3896 33.4853 60.9335 33.4853 59.3134C33.4853 57.6932 33.8647 56.2474 34.6235 54.9759C35.3823 53.7044 36.4282 52.7098 37.7613 51.992C39.1148 51.2742 40.6529 50.9153 42.3756 50.9153C43.9957 50.9153 45.4108 51.2435 46.6207 51.8997C47.8512 52.556 48.7741 53.4993 49.3893 54.7298L46.4362 56.4525C45.9645 55.6937 45.3698 55.1297 44.652 54.7606C43.9547 54.3709 43.1856 54.1761 42.3448 54.1761C40.9093 54.1761 39.7198 54.6478 38.7764 55.5912C37.833 56.514 37.3614 57.7548 37.3614 59.3134C37.3614 60.872 37.8228 62.123 38.7457 63.0664C39.689 63.9892 40.8887 64.4506 42.3448 64.4506C43.1856 64.4506 43.9547 64.2661 44.652 63.8969C45.3698 63.5073 45.9645 62.9331 46.4362 62.1743L49.3893 63.8969C48.7536 65.1274 47.8205 66.081 46.59 66.7578C45.38 67.4141 43.9752 67.7422 42.3756 67.7422Z" fill="white"/>
<path d="M76.0108 52.7169V65.8725C76.0108 66.3257 75.8484 66.7148 75.5236 67.0396C75.2063 67.3644 74.8211 67.5269 74.3678 67.5269C73.9146 67.5269 73.5255 67.3644 73.2007 67.0396C72.8834 66.7148 72.7248 66.3257 72.7248 65.8725V60.9434H56.2831V65.8725C56.2831 66.3257 56.1207 66.7148 55.7959 67.0396C55.4786 67.3644 55.0933 67.5269 54.6401 67.5269C54.1868 67.5269 53.7978 67.3644 53.473 67.0396C53.1557 66.7148 52.997 66.3257 52.997 65.8725V52.7169C52.997 52.2636 53.1557 51.8784 53.473 51.5611C53.7978 51.2363 54.1868 51.0739 54.6401 51.0739C55.0933 51.0739 55.4786 51.2363 55.7959 51.5611C56.1207 51.8784 56.2831 52.2636 56.2831 52.7169V57.6573H72.7248V52.7169C72.7248 52.2636 72.8834 51.8784 73.2007 51.5611C73.5255 51.2363 73.9146 51.0739 74.3678 51.0739C74.8211 51.0739 75.2063 51.2325 75.5236 51.5498C75.8409 51.867 76.0033 52.2561 76.0108 52.7169Z" fill="url(#paint1_linear_29_2352)"/>
<path d="M90.8678 50.9153C92.9391 50.9153 94.6003 51.5203 95.8513 52.7303C97.1023 53.9403 97.7278 55.7347 97.7278 58.1137V67.5269H93.8825V58.6059C93.8825 57.1703 93.5441 56.0936 92.8674 55.3758C92.1906 54.6375 91.2267 54.2684 89.9757 54.2684C88.5607 54.2684 87.443 54.6991 86.6226 55.5604C85.8023 56.4012 85.3922 57.6215 85.3922 59.2211V67.5269H81.5469V51.0999H85.2076V53.2225C85.8433 52.4637 86.6432 51.8895 87.607 51.4998C88.5709 51.1102 89.6578 50.9153 90.8678 50.9153ZM110.139 67.7422C108.478 67.7422 106.981 67.3833 105.648 66.6655C104.315 65.9477 103.269 64.9531 102.51 63.6816C101.772 62.3896 101.402 60.9335 101.402 59.3134C101.402 57.6932 101.772 56.2474 102.51 54.9759C103.269 53.7044 104.315 52.7098 105.648 51.992C106.981 51.2742 108.478 50.9153 110.139 50.9153C111.82 50.9153 113.328 51.2742 114.661 51.992C115.994 52.7098 117.03 53.7044 117.768 54.9759C118.527 56.2474 118.906 57.6932 118.906 59.3134C118.906 60.9335 118.527 62.3896 117.768 63.6816C117.03 64.9531 115.994 65.9477 114.661 66.6655C113.328 67.3833 111.82 67.7422 110.139 67.7422ZM110.139 64.4506C111.554 64.4506 112.723 63.979 113.646 63.0356C114.569 62.0922 115.03 60.8515 115.03 59.3134C115.03 57.7753 114.569 56.5345 113.646 55.5912C112.723 54.6478 111.554 54.1761 110.139 54.1761C108.724 54.1761 107.555 54.6478 106.632 55.5912C105.73 56.5345 105.278 57.7753 105.278 59.3134C105.278 60.8515 105.73 62.0922 106.632 63.0356C107.555 63.979 108.724 64.4506 110.139 64.4506ZM122.583 44.7014H126.428V67.5269H122.583V44.7014ZM138.858 67.7422C137.197 67.7422 135.7 67.3833 134.367 66.6655C133.034 65.9477 131.988 64.9531 131.229 63.6816C130.491 62.3896 130.122 60.9335 130.122 59.3134C130.122 57.6932 130.491 56.2474 131.229 54.9759C131.988 53.7044 133.034 52.7098 134.367 51.992C135.7 51.2742 137.197 50.9153 138.858 50.9153C140.54 50.9153 142.047 51.2742 143.38 51.992C144.713 52.7098 145.749 53.7044 146.487 54.9759C147.246 56.2474 147.625 57.6932 147.625 59.3134C147.625 60.9335 147.246 62.3896 146.487 63.6816C145.749 64.9531 144.713 65.9477 143.38 66.6655C142.047 67.3833 140.54 67.7422 138.858 67.7422ZM138.858 64.4506C140.273 64.4506 141.442 63.979 142.365 63.0356C143.288 62.0922 143.749 60.8515 143.749 59.3134C143.749 57.7753 143.288 56.5345 142.365 55.5912C141.442 54.6478 140.273 54.1761 138.858 54.1761C137.443 54.1761 136.274 54.6478 135.351 55.5912C134.449 56.5345 133.998 57.7753 133.998 59.3134C133.998 60.8515 134.449 62.0922 135.351 63.0356C136.274 63.979 137.443 64.4506 138.858 64.4506ZM167.606 51.0999V65.0351C167.606 70.8184 164.653 73.71 158.747 73.71C157.168 73.71 155.671 73.505 154.255 73.0948C152.84 72.7051 151.671 72.1309 150.749 71.3721L152.471 68.4805C153.189 69.0752 154.091 69.5469 155.178 69.8955C156.286 70.2647 157.403 70.4493 158.531 70.4493C160.336 70.4493 161.659 70.0391 162.5 69.2188C163.341 68.3984 163.761 67.1475 163.761 65.4658V64.6045C163.105 65.3222 162.305 65.8657 161.362 66.2348C160.418 66.604 159.383 66.7886 158.255 66.7886C156.696 66.7886 155.281 66.4604 154.009 65.8042C152.758 65.1274 151.764 64.184 151.025 62.9741C150.308 61.7641 149.949 60.3798 149.949 58.8212C149.949 57.2626 150.308 55.8885 151.025 54.6991C151.764 53.4891 152.758 52.556 154.009 51.8997C155.281 51.2435 156.696 50.9153 158.255 50.9153C159.444 50.9153 160.521 51.1102 161.485 51.4998C162.469 51.8895 163.289 52.4842 163.946 53.284V51.0999H167.606ZM158.839 63.5278C160.295 63.5278 161.485 63.0971 162.407 62.2358C163.351 61.3539 163.822 60.2157 163.822 58.8212C163.822 57.4471 163.351 56.3295 162.407 55.4681C161.485 54.6068 160.295 54.1761 158.839 54.1761C157.362 54.1761 156.152 54.6068 155.209 55.4681C154.286 56.3295 153.825 57.4471 153.825 58.8212C153.825 60.2157 154.286 61.3539 155.209 62.2358C156.152 63.0971 157.362 63.5278 158.839 63.5278ZM172.662 51.0999H176.507V67.5269H172.662V51.0999ZM174.6 48.3928C173.902 48.3928 173.318 48.1775 172.846 47.7468C172.374 47.2957 172.139 46.7419 172.139 46.0857C172.139 45.4294 172.374 44.886 172.846 44.4553C173.318 44.0041 173.902 43.7785 174.6 43.7785C175.297 43.7785 175.881 43.9939 176.353 44.4245C176.825 44.8347 177.061 45.3576 177.061 45.9934C177.061 46.6702 176.825 47.2444 176.353 47.7161C175.902 48.1672 175.317 48.3928 174.6 48.3928ZM196.996 59.4057C196.996 59.6723 196.976 60.0517 196.935 60.5439H184.045C184.271 61.7538 184.856 62.7177 185.799 63.4355C186.763 64.1328 187.952 64.4814 189.367 64.4814C191.172 64.4814 192.659 63.8867 193.828 62.6972L195.889 65.0659C195.151 65.9477 194.217 66.6142 193.089 67.0654C191.962 67.5166 190.69 67.7422 189.275 67.7422C187.47 67.7422 185.881 67.3833 184.507 66.6655C183.133 65.9477 182.066 64.9531 181.308 63.6816C180.569 62.3896 180.2 60.9335 180.2 59.3134C180.2 57.7138 180.559 56.2782 181.277 55.0067C182.015 53.7147 183.03 52.7098 184.322 51.992C185.614 51.2742 187.07 50.9153 188.691 50.9153C190.29 50.9153 191.715 51.2742 192.966 51.992C194.238 52.6893 195.222 53.6839 195.92 54.9759C196.637 56.2474 196.996 57.724 196.996 59.4057ZM188.691 53.9915C187.46 53.9915 186.414 54.3607 185.553 55.099C184.712 55.8168 184.199 56.7806 184.015 57.9906H193.336C193.172 56.8011 192.669 55.8373 191.828 55.099C190.987 54.3607 189.942 53.9915 188.691 53.9915ZM205.766 67.7422C204.433 67.7422 203.13 67.5679 201.859 67.2192C200.587 66.8706 199.572 66.4297 198.813 65.8965L200.29 62.9741C201.028 63.4663 201.91 63.8662 202.936 64.1738C203.981 64.4609 205.007 64.6045 206.012 64.6045C208.309 64.6045 209.457 63.9995 209.457 62.7895C209.457 62.2153 209.16 61.8154 208.565 61.5898C207.991 61.3642 207.058 61.1488 205.766 60.9438C204.412 60.7387 203.305 60.5028 202.443 60.2362C201.603 59.9696 200.864 59.5082 200.228 58.8519C199.613 58.1752 199.306 57.2421 199.306 56.0526C199.306 54.494 199.952 53.2532 201.244 52.3304C202.556 51.387 204.32 50.9153 206.535 50.9153C207.663 50.9153 208.791 51.0486 209.919 51.3152C211.046 51.5613 211.969 51.8997 212.687 52.3304L211.211 55.2528C209.816 54.4325 208.247 54.0223 206.504 54.0223C205.376 54.0223 204.515 54.1966 203.92 54.5453C203.346 54.8734 203.059 55.3143 203.059 55.868C203.059 56.4833 203.366 56.9242 203.981 57.1908C204.617 57.4369 205.591 57.6727 206.904 57.8983C208.216 58.1034 209.293 58.3392 210.134 58.6059C210.975 58.8725 211.692 59.3236 212.287 59.9594C212.902 60.5951 213.21 61.4975 213.21 62.6664C213.21 64.2046 212.544 65.435 211.211 66.3579C209.878 67.2808 208.063 67.7422 205.766 67.7422Z" fill="white"/>
<path d="M230.871 50.9153C233.291 50.9153 235.137 51.4998 236.408 52.6688C237.7 53.8172 238.346 55.5604 238.346 57.8983V67.5269H234.716V65.5273C234.245 66.2451 233.568 66.7988 232.686 67.1885C231.825 67.5576 230.779 67.7422 229.548 67.7422C228.318 67.7422 227.241 67.5371 226.318 67.1269C225.396 66.6963 224.678 66.1118 224.165 65.3735C223.673 64.6147 223.427 63.7636 223.427 62.8203C223.427 61.3437 223.97 60.1645 225.057 59.2826C226.165 58.3803 227.898 57.9291 230.256 57.9291H234.501V57.683C234.501 56.5345 234.152 55.6527 233.455 55.0374C232.778 54.4222 231.763 54.1146 230.41 54.1146C229.487 54.1146 228.574 54.2581 227.672 54.5453C226.79 54.8324 226.042 55.2323 225.426 55.745L223.919 52.9456C224.78 52.2894 225.816 51.7869 227.026 51.4383C228.236 51.0896 229.518 50.9153 230.871 50.9153ZM230.348 64.9428C231.312 64.9428 232.163 64.7275 232.901 64.2968C233.66 63.8457 234.194 63.2099 234.501 62.3896V60.4823H230.533C228.318 60.4823 227.211 61.2104 227.211 62.6664C227.211 63.3637 227.487 63.9174 228.041 64.3276C228.595 64.7378 229.364 64.9428 230.348 64.9428ZM252.602 50.9153C254.674 50.9153 256.335 51.5203 257.586 52.7303C258.837 53.9403 259.462 55.7347 259.462 58.1137V67.5269H255.617V58.6059C255.617 57.1703 255.279 56.0936 254.602 55.3758C253.925 54.6375 252.961 54.2684 251.71 54.2684C250.295 54.2684 249.177 54.6991 248.357 55.5604C247.537 56.4012 247.127 57.6215 247.127 59.2211V67.5269H243.281V51.0999H246.942V53.2225C247.578 52.4637 248.378 51.8895 249.341 51.4998C250.305 51.1102 251.392 50.9153 252.602 50.9153ZM280.579 44.7014V67.5269H276.887V65.4043C276.252 66.1836 275.462 66.7681 274.519 67.1577C273.596 67.5474 272.57 67.7422 271.443 67.7422C269.863 67.7422 268.438 67.3936 267.167 66.6963C265.916 65.999 264.931 65.0146 264.213 63.7431C263.496 62.4511 263.137 60.9745 263.137 59.3134C263.137 57.6522 263.496 56.1859 264.213 54.9144C264.931 53.6429 265.916 52.6585 267.167 51.9612C268.438 51.264 269.863 50.9153 271.443 50.9153C272.529 50.9153 273.524 51.0999 274.426 51.469C275.329 51.8382 276.098 52.3919 276.734 53.1302V44.7014H280.579ZM271.904 64.4506C272.827 64.4506 273.657 64.2456 274.396 63.8354C275.134 63.4047 275.718 62.7997 276.149 62.0204C276.58 61.2411 276.795 60.3388 276.795 59.3134C276.795 58.288 276.58 57.3856 276.149 56.6063C275.718 55.827 275.134 55.2323 274.396 54.8221C273.657 54.3914 272.827 54.1761 271.904 54.1761C270.981 54.1761 270.151 54.3914 269.412 54.8221C268.674 55.2323 268.089 55.827 267.659 56.6063C267.228 57.3856 267.013 58.288 267.013 59.3134C267.013 60.3388 267.228 61.2411 267.659 62.0204C268.089 62.7997 268.674 63.4047 269.412 63.8354C270.151 64.2456 270.981 64.4506 271.904 64.4506Z" fill="white"/>
<path d="M8.28134 104.742C6.94832 104.742 5.64606 104.568 4.37456 104.219C3.10306 103.871 2.08791 103.43 1.32911 102.896L2.80569 99.9741C3.54398 100.466 4.42583 100.866 5.45123 101.174C6.49714 101.461 7.52254 101.604 8.52744 101.604C10.8243 101.604 11.9728 100.999 11.9728 99.7895C11.9728 99.2153 11.6754 98.8154 11.0807 98.5898C10.5065 98.3642 9.57335 98.1488 8.28134 97.9438C6.92781 97.7387 5.82037 97.5028 4.95904 97.2362C4.1182 96.9696 3.37991 96.5082 2.74417 95.8519C2.12892 95.1752 1.8213 94.2421 1.8213 93.0526C1.8213 91.494 2.46731 90.2532 3.75931 89.3304C5.07183 88.387 6.83552 87.9153 9.05039 87.9153C10.1783 87.9153 11.3063 88.0486 12.4342 88.3152C13.5622 88.5613 14.485 88.8997 15.2028 89.3304L13.7262 92.2528C12.3317 91.4325 10.7628 91.0223 9.01963 91.0223C7.89169 91.0223 7.03035 91.1966 6.43562 91.5453C5.86139 91.8734 5.57428 92.3143 5.57428 92.868C5.57428 93.4833 5.8819 93.9242 6.49714 94.1908C7.13289 94.4369 8.10702 94.6727 9.41954 94.8983C10.7321 95.1034 11.8087 95.3392 12.6496 95.6059C13.4904 95.8725 14.2082 96.3236 14.8029 96.9594C15.4181 97.5951 15.7258 98.4975 15.7258 99.6664C15.7258 101.205 15.0593 102.435 13.7262 103.358C12.3932 104.281 10.5782 104.742 8.28134 104.742ZM34.4798 96.4057C34.4798 96.6723 34.4593 97.0517 34.4183 97.5439H21.529C21.7546 98.7538 22.3391 99.7177 23.2824 100.435C24.2463 101.133 25.4358 101.481 26.8508 101.481C28.6555 101.481 30.1424 100.887 31.3113 99.6972L33.3724 102.066C32.6341 102.948 31.701 103.614 30.573 104.065C29.4451 104.517 28.1736 104.742 26.7585 104.742C24.9538 104.742 23.3645 104.383 21.9904 103.666C20.6164 102.948 19.55 101.953 18.7912 100.682C18.0529 99.3896 17.6837 97.9335 17.6837 96.3134C17.6837 94.7138 18.0426 93.2782 18.7604 92.0067C19.4987 90.7147 20.5138 89.7098 21.8058 88.992C23.0978 88.2742 24.5539 87.9153 26.1741 87.9153C27.7737 87.9153 29.199 88.2742 30.45 88.992C31.7215 89.6893 32.7059 90.6839 33.4031 91.9759C34.1209 93.2474 34.4798 94.724 34.4798 96.4057ZM26.1741 90.9915C24.9436 90.9915 23.8977 91.3607 23.0363 92.099C22.1955 92.8168 21.6828 93.7806 21.4982 94.9906H30.8191C30.6551 93.8011 30.1526 92.8373 29.3118 92.099C28.471 91.3607 27.4251 90.9915 26.1741 90.9915ZM41.8341 90.4993C42.9416 88.7767 44.8898 87.9153 47.6789 87.9153V91.576C47.3508 91.5145 47.0534 91.4837 46.7868 91.4837C45.2897 91.4837 44.1208 91.9247 43.2799 92.8065C42.4391 93.6678 42.0187 94.9188 42.0187 96.5595V104.527H38.1734V88.0999H41.8341V90.4993ZM66.9228 88.0999L59.8782 104.527H55.9099L48.8654 88.0999H52.8645L57.971 100.282L63.2313 88.0999H66.9228ZM69.326 88.0999H73.1713V104.527H69.326V88.0999ZM71.2641 85.3928C70.5668 85.3928 69.9823 85.1775 69.5106 84.7468C69.0389 84.2957 68.8031 83.7419 68.8031 83.0857C68.8031 82.4294 69.0389 81.886 69.5106 81.4553C69.9823 81.0041 70.5668 80.7785 71.2641 80.7785C71.9613 80.7785 72.5458 80.9939 73.0175 81.4245C73.4892 81.8347 73.725 82.3576 73.725 82.9934C73.725 83.6702 73.4892 84.2444 73.0175 84.7161C72.5663 85.1672 71.9818 85.3928 71.2641 85.3928ZM85.7549 104.742C84.0528 104.742 82.5249 104.383 81.1714 103.666C79.8178 102.948 78.7617 101.953 78.0029 100.682C77.2441 99.3896 76.8647 97.9335 76.8647 96.3134C76.8647 94.6932 77.2441 93.2474 78.0029 91.9759C78.7617 90.7044 79.8076 89.7098 81.1406 88.992C82.4941 88.2742 84.0322 87.9153 85.7549 87.9153C87.3751 87.9153 88.7901 88.2435 90.0001 88.8997C91.2306 89.556 92.1534 90.4993 92.7687 91.7298L89.8155 93.4525C89.3438 92.6937 88.7491 92.1297 88.0313 91.7606C87.334 91.3709 86.565 91.1761 85.7242 91.1761C84.2886 91.1761 83.0991 91.6478 82.1558 92.5912C81.2124 93.514 80.7407 94.7548 80.7407 96.3134C80.7407 97.872 81.2021 99.123 82.125 100.066C83.0684 100.989 84.2681 101.451 85.7242 101.451C86.565 101.451 87.334 101.266 88.0313 100.897C88.7491 100.507 89.3438 99.9331 89.8155 99.1743L92.7687 100.897C92.1329 102.127 91.1998 103.081 89.9693 103.758C88.7594 104.414 87.3546 104.742 85.7549 104.742ZM111.295 96.4057C111.295 96.6723 111.274 97.0517 111.233 97.5439H98.3441C98.5697 98.7538 99.1541 99.7177 100.098 100.435C101.061 101.133 102.251 101.481 103.666 101.481C105.471 101.481 106.957 100.887 108.126 99.6972L110.187 102.066C109.449 102.948 108.516 103.614 107.388 104.065C106.26 104.517 104.989 104.742 103.574 104.742C101.769 104.742 100.18 104.383 98.8055 103.666C97.4315 102.948 96.365 101.953 95.6062 100.682C94.868 99.3896 94.4988 97.9335 94.4988 96.3134C94.4988 94.7138 94.8577 93.2782 95.5755 92.0067C96.3138 90.7147 97.3289 89.7098 98.6209 88.992C99.9129 88.2742 101.369 87.9153 102.989 87.9153C104.589 87.9153 106.014 88.2742 107.265 88.992C108.537 89.6893 109.521 90.6839 110.218 91.9759C110.936 93.2474 111.295 94.724 111.295 96.4057ZM102.989 90.9915C101.759 90.9915 100.713 91.3607 99.8514 92.099C99.0106 92.8168 98.4979 93.7806 98.3133 94.9906H107.634C107.47 93.8011 106.968 92.8373 106.127 92.099C105.286 91.3607 104.24 90.9915 102.989 90.9915ZM120.064 104.742C118.731 104.742 117.429 104.568 116.157 104.219C114.886 103.871 113.871 103.43 113.112 102.896L114.589 99.9741C115.327 100.466 116.209 100.866 117.234 101.174C118.28 101.461 119.305 101.604 120.31 101.604C122.607 101.604 123.756 100.999 123.756 99.7895C123.756 99.2153 123.458 98.8154 122.864 98.5898C122.289 98.3642 121.356 98.1488 120.064 97.9438C118.711 97.7387 117.603 97.5028 116.742 97.2362C115.901 96.9696 115.163 96.5082 114.527 95.8519C113.912 95.1752 113.604 94.2421 113.604 93.0526C113.604 91.494 114.25 90.2532 115.542 89.3304C116.855 88.387 118.618 87.9153 120.833 87.9153C121.961 87.9153 123.089 88.0486 124.217 88.3152C125.345 88.5613 126.268 88.8997 126.986 89.3304L125.509 92.2528C124.115 91.4325 122.546 91.0223 120.803 91.0223C119.675 91.0223 118.813 91.1966 118.219 91.5453C117.644 91.8734 117.357 92.3143 117.357 92.868C117.357 93.4833 117.665 93.9242 118.28 94.1908C118.916 94.4369 119.89 94.6727 121.202 94.8983C122.515 95.1034 123.592 95.3392 124.432 95.6059C125.273 95.8725 125.991 96.3236 126.586 96.9594C127.201 97.5951 127.509 98.4975 127.509 99.6664C127.509 101.205 126.842 102.435 125.509 103.358C124.176 104.281 122.361 104.742 120.064 104.742ZM145.997 84.593C144.377 84.593 143.567 85.4749 143.567 87.2386V88.223H148.089V91.2992H143.69V104.527H139.845V91.2992H137.138V88.223H139.845V87.177C139.845 85.4133 140.357 84.0291 141.383 83.0242C142.408 81.9988 143.854 81.4861 145.72 81.4861C147.197 81.4861 148.356 81.7834 149.196 82.3782L148.12 85.2698C147.464 84.8186 146.756 84.593 145.997 84.593ZM157.82 104.742C156.159 104.742 154.662 104.383 153.329 103.666C151.996 102.948 150.95 101.953 150.191 100.682C149.453 99.3896 149.083 97.9335 149.083 96.3134C149.083 94.6932 149.453 93.2474 150.191 91.9759C150.95 90.7044 151.996 89.7098 153.329 88.992C154.662 88.2742 156.159 87.9153 157.82 87.9153C159.502 87.9153 161.009 88.2742 162.342 88.992C163.675 89.7098 164.711 90.7044 165.449 91.9759C166.208 93.2474 166.587 94.6932 166.587 96.3134C166.587 97.9335 166.208 99.3896 165.449 100.682C164.711 101.953 163.675 102.948 162.342 103.666C161.009 104.383 159.502 104.742 157.82 104.742ZM157.82 101.451C159.235 101.451 160.404 100.979 161.327 100.036C162.25 99.0922 162.711 97.8515 162.711 96.3134C162.711 94.7753 162.25 93.5345 161.327 92.5912C160.404 91.6478 159.235 91.1761 157.82 91.1761C156.405 91.1761 155.236 91.6478 154.313 92.5912C153.411 93.5345 152.96 94.7753 152.96 96.3134C152.96 97.8515 153.411 99.0922 154.313 100.036C155.236 100.979 156.405 101.451 157.82 101.451ZM173.925 90.4993C175.032 88.7767 176.981 87.9153 179.77 87.9153V91.576C179.441 91.5145 179.144 91.4837 178.878 91.4837C177.38 91.4837 176.211 91.9247 175.371 92.8065C174.53 93.6678 174.109 94.9188 174.109 96.5595V104.527H170.264V88.0999H173.925V90.4993Z" fill="white"/>
<path d="M207.343 81.7014V104.527H203.651V102.404C203.015 103.184 202.226 103.768 201.282 104.158C200.36 104.547 199.334 104.742 198.206 104.742C196.627 104.742 195.202 104.394 193.93 103.696C192.679 102.999 191.695 102.015 190.977 100.743C190.259 99.4511 189.9 97.9745 189.9 96.3134C189.9 94.6522 190.259 93.1859 190.977 91.9144C191.695 90.6429 192.679 89.6585 193.93 88.9612C195.202 88.264 196.627 87.9153 198.206 87.9153C199.293 87.9153 200.288 88.0999 201.19 88.469C202.092 88.8382 202.861 89.3919 203.497 90.1302V81.7014H207.343ZM198.668 101.451C199.59 101.451 200.421 101.246 201.159 100.835C201.898 100.405 202.482 99.7997 202.913 99.0204C203.343 98.2411 203.559 97.3388 203.559 96.3134C203.559 95.288 203.343 94.3856 202.913 93.6063C202.482 92.827 201.898 92.2323 201.159 91.8221C200.421 91.3914 199.59 91.1761 198.668 91.1761C197.745 91.1761 196.914 91.3914 196.176 91.8221C195.438 92.2323 194.853 92.827 194.422 93.6063C193.992 94.3856 193.776 95.288 193.776 96.3134C193.776 97.3388 193.992 98.2411 194.422 99.0204C194.853 99.7997 195.438 100.405 196.176 100.835C196.914 101.246 197.745 101.451 198.668 101.451ZM212.373 88.0999H216.218V104.527H212.373V88.0999ZM214.311 85.3928C213.614 85.3928 213.029 85.1775 212.557 84.7468C212.086 84.2957 211.85 83.7419 211.85 83.0857C211.85 82.4294 212.086 81.886 212.557 81.4553C213.029 81.0041 213.614 80.7785 214.311 80.7785C215.008 80.7785 215.593 80.9939 216.064 81.4245C216.536 81.8347 216.772 82.3576 216.772 82.9934C216.772 83.6702 216.536 84.2444 216.064 84.7161C215.613 85.1672 215.029 85.3928 214.311 85.3928Z" fill="white"/>
<path d="M245.071 96.3004V102.884C245.071 103.337 244.908 103.726 244.583 104.051C244.266 104.368 243.881 104.527 243.427 104.527H226.974C226.521 104.527 226.136 104.364 225.819 104.04L222.533 100.754C222.208 100.436 222.045 100.051 222.045 99.5978V93.0143C222.045 92.561 222.208 92.172 222.533 91.8472L225.819 88.5611C226.136 88.2438 226.521 88.0852 226.974 88.0852H243.427C243.881 88.0852 244.266 88.2476 244.583 88.5724C244.908 88.8897 245.071 89.275 245.071 89.7282C245.071 90.1815 244.908 90.5705 244.583 90.8953C244.266 91.2126 243.881 91.3713 243.427 91.3713H227.666L225.331 93.6942V98.9065L227.666 101.241H241.784V97.9434H233.558C233.105 97.9434 232.716 97.7848 232.391 97.4675C232.074 97.1426 231.915 96.7536 231.915 96.3004C231.915 95.8471 232.074 95.4618 232.391 95.1446C232.716 94.8197 233.105 94.6573 233.558 94.6573H243.427C243.881 94.6573 244.266 94.8197 244.583 95.1446C244.908 95.4618 245.071 95.8471 245.071 96.3004Z" fill="url(#paint2_linear_29_2352)"/>
<path d="M250.595 88.0999H254.441V104.527H250.595V88.0999ZM252.533 85.3928C251.836 85.3928 251.252 85.1775 250.78 84.7468C250.308 84.2957 250.072 83.7419 250.072 83.0857C250.072 82.4294 250.308 81.886 250.78 81.4553C251.252 81.0041 251.836 80.7785 252.533 80.7785C253.231 80.7785 253.815 80.9939 254.287 81.4245C254.758 81.8347 254.994 82.3576 254.994 82.9934C254.994 83.6702 254.758 84.2444 254.287 84.7161C253.836 85.1672 253.251 85.3928 252.533 85.3928ZM269.362 103.635C268.911 104.004 268.357 104.281 267.701 104.465C267.065 104.65 266.388 104.742 265.671 104.742C263.866 104.742 262.471 104.271 261.487 103.327C260.503 102.384 260.01 101.01 260.01 99.205V91.2992H257.303V88.223H260.01V84.47H263.856V88.223H268.255V91.2992H263.856V99.1127C263.856 99.9125 264.05 100.528 264.44 100.958C264.83 101.369 265.394 101.574 266.132 101.574C266.993 101.574 267.711 101.348 268.285 100.897L269.362 103.635ZM278.801 87.9153C281.221 87.9153 283.066 88.4998 284.338 89.6688C285.63 90.8172 286.276 92.5604 286.276 94.8983V104.527H282.646V102.527C282.174 103.245 281.498 103.799 280.616 104.188C279.754 104.558 278.708 104.742 277.478 104.742C276.247 104.742 275.171 104.537 274.248 104.127C273.325 103.696 272.607 103.112 272.095 102.374C271.602 101.615 271.356 100.764 271.356 99.8203C271.356 98.3437 271.9 97.1645 272.987 96.2826C274.094 95.3803 275.827 94.9291 278.185 94.9291H282.431V94.683C282.431 93.5345 282.082 92.6527 281.385 92.0374C280.708 91.4222 279.693 91.1146 278.339 91.1146C277.416 91.1146 276.504 91.2581 275.601 91.5453C274.72 91.8324 273.971 92.2323 273.356 92.745L271.848 89.9456C272.71 89.2894 273.745 88.7869 274.955 88.4383C276.165 88.0896 277.447 87.9153 278.801 87.9153ZM278.278 101.943C279.242 101.943 280.093 101.728 280.831 101.297C281.59 100.846 282.123 100.21 282.431 99.3896V97.4823H278.462C276.247 97.4823 275.14 98.2104 275.14 99.6664C275.14 100.364 275.417 100.917 275.971 101.328C276.524 101.738 277.293 101.943 278.278 101.943ZM291.211 81.7014H295.056V104.527H291.211V81.7014Z" fill="white"/>
<path d="M23.9392 124.915C26.0106 124.915 27.6512 125.52 28.8612 126.73C30.0712 127.92 30.6761 129.714 30.6761 132.114V141.527H26.8309V132.606C26.8309 131.17 26.513 130.094 25.8773 129.376C25.2415 128.638 24.3289 128.268 23.1394 128.268C21.8474 128.268 20.8118 128.699 20.0325 129.56C19.2532 130.401 18.8635 131.611 18.8635 133.19V141.527H15.0182V132.606C15.0182 131.17 14.7004 130.094 14.0646 129.376C13.4289 128.638 12.5163 128.268 11.3268 128.268C10.0143 128.268 8.96836 128.689 8.18905 129.53C7.43026 130.37 7.05086 131.591 7.05086 133.19V141.527H3.2056V125.1H6.86628V127.192C7.48153 126.453 8.25058 125.889 9.17344 125.5C10.0963 125.11 11.1217 124.915 12.2496 124.915C13.4801 124.915 14.5671 125.151 15.5104 125.623C16.4743 126.074 17.2331 126.751 17.7868 127.653C18.4636 126.792 19.3352 126.125 20.4016 125.654C21.468 125.161 22.6472 124.915 23.9392 124.915ZM41.8654 124.915C44.2853 124.915 46.131 125.5 47.4025 126.669C48.6945 127.817 49.3406 129.56 49.3406 131.898V141.527H45.7106V139.527C45.2389 140.245 44.5622 140.799 43.6803 141.188C42.819 141.558 41.7731 141.742 40.5426 141.742C39.3121 141.742 38.2354 141.537 37.3126 141.127C36.3897 140.696 35.6719 140.112 35.1592 139.374C34.667 138.615 34.4209 137.764 34.4209 136.82C34.4209 135.344 34.9644 134.164 36.0513 133.283C37.1588 132.38 38.8917 131.929 41.2501 131.929H45.4953V131.683C45.4953 130.535 45.1467 129.653 44.4494 129.037C43.7726 128.422 42.7575 128.115 41.4039 128.115C40.4811 128.115 39.5685 128.258 38.6661 128.545C37.7843 128.832 37.0357 129.232 36.4205 129.745L34.9131 126.946C35.7745 126.289 36.8101 125.787 38.0201 125.438C39.2301 125.09 40.5118 124.915 41.8654 124.915ZM41.3424 138.943C42.3063 138.943 43.1574 138.728 43.8957 138.297C44.6545 137.846 45.1877 137.21 45.4953 136.39V134.482H41.527C39.3121 134.482 38.2047 135.21 38.2047 136.666C38.2047 137.364 38.4815 137.917 39.0353 138.328C39.589 138.738 40.358 138.943 41.3424 138.943ZM57.9362 127.499C59.0436 125.777 60.9919 124.915 63.7809 124.915V128.576C63.4528 128.514 63.1555 128.484 62.8888 128.484C61.3918 128.484 60.2228 128.925 59.382 129.807C58.5411 130.668 58.1207 131.919 58.1207 133.559V141.527H54.2755V125.1H57.9362V127.499ZM73.7491 134.482L70.8882 137.189V141.527H67.0429V118.701H70.8882V132.483L78.8556 125.1H83.4699L76.6099 131.991L84.1159 141.527H79.44L73.7491 134.482ZM101.351 133.406C101.351 133.672 101.331 134.052 101.29 134.544H88.4005C88.6261 135.754 89.2105 136.718 90.1539 137.435C91.1178 138.133 92.3073 138.481 93.7223 138.481C95.527 138.481 97.0138 137.887 98.1828 136.697L100.244 139.066C99.5056 139.948 98.5725 140.614 97.4445 141.065C96.3166 141.517 95.0451 141.742 93.63 141.742C91.8253 141.742 90.2359 141.383 88.8619 140.666C87.4879 139.948 86.4214 138.953 85.6626 137.682C84.9243 136.39 84.5552 134.934 84.5552 133.313C84.5552 131.714 84.9141 130.278 85.6319 129.007C86.3702 127.715 87.3853 126.71 88.6773 125.992C89.9693 125.274 91.4254 124.915 93.0455 124.915C94.6452 124.915 96.0705 125.274 97.3215 125.992C98.593 126.689 99.5774 127.684 100.275 128.976C100.992 130.247 101.351 131.724 101.351 133.406ZM93.0455 127.992C91.8151 127.992 90.7691 128.361 89.9078 129.099C89.067 129.817 88.5543 130.781 88.3697 131.991H97.6906C97.5266 130.801 97.0241 129.837 96.1833 129.099C95.3424 128.361 94.2965 127.992 93.0455 127.992ZM114.92 140.635C114.468 141.004 113.915 141.281 113.258 141.465C112.623 141.65 111.946 141.742 111.228 141.742C109.423 141.742 108.029 141.271 107.044 140.327C106.06 139.384 105.568 138.01 105.568 136.205V128.299H102.861V125.223H105.568V121.47H109.413V125.223H113.812V128.299H109.413V136.113C109.413 136.913 109.608 137.528 109.998 137.958C110.387 138.369 110.951 138.574 111.69 138.574C112.551 138.574 113.269 138.348 113.843 137.897L114.92 140.635ZM118.083 125.1H121.928V141.527H118.083V125.1ZM120.021 122.393C119.323 122.393 118.739 122.178 118.267 121.747C117.796 121.296 117.56 120.742 117.56 120.086C117.56 119.429 117.796 118.886 118.267 118.455C118.739 118.004 119.323 117.779 120.021 117.779C120.718 117.779 121.303 117.994 121.774 118.425C122.246 118.835 122.482 119.358 122.482 119.993C122.482 120.67 122.246 121.244 121.774 121.716C121.323 122.167 120.739 122.393 120.021 122.393ZM136.296 124.915C138.367 124.915 140.028 125.52 141.279 126.73C142.53 127.94 143.156 129.735 143.156 132.114V141.527H139.311V132.606C139.311 131.17 138.972 130.094 138.295 129.376C137.619 128.638 136.655 128.268 135.404 128.268C133.989 128.268 132.871 128.699 132.051 129.56C131.23 130.401 130.82 131.621 130.82 133.221V141.527H126.975V125.1H130.636V127.222C131.271 126.464 132.071 125.889 133.035 125.5C133.999 125.11 135.086 124.915 136.296 124.915ZM164.488 125.1V139.035C164.488 144.818 161.535 147.71 155.628 147.71C154.049 147.71 152.552 147.505 151.137 147.095C149.722 146.705 148.553 146.131 147.63 145.372L149.353 142.48C150.071 143.075 150.973 143.547 152.06 143.896C153.167 144.265 154.285 144.449 155.413 144.449C157.218 144.449 158.54 144.039 159.381 143.219C160.222 142.398 160.643 141.147 160.643 139.466V138.604C159.986 139.322 159.187 139.866 158.243 140.235C157.3 140.604 156.264 140.789 155.136 140.789C153.578 140.789 152.162 140.46 150.891 139.804C149.64 139.127 148.645 138.184 147.907 136.974C147.189 135.764 146.83 134.38 146.83 132.821C146.83 131.263 147.189 129.889 147.907 128.699C148.645 127.489 149.64 126.556 150.891 125.9C152.162 125.243 153.578 124.915 155.136 124.915C156.326 124.915 157.402 125.11 158.366 125.5C159.351 125.889 160.171 126.484 160.827 127.284V125.1H164.488ZM155.721 137.528C157.177 137.528 158.366 137.097 159.289 136.236C160.232 135.354 160.704 134.216 160.704 132.821C160.704 131.447 160.232 130.329 159.289 129.468C158.366 128.607 157.177 128.176 155.721 128.176C154.244 128.176 153.034 128.607 152.091 129.468C151.168 130.329 150.706 131.447 150.706 132.821C150.706 134.216 151.168 135.354 152.091 136.236C153.034 137.097 154.244 137.528 155.721 137.528Z" fill="white"/>
<defs>
<linearGradient id="paint0_linear_29_2352" x1="183.346" y1="29.0025" x2="199.731" y2="29.0025" gradientUnits="userSpaceOnUse">
<stop stop-color="white"/>
<stop offset="1" stop-color="#EF6600"/>
</linearGradient>
<linearGradient id="paint1_linear_29_2352" x1="61.9685" y1="66.0025" x2="78.354" y2="66.0025" gradientUnits="userSpaceOnUse">
<stop stop-color="white"/>
<stop offset="1" stop-color="#EF6600"/>
</linearGradient>
<linearGradient id="paint2_linear_29_2352" x1="231.017" y1="103.003" x2="247.402" y2="103.003" gradientUnits="userSpaceOnUse">
<stop stop-color="white"/>
<stop offset="1" stop-color="#EF6600"/>
</linearGradient>
</defs>
</svg>
