<svg width="298" height="149" viewBox="0 0 298 149" fill="none" xmlns="http://www.w3.org/2000/svg">
<rect width="297.113" height="147.852" transform="translate(0.683105 0.526855)" fill="#262626"/>
<path d="M7.94296 12.3772H0.806154V8.9934H19.0788V12.3772H11.942V30.5269H7.94296V12.3772ZM31.0318 13.9153C33.1031 13.9153 34.7643 14.5203 36.0153 15.7303C37.2663 16.9403 37.8918 18.7347 37.8918 21.1137V30.5269H34.0465V21.6059C34.0465 20.1703 33.7081 19.0936 33.0314 18.3758C32.3546 17.6375 31.3907 17.2684 30.1397 17.2684C28.7247 17.2684 27.607 17.6991 26.7867 18.5604C25.9663 19.4012 25.5562 20.6215 25.5562 22.2211V30.5269H21.7109V7.70139H25.5562V16.0072C26.1919 15.3304 26.9712 14.8177 27.8941 14.469C28.8375 14.0999 29.8834 13.9153 31.0318 13.9153ZM58.3625 22.4057C58.3625 22.6723 58.342 23.0517 58.301 23.5439H45.4117C45.6372 24.7538 46.2217 25.7177 47.1651 26.4355C48.129 27.1328 49.3184 27.4814 50.7335 27.4814C52.5382 27.4814 54.025 26.8867 55.194 25.6972L57.2551 28.0659C56.5168 28.9477 55.5837 29.6142 54.4557 30.0654C53.3278 30.5166 52.0563 30.7422 50.6412 30.7422C48.8365 30.7422 47.2471 30.3833 45.8731 29.6655C44.499 28.9477 43.4326 27.9531 42.6738 26.6816C41.9355 25.3896 41.5664 23.9335 41.5664 22.3134C41.5664 20.7138 41.9253 19.2782 42.6431 18.0067C43.3814 16.7147 44.3965 15.7098 45.6885 14.992C46.9805 14.2742 48.4366 13.9153 50.0567 13.9153C51.6564 13.9153 53.0817 14.2742 54.3327 14.992C55.6042 15.6893 56.5885 16.6839 57.2858 17.9759C58.0036 19.2474 58.3625 20.724 58.3625 22.4057ZM50.0567 16.9915C48.8262 16.9915 47.7803 17.3607 46.919 18.099C46.0782 18.8168 45.5655 19.7806 45.3809 20.9906H54.7018C54.5377 19.8011 54.0353 18.8373 53.1945 18.099C52.3536 17.3607 51.3077 16.9915 50.0567 16.9915ZM86.8616 14.0999V28.0351C86.8616 33.8184 83.9085 36.71 78.0022 36.71C76.423 36.71 74.926 36.505 73.5109 36.0948C72.0958 35.7051 70.9269 35.1309 70.004 34.3721L71.7267 31.4805C72.4445 32.0752 73.3468 32.5469 74.4338 32.8955C75.5412 33.2647 76.6589 33.4493 77.7868 33.4493C79.5915 33.4493 80.9143 33.0391 81.7551 32.2188C82.596 31.3984 83.0164 30.1475 83.0164 28.4658V27.6045C82.3601 28.3222 81.5603 28.8657 80.6169 29.2348C79.6736 29.604 78.6379 29.7886 77.51 29.7886C75.9514 29.7886 74.5363 29.4604 73.2648 28.8042C72.0138 28.1274 71.0192 27.184 70.2809 25.9741C69.5631 24.7641 69.2042 23.3798 69.2042 21.8212C69.2042 20.2626 69.5631 18.8885 70.2809 17.6991C71.0192 16.4891 72.0138 15.556 73.2648 14.8997C74.5363 14.2435 75.9514 13.9153 77.51 13.9153C78.6994 13.9153 79.7761 14.1102 80.74 14.4998C81.7244 14.8895 82.5447 15.4842 83.201 16.284V14.0999H86.8616ZM78.0944 26.5278C79.5505 26.5278 80.74 26.0971 81.6629 25.2358C82.6062 24.3539 83.0779 23.2157 83.0779 21.8212C83.0779 20.4471 82.6062 19.3295 81.6629 18.4681C80.74 17.6068 79.5505 17.1761 78.0944 17.1761C76.6179 17.1761 75.4079 17.6068 74.4645 18.4681C73.5417 19.3295 73.0802 20.4471 73.0802 21.8212C73.0802 23.2157 73.5417 24.3539 74.4645 25.2358C75.4079 26.0971 76.6179 26.5278 78.0944 26.5278ZM95.5776 16.4993C96.6851 14.7767 98.6334 13.9153 101.422 13.9153V17.576C101.094 17.5145 100.797 17.4837 100.53 17.4837C99.0333 17.4837 97.8643 17.9247 97.0235 18.8065C96.1826 19.6678 95.7622 20.9188 95.7622 22.5595V30.5269H91.917V14.0999H95.5776V16.4993ZM111.917 30.7422C110.256 30.7422 108.759 30.3833 107.426 29.6655C106.093 28.9477 105.047 27.9531 104.288 26.6816C103.55 25.3896 103.181 23.9335 103.181 22.3134C103.181 20.6932 103.55 19.2474 104.288 17.9759C105.047 16.7044 106.093 15.7098 107.426 14.992C108.759 14.2742 110.256 13.9153 111.917 13.9153C113.599 13.9153 115.106 14.2742 116.439 14.992C117.772 15.7098 118.808 16.7044 119.546 17.9759C120.305 19.2474 120.684 20.6932 120.684 22.3134C120.684 23.9335 120.305 25.3896 119.546 26.6816C118.808 27.9531 117.772 28.9477 116.439 29.6655C115.106 30.3833 113.599 30.7422 111.917 30.7422ZM111.917 27.4506C113.332 27.4506 114.501 26.979 115.424 26.0356C116.347 25.0922 116.808 23.8515 116.808 22.3134C116.808 20.7753 116.347 19.5345 115.424 18.5912C114.501 17.6478 113.332 17.1761 111.917 17.1761C110.502 17.1761 109.333 17.6478 108.41 18.5912C107.508 19.5345 107.057 20.7753 107.057 22.3134C107.057 23.8515 107.508 25.0922 108.41 26.0356C109.333 26.979 110.502 27.4506 111.917 27.4506ZM140.265 14.0999V30.5269H136.605V28.435C135.989 29.1733 135.22 29.7475 134.297 30.1577C133.375 30.5474 132.38 30.7422 131.314 30.7422C129.119 30.7422 127.386 30.1372 126.115 28.9272C124.864 27.6967 124.238 25.8818 124.238 23.4823V14.0999H128.084V22.9594C128.084 24.436 128.412 25.5434 129.068 26.2817C129.745 26.9995 130.698 27.3584 131.929 27.3584C133.303 27.3584 134.39 26.9379 135.19 26.0971C136.01 25.2358 136.42 24.0053 136.42 22.4057V14.0999H140.265ZM154.406 13.9153C156.005 13.9153 157.431 14.264 158.681 14.9612C159.953 15.6585 160.948 16.6429 161.665 17.9144C162.383 19.1859 162.742 20.6522 162.742 22.3134C162.742 23.9745 162.383 25.4511 161.665 26.7431C160.948 28.0146 159.953 28.999 158.681 29.6963C157.431 30.3936 156.005 30.7422 154.406 30.7422C152.191 30.7422 150.437 30.0039 149.145 28.5273V36.4947H145.3V14.0999H148.961V16.2532C149.596 15.4739 150.376 14.8895 151.299 14.4998C152.242 14.1102 153.278 13.9153 154.406 13.9153ZM153.975 27.4506C155.39 27.4506 156.549 26.979 157.451 26.0356C158.374 25.0922 158.835 23.8515 158.835 22.3134C158.835 20.7753 158.374 19.5345 157.451 18.5912C156.549 17.6478 155.39 17.1761 153.975 17.1761C153.052 17.1761 152.221 17.3914 151.483 17.8221C150.745 18.2323 150.16 18.827 149.73 19.6063C149.299 20.3856 149.084 21.288 149.084 22.3134C149.084 23.3388 149.299 24.2411 149.73 25.0204C150.16 25.7997 150.745 26.4047 151.483 26.8354C152.221 27.2456 153.052 27.4506 153.975 27.4506Z" fill="white"/>
<path d="M196.563 26.8081L196.329 26.5682L196.326 26.5709L196.563 26.8081ZM193.324 30.0467L193.087 29.8095L193.084 29.8123L193.324 30.0467ZM178.07 30.0467L178.309 29.8123L178.307 29.8095L178.07 30.0467ZM174.831 26.8081L175.068 26.5709L175.065 26.5682L174.831 26.8081ZM177.109 14.803L176.869 15.0374L176.875 15.0429L177.109 14.803ZM177.589 24.9878H177.254V25.1267L177.352 25.2249L177.589 24.9878ZM179.89 27.2883L179.653 27.5254L179.751 27.6236H179.89V27.2883ZM191.504 27.2883V27.6236H191.643L191.741 27.5254L191.504 27.2883ZM193.805 24.9878L194.042 25.2249L194.14 25.1267V24.9878H193.805ZM196.563 14.803L196.323 15.0374L196.329 15.0429L196.563 14.803ZM196.708 25.669C196.708 26.0252 196.584 26.3185 196.329 26.5682L196.797 27.048C197.182 26.6723 197.378 26.2062 197.378 25.669H196.708ZM196.326 26.5709L193.087 29.8095L193.561 30.2838L196.8 27.0452L196.326 26.5709ZM193.084 29.8123C192.836 30.0668 192.539 30.1915 192.174 30.1915V30.8622C192.717 30.8622 193.187 30.6668 193.564 30.281L193.084 29.8123ZM192.174 30.1915H179.209V30.8622H192.174V30.1915ZM179.209 30.1915C178.852 30.1915 178.559 30.068 178.309 29.8123L177.83 30.281C178.205 30.6656 178.671 30.8622 179.209 30.8622V30.1915ZM178.307 29.8095L175.068 26.5709L174.594 27.0452L177.832 30.2838L178.307 29.8095ZM175.065 26.5682C174.81 26.3185 174.686 26.0252 174.686 25.669H174.015C174.015 26.2062 174.212 26.6723 174.597 27.048L175.065 26.5682ZM174.686 25.669V15.9421H174.015V25.669H174.686ZM174.686 15.9421C174.686 15.5833 174.808 15.2892 175.057 15.0401L174.583 14.5659C174.206 14.9422 174.015 15.4074 174.015 15.9421H174.686ZM175.057 15.0401C175.315 14.7819 175.614 14.6581 175.97 14.6581V13.9874C175.433 13.9874 174.965 14.1838 174.583 14.5659L175.057 15.0401ZM175.97 14.6581C176.326 14.6581 176.619 14.7816 176.869 15.0373L177.349 14.5687C176.973 14.1841 176.507 13.9874 175.97 13.9874V14.6581ZM176.875 15.0429C177.13 15.2926 177.254 15.5859 177.254 15.9421H177.925C177.925 15.4049 177.728 14.9387 177.343 14.5631L176.875 15.0429ZM177.254 15.9421V24.9878H177.925V15.9421H177.254ZM177.352 25.2249L179.653 27.5254L180.127 27.0511L177.826 24.7506L177.352 25.2249ZM179.89 27.6236H191.504V26.9529H179.89V27.6236ZM191.741 27.5254L194.042 25.2249L193.567 24.7506L191.267 27.0511L191.741 27.5254ZM194.14 24.9878V15.9421H193.469V24.9878H194.14ZM194.14 15.9421C194.14 15.5833 194.262 15.2892 194.511 15.0401L194.036 14.5659C193.66 14.9422 193.469 15.4074 193.469 15.9421H194.14ZM194.511 15.0401C194.769 14.7819 195.067 14.6581 195.424 14.6581V13.9874C194.887 13.9874 194.419 14.1838 194.036 14.5659L194.511 15.0401ZM195.424 14.6581C195.78 14.6581 196.073 14.7816 196.323 15.0373L196.803 14.5687C196.427 14.1841 195.961 13.9874 195.424 13.9874V14.6581ZM196.329 15.0429C196.584 15.2926 196.708 15.5859 196.708 15.9421H197.378C197.378 15.4049 197.182 14.9387 196.797 14.5631L196.329 15.0429ZM196.708 15.9421V25.669H197.378V15.9421H196.708Z" fill="white"/>
<path d="M211.246 13.9153C213.317 13.9153 214.978 14.5203 216.229 15.7303C217.48 16.9403 218.106 18.7347 218.106 21.1137V30.5269H214.26V21.6059C214.26 20.1703 213.922 19.0936 213.245 18.3758C212.569 17.6375 211.605 17.2684 210.354 17.2684C208.939 17.2684 207.821 17.6991 207.001 18.5604C206.18 19.4012 205.77 20.6215 205.77 22.2211V30.5269H201.925V14.0999H205.586V16.2225C206.221 15.4637 207.021 14.8895 207.985 14.4998C208.949 14.1102 210.036 13.9153 211.246 13.9153ZM222.984 14.0999H226.829V30.5269H222.984V14.0999ZM224.922 11.3928C224.224 11.3928 223.64 11.1775 223.168 10.7468C222.697 10.2957 222.461 9.74194 222.461 9.08568C222.461 8.42942 222.697 7.88596 223.168 7.45529C223.64 7.00412 224.224 6.77853 224.922 6.77853C225.619 6.77853 226.203 6.99386 226.675 7.42453C227.147 7.83469 227.383 8.35765 227.383 8.9934C227.383 9.67016 227.147 10.2444 226.675 10.7161C226.224 11.1672 225.639 11.3928 224.922 11.3928ZM241.75 29.6348C241.299 30.0039 240.746 30.2808 240.089 30.4653C239.454 30.6499 238.777 30.7422 238.059 30.7422C236.254 30.7422 234.86 30.2705 233.875 29.3271C232.891 28.3838 232.399 27.0097 232.399 25.205V17.2992H229.692V14.223H232.399V10.47H236.244V14.223H240.643V17.2992H236.244V25.1127C236.244 25.9125 236.439 26.5278 236.829 26.9585C237.218 27.3686 237.782 27.5737 238.52 27.5737C239.382 27.5737 240.1 27.3481 240.674 26.8969L241.75 29.6348ZM244.914 14.0999H248.759V30.5269H244.914V14.0999ZM246.852 11.3928C246.154 11.3928 245.57 11.1775 245.098 10.7468C244.627 10.2957 244.391 9.74194 244.391 9.08568C244.391 8.42942 244.627 7.88596 245.098 7.45529C245.57 7.00412 246.154 6.77853 246.852 6.77853C247.549 6.77853 248.133 6.99386 248.605 7.42453C249.077 7.83469 249.313 8.35765 249.313 8.9934C249.313 9.67016 249.077 10.2444 248.605 10.7161C248.154 11.1672 247.569 11.3928 246.852 11.3928ZM263.127 13.9153C265.198 13.9153 266.859 14.5203 268.11 15.7303C269.361 16.9403 269.987 18.7347 269.987 21.1137V30.5269H266.141V21.6059C266.141 20.1703 265.803 19.0936 265.126 18.3758C264.449 17.6375 263.486 17.2684 262.235 17.2684C260.82 17.2684 259.702 17.6991 258.882 18.5604C258.061 19.4012 257.651 20.6215 257.651 22.2211V30.5269H253.806V14.0999H257.466V16.2225C258.102 15.4637 258.902 14.8895 259.866 14.4998C260.83 14.1102 261.917 13.9153 263.127 13.9153ZM291.319 14.0999V28.0351C291.319 33.8184 288.366 36.71 282.459 36.71C280.88 36.71 279.383 36.505 277.968 36.0948C276.553 35.7051 275.384 35.1309 274.461 34.3721L276.184 31.4805C276.902 32.0752 277.804 32.5469 278.891 32.8955C279.998 33.2647 281.116 33.4493 282.244 33.4493C284.049 33.4493 285.371 33.0391 286.212 32.2188C287.053 31.3984 287.473 30.1475 287.473 28.4658V27.6045C286.817 28.3222 286.017 28.8657 285.074 29.2348C284.131 29.604 283.095 29.7886 281.967 29.7886C280.408 29.7886 278.993 29.4604 277.722 28.8042C276.471 28.1274 275.476 27.184 274.738 25.9741C274.02 24.7641 273.661 23.3798 273.661 21.8212C273.661 20.2626 274.02 18.8885 274.738 17.6991C275.476 16.4891 276.471 15.556 277.722 14.8997C278.993 14.2435 280.408 13.9153 281.967 13.9153C283.157 13.9153 284.233 14.1102 285.197 14.4998C286.181 14.8895 287.002 15.4842 287.658 16.284V14.0999H291.319ZM282.552 26.5278C284.008 26.5278 285.197 26.0971 286.12 25.2358C287.063 24.3539 287.535 23.2157 287.535 21.8212C287.535 20.4471 287.063 19.3295 286.12 18.4681C285.197 17.6068 284.008 17.1761 282.552 17.1761C281.075 17.1761 279.865 17.6068 278.922 18.4681C277.999 19.3295 277.537 20.4471 277.537 21.8212C277.537 23.2157 277.999 24.3539 278.922 25.2358C279.865 26.0971 281.075 26.5278 282.552 26.5278Z" fill="white"/>
<path d="M13.0802 66.6348C12.629 67.0039 12.0753 67.2808 11.4191 67.4653C10.7833 67.6499 10.1066 67.7422 9.38878 67.7422C7.58407 67.7422 6.18952 67.2705 5.20513 66.3271C4.22075 65.3838 3.72855 64.0097 3.72855 62.205V54.2992H1.02149V51.223H3.72855V47.47H7.57381V51.223H11.9728V54.2992H7.57381V62.1127C7.57381 62.9125 7.76864 63.5278 8.15829 63.9585C8.54795 64.3686 9.11192 64.5737 9.85021 64.5737C10.7115 64.5737 11.4293 64.3481 12.0036 63.8969L13.0802 66.6348ZM31.1453 59.4057C31.1453 59.6723 31.1248 60.0517 31.0837 60.5439H18.1944C18.42 61.7538 19.0045 62.7177 19.9479 63.4355C20.9117 64.1328 22.1012 64.4814 23.5163 64.4814C25.321 64.4814 26.8078 63.8867 27.9768 62.6972L30.0378 65.0659C29.2995 65.9477 28.3664 66.6142 27.2385 67.0654C26.1105 67.5166 24.839 67.7422 23.424 67.7422C21.6193 67.7422 20.0299 67.3833 18.6559 66.6655C17.2818 65.9477 16.2154 64.9531 15.4566 63.6816C14.7183 62.3896 14.3492 60.9335 14.3492 59.3134C14.3492 57.7138 14.7081 56.2782 15.4258 55.0067C16.1641 53.7147 17.1793 52.7098 18.4713 51.992C19.7633 51.2742 21.2194 50.9153 22.8395 50.9153C24.4391 50.9153 25.8644 51.2742 27.1154 51.992C28.3869 52.6893 29.3713 53.6839 30.0686 54.9759C30.7864 56.2474 31.1453 57.724 31.1453 59.4057ZM22.8395 53.9915C21.609 53.9915 20.5631 54.3607 19.7018 55.099C18.8609 55.8168 18.3482 56.7806 18.1637 57.9906H27.4846C27.3205 56.8011 26.8181 55.8373 25.9772 55.099C25.1364 54.3607 24.0905 53.9915 22.8395 53.9915ZM42.3756 67.7422C40.6734 67.7422 39.1456 67.3833 37.792 66.6655C36.4385 65.9477 35.3823 64.9531 34.6235 63.6816C33.8647 62.3896 33.4853 60.9335 33.4853 59.3134C33.4853 57.6932 33.8647 56.2474 34.6235 54.9759C35.3823 53.7044 36.4282 52.7098 37.7613 51.992C39.1148 51.2742 40.6529 50.9153 42.3756 50.9153C43.9957 50.9153 45.4108 51.2435 46.6207 51.8997C47.8512 52.556 48.7741 53.4993 49.3893 54.7298L46.4362 56.4525C45.9645 55.6937 45.3698 55.1297 44.652 54.7606C43.9547 54.3709 43.1856 54.1761 42.3448 54.1761C40.9093 54.1761 39.7198 54.6478 38.7764 55.5912C37.833 56.514 37.3614 57.7548 37.3614 59.3134C37.3614 60.872 37.8228 62.123 38.7457 63.0664C39.689 63.9892 40.8887 64.4506 42.3448 64.4506C43.1856 64.4506 43.9547 64.2661 44.652 63.8969C45.3698 63.5073 45.9645 62.9331 46.4362 62.1743L49.3893 63.8969C48.7536 65.1274 47.8205 66.081 46.59 66.7578C45.38 67.4141 43.9752 67.7422 42.3756 67.7422Z" fill="white"/>
<path d="M75.6545 52.9309H75.9899L75.9898 52.9254L75.6545 52.9309ZM75.1743 67.0467L74.9372 66.8095L74.9344 66.8123L75.1743 67.0467ZM72.885 67.0467L72.6451 67.281L72.6479 67.2838L72.885 67.0467ZM72.4159 61.0385H72.7513V60.7032H72.4159V61.0385ZM56.2119 61.0385V60.7032H55.8765V61.0385H56.2119ZM55.7317 67.0467L55.4945 66.8095L55.4918 66.8123L55.7317 67.0467ZM53.4423 67.0467L53.2024 67.281L53.2052 67.2838L53.4423 67.0467ZM55.7317 51.7918L55.4917 52.0262L55.4973 52.0317L55.7317 51.7918ZM56.2119 57.7999H55.8765V58.1353H56.2119V57.7999ZM72.4159 57.7999V58.1353H72.7513V57.7999H72.4159ZM75.3192 52.9309V65.8964H75.9899V52.9309H75.3192ZM75.3192 65.8964C75.3192 66.2528 75.1954 66.5513 74.9372 66.8095L75.4115 67.2838C75.7935 66.9017 75.9899 66.4334 75.9899 65.8964H75.3192ZM74.9344 66.8123C74.6847 67.068 74.3914 67.1915 74.0352 67.1915V67.8622C74.5724 67.8622 75.0386 67.6656 75.4142 67.281L74.9344 66.8123ZM74.0352 67.1915C73.6788 67.1915 73.3803 67.0677 73.1221 66.8095L72.6479 67.2838C73.0299 67.6659 73.4983 67.8622 74.0352 67.8622V67.1915ZM73.1249 66.8123C72.8733 66.5547 72.7513 66.2553 72.7513 65.8964H72.0806C72.0806 66.4309 72.2713 66.8983 72.6451 67.281L73.1249 66.8123ZM72.7513 65.8964V61.0385H72.0806V65.8964H72.7513ZM72.4159 60.7032H56.2119V61.3739H72.4159V60.7032ZM55.8765 61.0385V65.8964H56.5472V61.0385H55.8765ZM55.8765 65.8964C55.8765 66.2528 55.7527 66.5513 55.4945 66.8095L55.9688 67.2838C56.3509 66.9017 56.5472 66.4334 56.5472 65.8964H55.8765ZM55.4918 66.8123C55.2421 67.068 54.9488 67.1915 54.5926 67.1915V67.8622C55.1298 67.8622 55.5959 67.6656 55.9716 67.281L55.4918 66.8123ZM54.5926 67.1915C54.2362 67.1915 53.9377 67.0677 53.6795 66.8095L53.2052 67.2838C53.5873 67.6659 54.0556 67.8622 54.5926 67.8622V67.1915ZM53.6822 66.8123C53.4306 66.5547 53.3086 66.2553 53.3086 65.8964H52.6379C52.6379 66.4309 52.8287 66.8983 53.2024 67.281L53.6822 66.8123ZM53.3086 65.8964V52.9309H52.6379V65.8964H53.3086ZM53.3086 52.9309C53.3086 52.5721 53.4304 52.278 53.6795 52.029L53.2052 51.5547C52.8289 51.931 52.6379 52.3963 52.6379 52.9309H53.3086ZM53.6795 52.029C53.9377 51.7708 54.2362 51.647 54.5926 51.647V50.9763C54.0556 50.9763 53.5873 51.1726 53.2052 51.5547L53.6795 52.029ZM54.5926 51.647C54.9488 51.647 55.2421 51.7705 55.4918 52.0261L55.9716 51.5575C55.5959 51.1729 55.1298 50.9763 54.5926 50.9763V51.647ZM55.4973 52.0317C55.753 52.2814 55.8765 52.5747 55.8765 52.9309H56.5472C56.5472 52.3937 56.3506 51.9276 55.966 51.5519L55.4973 52.0317ZM55.8765 52.9309V57.7999H56.5472V52.9309H55.8765ZM56.2119 58.1353H72.4159V57.4646H56.2119V58.1353ZM72.7513 57.7999V52.9309H72.0806V57.7999H72.7513ZM72.7513 52.9309C72.7513 52.5721 72.873 52.278 73.1221 52.029L72.6479 51.5547C72.2716 51.931 72.0806 52.3963 72.0806 52.9309H72.7513ZM73.1221 52.029C73.3803 51.7708 73.6788 51.647 74.0352 51.647V50.9763C73.4983 50.9763 73.0299 51.1726 72.6479 51.5547L73.1221 52.029ZM74.0352 51.647C74.394 51.647 74.6881 51.7687 74.9372 52.0178L75.4115 51.5435C75.0352 51.1672 74.5699 50.9763 74.0352 50.9763V51.647ZM74.9372 52.0178C75.1865 52.2671 75.3132 52.5667 75.3192 52.9364L75.9898 52.9254C75.981 52.3869 75.7875 51.9196 75.4115 51.5435L74.9372 52.0178Z" fill="white"/>
<path d="M89.8678 50.9153C91.9391 50.9153 93.6003 51.5203 94.8513 52.7303C96.1023 53.9403 96.7278 55.7347 96.7278 58.1137V67.5269H92.8825V58.6059C92.8825 57.1703 92.5441 56.0936 91.8674 55.3758C91.1906 54.6375 90.2267 54.2684 88.9757 54.2684C87.5607 54.2684 86.443 54.6991 85.6226 55.5604C84.8023 56.4012 84.3922 57.6215 84.3922 59.2211V67.5269H80.5469V51.0999H84.2076V53.2225C84.8433 52.4637 85.6432 51.8895 86.607 51.4998C87.5709 51.1102 88.6578 50.9153 89.8678 50.9153ZM109.139 67.7422C107.478 67.7422 105.981 67.3833 104.648 66.6655C103.315 65.9477 102.269 64.9531 101.51 63.6816C100.772 62.3896 100.402 60.9335 100.402 59.3134C100.402 57.6932 100.772 56.2474 101.51 54.9759C102.269 53.7044 103.315 52.7098 104.648 51.992C105.981 51.2742 107.478 50.9153 109.139 50.9153C110.82 50.9153 112.328 51.2742 113.661 51.992C114.994 52.7098 116.03 53.7044 116.768 54.9759C117.527 56.2474 117.906 57.6932 117.906 59.3134C117.906 60.9335 117.527 62.3896 116.768 63.6816C116.03 64.9531 114.994 65.9477 113.661 66.6655C112.328 67.3833 110.82 67.7422 109.139 67.7422ZM109.139 64.4506C110.554 64.4506 111.723 63.979 112.646 63.0356C113.569 62.0922 114.03 60.8515 114.03 59.3134C114.03 57.7753 113.569 56.5345 112.646 55.5912C111.723 54.6478 110.554 54.1761 109.139 54.1761C107.724 54.1761 106.555 54.6478 105.632 55.5912C104.73 56.5345 104.278 57.7753 104.278 59.3134C104.278 60.8515 104.73 62.0922 105.632 63.0356C106.555 63.979 107.724 64.4506 109.139 64.4506ZM121.583 44.7014H125.428V67.5269H121.583V44.7014ZM137.858 67.7422C136.197 67.7422 134.7 67.3833 133.367 66.6655C132.034 65.9477 130.988 64.9531 130.229 63.6816C129.491 62.3896 129.122 60.9335 129.122 59.3134C129.122 57.6932 129.491 56.2474 130.229 54.9759C130.988 53.7044 132.034 52.7098 133.367 51.992C134.7 51.2742 136.197 50.9153 137.858 50.9153C139.54 50.9153 141.047 51.2742 142.38 51.992C143.713 52.7098 144.749 53.7044 145.487 54.9759C146.246 56.2474 146.625 57.6932 146.625 59.3134C146.625 60.9335 146.246 62.3896 145.487 63.6816C144.749 64.9531 143.713 65.9477 142.38 66.6655C141.047 67.3833 139.54 67.7422 137.858 67.7422ZM137.858 64.4506C139.273 64.4506 140.442 63.979 141.365 63.0356C142.288 62.0922 142.749 60.8515 142.749 59.3134C142.749 57.7753 142.288 56.5345 141.365 55.5912C140.442 54.6478 139.273 54.1761 137.858 54.1761C136.443 54.1761 135.274 54.6478 134.351 55.5912C133.449 56.5345 132.998 57.7753 132.998 59.3134C132.998 60.8515 133.449 62.0922 134.351 63.0356C135.274 63.979 136.443 64.4506 137.858 64.4506ZM166.606 51.0999V65.0351C166.606 70.8184 163.653 73.71 157.747 73.71C156.168 73.71 154.671 73.505 153.255 73.0948C151.84 72.7051 150.671 72.1309 149.749 71.3721L151.471 68.4805C152.189 69.0752 153.091 69.5469 154.178 69.8955C155.286 70.2647 156.403 70.4493 157.531 70.4493C159.336 70.4493 160.659 70.0391 161.5 69.2188C162.341 68.3984 162.761 67.1475 162.761 65.4658V64.6045C162.105 65.3222 161.305 65.8657 160.362 66.2348C159.418 66.604 158.383 66.7886 157.255 66.7886C155.696 66.7886 154.281 66.4604 153.009 65.8042C151.758 65.1274 150.764 64.184 150.025 62.9741C149.308 61.7641 148.949 60.3798 148.949 58.8212C148.949 57.2626 149.308 55.8885 150.025 54.6991C150.764 53.4891 151.758 52.556 153.009 51.8997C154.281 51.2435 155.696 50.9153 157.255 50.9153C158.444 50.9153 159.521 51.1102 160.485 51.4998C161.469 51.8895 162.289 52.4842 162.946 53.284V51.0999H166.606ZM157.839 63.5278C159.295 63.5278 160.485 63.0971 161.407 62.2358C162.351 61.3539 162.822 60.2157 162.822 58.8212C162.822 57.4471 162.351 56.3295 161.407 55.4681C160.485 54.6068 159.295 54.1761 157.839 54.1761C156.362 54.1761 155.152 54.6068 154.209 55.4681C153.286 56.3295 152.825 57.4471 152.825 58.8212C152.825 60.2157 153.286 61.3539 154.209 62.2358C155.152 63.0971 156.362 63.5278 157.839 63.5278ZM171.662 51.0999H175.507V67.5269H171.662V51.0999ZM173.6 48.3928C172.902 48.3928 172.318 48.1775 171.846 47.7468C171.374 47.2957 171.139 46.7419 171.139 46.0857C171.139 45.4294 171.374 44.886 171.846 44.4553C172.318 44.0041 172.902 43.7785 173.6 43.7785C174.297 43.7785 174.881 43.9939 175.353 44.4245C175.825 44.8347 176.061 45.3576 176.061 45.9934C176.061 46.6702 175.825 47.2444 175.353 47.7161C174.902 48.1672 174.317 48.3928 173.6 48.3928ZM195.996 59.4057C195.996 59.6723 195.976 60.0517 195.935 60.5439H183.045C183.271 61.7538 183.856 62.7177 184.799 63.4355C185.763 64.1328 186.952 64.4814 188.367 64.4814C190.172 64.4814 191.659 63.8867 192.828 62.6972L194.889 65.0659C194.151 65.9477 193.217 66.6142 192.089 67.0654C190.962 67.5166 189.69 67.7422 188.275 67.7422C186.47 67.7422 184.881 67.3833 183.507 66.6655C182.133 65.9477 181.066 64.9531 180.308 63.6816C179.569 62.3896 179.2 60.9335 179.2 59.3134C179.2 57.7138 179.559 56.2782 180.277 55.0067C181.015 53.7147 182.03 52.7098 183.322 51.992C184.614 51.2742 186.07 50.9153 187.691 50.9153C189.29 50.9153 190.715 51.2742 191.966 51.992C193.238 52.6893 194.222 53.6839 194.92 54.9759C195.637 56.2474 195.996 57.724 195.996 59.4057ZM187.691 53.9915C186.46 53.9915 185.414 54.3607 184.553 55.099C183.712 55.8168 183.199 56.7806 183.015 57.9906H192.336C192.172 56.8011 191.669 55.8373 190.828 55.099C189.987 54.3607 188.942 53.9915 187.691 53.9915ZM204.766 67.7422C203.433 67.7422 202.13 67.5679 200.859 67.2192C199.587 66.8706 198.572 66.4297 197.813 65.8965L199.29 62.9741C200.028 63.4663 200.91 63.8662 201.936 64.1738C202.981 64.4609 204.007 64.6045 205.012 64.6045C207.309 64.6045 208.457 63.9995 208.457 62.7895C208.457 62.2153 208.16 61.8154 207.565 61.5898C206.991 61.3642 206.058 61.1488 204.766 60.9438C203.412 60.7387 202.305 60.5028 201.443 60.2362C200.603 59.9696 199.864 59.5082 199.228 58.8519C198.613 58.1752 198.306 57.2421 198.306 56.0526C198.306 54.494 198.952 53.2532 200.244 52.3304C201.556 51.387 203.32 50.9153 205.535 50.9153C206.663 50.9153 207.791 51.0486 208.919 51.3152C210.046 51.5613 210.969 51.8997 211.687 52.3304L210.211 55.2528C208.816 54.4325 207.247 54.0223 205.504 54.0223C204.376 54.0223 203.515 54.1966 202.92 54.5453C202.346 54.8734 202.059 55.3143 202.059 55.868C202.059 56.4833 202.366 56.9242 202.981 57.1908C203.617 57.4369 204.591 57.6727 205.904 57.8983C207.216 58.1034 208.293 58.3392 209.134 58.6059C209.975 58.8725 210.692 59.3236 211.287 59.9594C211.902 60.5951 212.21 61.4975 212.21 62.6664C212.21 64.2046 211.544 65.435 210.211 66.3579C208.878 67.2808 207.063 67.7422 204.766 67.7422Z" fill="white"/>
<path d="M229.871 50.9153C232.291 50.9153 234.137 51.4998 235.408 52.6688C236.7 53.8172 237.346 55.5604 237.346 57.8983V67.5269H233.716V65.5273C233.245 66.2451 232.568 66.7988 231.686 67.1885C230.825 67.5576 229.779 67.7422 228.548 67.7422C227.318 67.7422 226.241 67.5371 225.318 67.1269C224.396 66.6963 223.678 66.1118 223.165 65.3735C222.673 64.6147 222.427 63.7636 222.427 62.8203C222.427 61.3437 222.97 60.1645 224.057 59.2826C225.165 58.3803 226.898 57.9291 229.256 57.9291H233.501V57.683C233.501 56.5345 233.152 55.6527 232.455 55.0374C231.778 54.4222 230.763 54.1146 229.41 54.1146C228.487 54.1146 227.574 54.2581 226.672 54.5453C225.79 54.8324 225.042 55.2323 224.426 55.745L222.919 52.9456C223.78 52.2894 224.816 51.7869 226.026 51.4383C227.236 51.0896 228.518 50.9153 229.871 50.9153ZM229.348 64.9428C230.312 64.9428 231.163 64.7275 231.901 64.2968C232.66 63.8457 233.194 63.2099 233.501 62.3896V60.4823H229.533C227.318 60.4823 226.211 61.2104 226.211 62.6664C226.211 63.3637 226.487 63.9174 227.041 64.3276C227.595 64.7378 228.364 64.9428 229.348 64.9428ZM251.602 50.9153C253.674 50.9153 255.335 51.5203 256.586 52.7303C257.837 53.9403 258.462 55.7347 258.462 58.1137V67.5269H254.617V58.6059C254.617 57.1703 254.279 56.0936 253.602 55.3758C252.925 54.6375 251.961 54.2684 250.71 54.2684C249.295 54.2684 248.177 54.6991 247.357 55.5604C246.537 56.4012 246.127 57.6215 246.127 59.2211V67.5269H242.281V51.0999H245.942V53.2225C246.578 52.4637 247.378 51.8895 248.341 51.4998C249.305 51.1102 250.392 50.9153 251.602 50.9153ZM279.579 44.7014V67.5269H275.887V65.4043C275.252 66.1836 274.462 66.7681 273.519 67.1577C272.596 67.5474 271.57 67.7422 270.443 67.7422C268.863 67.7422 267.438 67.3936 266.167 66.6963C264.916 65.999 263.931 65.0146 263.213 63.7431C262.496 62.4511 262.137 60.9745 262.137 59.3134C262.137 57.6522 262.496 56.1859 263.213 54.9144C263.931 53.6429 264.916 52.6585 266.167 51.9612C267.438 51.264 268.863 50.9153 270.443 50.9153C271.529 50.9153 272.524 51.0999 273.426 51.469C274.329 51.8382 275.098 52.3919 275.734 53.1302V44.7014H279.579ZM270.904 64.4506C271.827 64.4506 272.657 64.2456 273.396 63.8354C274.134 63.4047 274.718 62.7997 275.149 62.0204C275.58 61.2411 275.795 60.3388 275.795 59.3134C275.795 58.288 275.58 57.3856 275.149 56.6063C274.718 55.827 274.134 55.2323 273.396 54.8221C272.657 54.3914 271.827 54.1761 270.904 54.1761C269.981 54.1761 269.151 54.3914 268.412 54.8221C267.674 55.2323 267.089 55.827 266.659 56.6063C266.228 57.3856 266.013 58.288 266.013 59.3134C266.013 60.3388 266.228 61.2411 266.659 62.0204C267.089 62.7997 267.674 63.4047 268.412 63.8354C269.151 64.2456 269.981 64.4506 270.904 64.4506Z" fill="white"/>
<path d="M8.28134 104.742C6.94832 104.742 5.64606 104.568 4.37456 104.219C3.10306 103.871 2.08791 103.43 1.32911 102.896L2.80569 99.9741C3.54398 100.466 4.42583 100.866 5.45123 101.174C6.49714 101.461 7.52254 101.604 8.52744 101.604C10.8243 101.604 11.9728 100.999 11.9728 99.7895C11.9728 99.2153 11.6754 98.8154 11.0807 98.5898C10.5065 98.3642 9.57335 98.1488 8.28134 97.9438C6.92781 97.7387 5.82037 97.5028 4.95904 97.2362C4.1182 96.9696 3.37991 96.5082 2.74417 95.8519C2.12892 95.1752 1.8213 94.2421 1.8213 93.0526C1.8213 91.494 2.46731 90.2532 3.75931 89.3304C5.07183 88.387 6.83552 87.9153 9.05039 87.9153C10.1783 87.9153 11.3063 88.0486 12.4342 88.3152C13.5622 88.5613 14.485 88.8997 15.2028 89.3304L13.7262 92.2528C12.3317 91.4325 10.7628 91.0223 9.01963 91.0223C7.89169 91.0223 7.03035 91.1966 6.43562 91.5453C5.86139 91.8734 5.57428 92.3143 5.57428 92.868C5.57428 93.4833 5.8819 93.9242 6.49714 94.1908C7.13289 94.4369 8.10702 94.6727 9.41954 94.8983C10.7321 95.1034 11.8087 95.3392 12.6496 95.6059C13.4904 95.8725 14.2082 96.3236 14.8029 96.9594C15.4181 97.5951 15.7258 98.4975 15.7258 99.6664C15.7258 101.205 15.0593 102.435 13.7262 103.358C12.3932 104.281 10.5782 104.742 8.28134 104.742ZM34.4798 96.4057C34.4798 96.6723 34.4593 97.0517 34.4183 97.5439H21.529C21.7546 98.7538 22.3391 99.7177 23.2824 100.435C24.2463 101.133 25.4358 101.481 26.8508 101.481C28.6555 101.481 30.1424 100.887 31.3113 99.6972L33.3724 102.066C32.6341 102.948 31.701 103.614 30.573 104.065C29.4451 104.517 28.1736 104.742 26.7585 104.742C24.9538 104.742 23.3645 104.383 21.9904 103.666C20.6164 102.948 19.55 101.953 18.7912 100.682C18.0529 99.3896 17.6837 97.9335 17.6837 96.3134C17.6837 94.7138 18.0426 93.2782 18.7604 92.0067C19.4987 90.7147 20.5138 89.7098 21.8058 88.992C23.0978 88.2742 24.5539 87.9153 26.1741 87.9153C27.7737 87.9153 29.199 88.2742 30.45 88.992C31.7215 89.6893 32.7059 90.6839 33.4031 91.9759C34.1209 93.2474 34.4798 94.724 34.4798 96.4057ZM26.1741 90.9915C24.9436 90.9915 23.8977 91.3607 23.0363 92.099C22.1955 92.8168 21.6828 93.7806 21.4982 94.9906H30.8191C30.6551 93.8011 30.1526 92.8373 29.3118 92.099C28.471 91.3607 27.4251 90.9915 26.1741 90.9915ZM41.8341 90.4993C42.9416 88.7767 44.8898 87.9153 47.6789 87.9153V91.576C47.3508 91.5145 47.0534 91.4837 46.7868 91.4837C45.2897 91.4837 44.1208 91.9247 43.2799 92.8065C42.4391 93.6678 42.0187 94.9188 42.0187 96.5595V104.527H38.1734V88.0999H41.8341V90.4993ZM66.9228 88.0999L59.8782 104.527H55.9099L48.8654 88.0999H52.8645L57.971 100.282L63.2313 88.0999H66.9228ZM69.326 88.0999H73.1713V104.527H69.326V88.0999ZM71.2641 85.3928C70.5668 85.3928 69.9823 85.1775 69.5106 84.7468C69.0389 84.2957 68.8031 83.7419 68.8031 83.0857C68.8031 82.4294 69.0389 81.886 69.5106 81.4553C69.9823 81.0041 70.5668 80.7785 71.2641 80.7785C71.9613 80.7785 72.5458 80.9939 73.0175 81.4245C73.4892 81.8347 73.725 82.3576 73.725 82.9934C73.725 83.6702 73.4892 84.2444 73.0175 84.7161C72.5663 85.1672 71.9818 85.3928 71.2641 85.3928ZM85.7549 104.742C84.0528 104.742 82.5249 104.383 81.1714 103.666C79.8178 102.948 78.7617 101.953 78.0029 100.682C77.2441 99.3896 76.8647 97.9335 76.8647 96.3134C76.8647 94.6932 77.2441 93.2474 78.0029 91.9759C78.7617 90.7044 79.8076 89.7098 81.1406 88.992C82.4941 88.2742 84.0322 87.9153 85.7549 87.9153C87.3751 87.9153 88.7901 88.2435 90.0001 88.8997C91.2306 89.556 92.1534 90.4993 92.7687 91.7298L89.8155 93.4525C89.3438 92.6937 88.7491 92.1297 88.0313 91.7606C87.334 91.3709 86.565 91.1761 85.7242 91.1761C84.2886 91.1761 83.0991 91.6478 82.1558 92.5912C81.2124 93.514 80.7407 94.7548 80.7407 96.3134C80.7407 97.872 81.2021 99.123 82.125 100.066C83.0684 100.989 84.2681 101.451 85.7242 101.451C86.565 101.451 87.334 101.266 88.0313 100.897C88.7491 100.507 89.3438 99.9331 89.8155 99.1743L92.7687 100.897C92.1329 102.127 91.1998 103.081 89.9693 103.758C88.7594 104.414 87.3546 104.742 85.7549 104.742ZM111.295 96.4057C111.295 96.6723 111.274 97.0517 111.233 97.5439H98.3441C98.5697 98.7538 99.1541 99.7177 100.098 100.435C101.061 101.133 102.251 101.481 103.666 101.481C105.471 101.481 106.957 100.887 108.126 99.6972L110.187 102.066C109.449 102.948 108.516 103.614 107.388 104.065C106.26 104.517 104.989 104.742 103.574 104.742C101.769 104.742 100.18 104.383 98.8055 103.666C97.4315 102.948 96.365 101.953 95.6062 100.682C94.868 99.3896 94.4988 97.9335 94.4988 96.3134C94.4988 94.7138 94.8577 93.2782 95.5755 92.0067C96.3138 90.7147 97.3289 89.7098 98.6209 88.992C99.9129 88.2742 101.369 87.9153 102.989 87.9153C104.589 87.9153 106.014 88.2742 107.265 88.992C108.537 89.6893 109.521 90.6839 110.218 91.9759C110.936 93.2474 111.295 94.724 111.295 96.4057ZM102.989 90.9915C101.759 90.9915 100.713 91.3607 99.8514 92.099C99.0106 92.8168 98.4979 93.7806 98.3133 94.9906H107.634C107.47 93.8011 106.968 92.8373 106.127 92.099C105.286 91.3607 104.24 90.9915 102.989 90.9915ZM120.064 104.742C118.731 104.742 117.429 104.568 116.157 104.219C114.886 103.871 113.871 103.43 113.112 102.896L114.589 99.9741C115.327 100.466 116.209 100.866 117.234 101.174C118.28 101.461 119.305 101.604 120.31 101.604C122.607 101.604 123.756 100.999 123.756 99.7895C123.756 99.2153 123.458 98.8154 122.864 98.5898C122.289 98.3642 121.356 98.1488 120.064 97.9438C118.711 97.7387 117.603 97.5028 116.742 97.2362C115.901 96.9696 115.163 96.5082 114.527 95.8519C113.912 95.1752 113.604 94.2421 113.604 93.0526C113.604 91.494 114.25 90.2532 115.542 89.3304C116.855 88.387 118.618 87.9153 120.833 87.9153C121.961 87.9153 123.089 88.0486 124.217 88.3152C125.345 88.5613 126.268 88.8997 126.986 89.3304L125.509 92.2528C124.115 91.4325 122.546 91.0223 120.803 91.0223C119.675 91.0223 118.813 91.1966 118.219 91.5453C117.644 91.8734 117.357 92.3143 117.357 92.868C117.357 93.4833 117.665 93.9242 118.28 94.1908C118.916 94.4369 119.89 94.6727 121.202 94.8983C122.515 95.1034 123.592 95.3392 124.432 95.6059C125.273 95.8725 125.991 96.3236 126.586 96.9594C127.201 97.5951 127.509 98.4975 127.509 99.6664C127.509 101.205 126.842 102.435 125.509 103.358C124.176 104.281 122.361 104.742 120.064 104.742ZM145.997 84.593C144.377 84.593 143.567 85.4749 143.567 87.2386V88.223H148.089V91.2992H143.69V104.527H139.845V91.2992H137.138V88.223H139.845V87.177C139.845 85.4133 140.357 84.0291 141.383 83.0242C142.408 81.9988 143.854 81.4861 145.72 81.4861C147.197 81.4861 148.356 81.7834 149.196 82.3782L148.12 85.2698C147.464 84.8186 146.756 84.593 145.997 84.593ZM157.82 104.742C156.159 104.742 154.662 104.383 153.329 103.666C151.996 102.948 150.95 101.953 150.191 100.682C149.453 99.3896 149.083 97.9335 149.083 96.3134C149.083 94.6932 149.453 93.2474 150.191 91.9759C150.95 90.7044 151.996 89.7098 153.329 88.992C154.662 88.2742 156.159 87.9153 157.82 87.9153C159.502 87.9153 161.009 88.2742 162.342 88.992C163.675 89.7098 164.711 90.7044 165.449 91.9759C166.208 93.2474 166.587 94.6932 166.587 96.3134C166.587 97.9335 166.208 99.3896 165.449 100.682C164.711 101.953 163.675 102.948 162.342 103.666C161.009 104.383 159.502 104.742 157.82 104.742ZM157.82 101.451C159.235 101.451 160.404 100.979 161.327 100.036C162.25 99.0922 162.711 97.8515 162.711 96.3134C162.711 94.7753 162.25 93.5345 161.327 92.5912C160.404 91.6478 159.235 91.1761 157.82 91.1761C156.405 91.1761 155.236 91.6478 154.313 92.5912C153.411 93.5345 152.96 94.7753 152.96 96.3134C152.96 97.8515 153.411 99.0922 154.313 100.036C155.236 100.979 156.405 101.451 157.82 101.451ZM173.925 90.4993C175.032 88.7767 176.981 87.9153 179.77 87.9153V91.576C179.441 91.5145 179.144 91.4837 178.878 91.4837C177.38 91.4837 176.211 91.9247 175.371 92.8065C174.53 93.6678 174.109 94.9188 174.109 96.5595V104.527H170.264V88.0999H173.925V90.4993Z" fill="white"/>
<path d="M207.343 81.7014V104.527H203.651V102.404C203.015 103.184 202.226 103.768 201.282 104.158C200.36 104.547 199.334 104.742 198.206 104.742C196.627 104.742 195.202 104.394 193.93 103.696C192.679 102.999 191.695 102.015 190.977 100.743C190.259 99.4511 189.9 97.9745 189.9 96.3134C189.9 94.6522 190.259 93.1859 190.977 91.9144C191.695 90.6429 192.679 89.6585 193.93 88.9612C195.202 88.264 196.627 87.9153 198.206 87.9153C199.293 87.9153 200.288 88.0999 201.19 88.469C202.092 88.8382 202.861 89.3919 203.497 90.1302V81.7014H207.343ZM198.668 101.451C199.59 101.451 200.421 101.246 201.159 100.835C201.898 100.405 202.482 99.7997 202.913 99.0204C203.343 98.2411 203.559 97.3388 203.559 96.3134C203.559 95.288 203.343 94.3856 202.913 93.6063C202.482 92.827 201.898 92.2323 201.159 91.8221C200.421 91.3914 199.59 91.1761 198.668 91.1761C197.745 91.1761 196.914 91.3914 196.176 91.8221C195.438 92.2323 194.853 92.827 194.422 93.6063C193.992 94.3856 193.776 95.288 193.776 96.3134C193.776 97.3388 193.992 98.2411 194.422 99.0204C194.853 99.7997 195.438 100.405 196.176 100.835C196.914 101.246 197.745 101.451 198.668 101.451ZM212.373 88.0999H216.218V104.527H212.373V88.0999ZM214.311 85.3928C213.614 85.3928 213.029 85.1775 212.557 84.7468C212.086 84.2957 211.85 83.7419 211.85 83.0857C211.85 82.4294 212.086 81.886 212.557 81.4553C213.029 81.0041 213.614 80.7785 214.311 80.7785C215.008 80.7785 215.593 80.9939 216.064 81.4245C216.536 81.8347 216.772 82.3576 216.772 82.9934C216.772 83.6702 216.536 84.2444 216.064 84.7161C215.613 85.1672 215.029 85.3928 214.311 85.3928Z" fill="white"/>
<path d="M225.74 104.047L225.98 103.812L225.978 103.81L225.74 104.047ZM222.502 100.808L222.739 100.571L222.736 100.568L222.502 100.808ZM244.234 88.803L243.994 89.0374L244 89.0429L244.234 88.803ZM227.561 91.5614V91.226H227.422L227.324 91.3237L227.561 91.5614ZM225.26 93.8507L225.024 93.613L224.925 93.7113V93.8507H225.26ZM225.26 98.9878H224.925V99.1267L225.023 99.2249L225.26 98.9878ZM227.561 101.288L227.324 101.525L227.422 101.624H227.561V101.288ZM241.475 101.288V101.624H241.811V101.288H241.475ZM241.475 98.0385H241.811V97.7032H241.475V98.0385ZM232.218 97.5695L231.978 97.8039L231.983 97.8094L232.218 97.5695ZM244.234 95.2801L243.994 95.5145L244 95.5201L244.234 95.2801ZM244.379 96.4192V102.908H245.049V96.4192H244.379ZM244.379 102.908C244.379 103.264 244.255 103.562 243.997 103.821L244.471 104.295C244.853 103.913 245.049 103.445 245.049 102.908H244.379ZM243.997 103.821C243.748 104.07 243.454 104.192 243.095 104.192V104.862C243.629 104.862 244.095 104.671 244.471 104.295L243.997 103.821ZM243.095 104.192H226.88V104.862H243.095V104.192ZM226.88 104.192C226.523 104.192 226.23 104.068 225.98 103.812L225.501 104.281C225.876 104.666 226.342 104.862 226.88 104.862V104.192ZM225.978 103.81L222.739 100.571L222.265 101.045L225.503 104.284L225.978 103.81ZM222.736 100.568C222.48 100.318 222.357 100.025 222.357 99.669H221.686C221.686 100.206 221.883 100.672 222.268 101.048L222.736 100.568ZM222.357 99.669V93.1807H221.686V99.669H222.357ZM222.357 93.1807C222.357 92.8242 222.481 92.5257 222.739 92.2675L222.265 91.7933C221.883 92.1753 221.686 92.6437 221.686 93.1807H222.357ZM222.739 92.2675L225.978 89.029L225.503 88.5547L222.265 91.7933L222.739 92.2675ZM225.978 89.029C226.227 88.7799 226.521 88.6581 226.88 88.6581V87.9874C226.345 87.9874 225.88 88.1784 225.503 88.5547L225.978 89.029ZM226.88 88.6581H243.095V87.9874H226.88V88.6581ZM243.095 88.6581C243.451 88.6581 243.744 88.7816 243.994 89.0373L244.474 88.5687C244.098 88.1841 243.632 87.9874 243.095 87.9874V88.6581ZM244 89.0429C244.255 89.2926 244.379 89.5859 244.379 89.9421H245.049C245.049 89.4049 244.853 88.9387 244.468 88.5631L244 89.0429ZM244.379 89.9421C244.379 90.2985 244.255 90.597 243.997 90.8552L244.471 91.3295C244.853 90.9474 245.049 90.4791 245.049 89.9421H244.379ZM243.997 90.8552C243.748 91.1043 243.454 91.226 243.095 91.226V91.8967C243.629 91.8967 244.095 91.7058 244.471 91.3295L243.997 90.8552ZM243.095 91.226H227.561V91.8967H243.095V91.226ZM227.324 91.3237L225.024 93.613L225.497 94.0884L227.797 91.7991L227.324 91.3237ZM224.925 93.8507V98.9878H225.596V93.8507H224.925ZM225.023 99.2249L227.324 101.525L227.798 101.051L225.497 98.7506L225.023 99.2249ZM227.561 101.624H241.475V100.953H227.561V101.624ZM241.811 101.288V98.0385H241.14V101.288H241.811ZM241.475 97.7032H233.368V98.3739H241.475V97.7032ZM233.368 97.7032C233.009 97.7032 232.71 97.5812 232.452 97.3296L231.983 97.8094C232.366 98.1832 232.833 98.3739 233.368 98.3739V97.7032ZM232.457 97.3352C232.206 97.0776 232.084 96.7782 232.084 96.4192H231.413C231.413 96.9537 231.604 97.4212 231.978 97.8038L232.457 97.3352ZM232.084 96.4192C232.084 96.0605 232.206 95.7664 232.455 95.5173L231.98 95.043C231.604 95.4193 231.413 95.8846 231.413 96.4192H232.084ZM232.455 95.5173C232.713 95.2591 233.011 95.1353 233.368 95.1353V94.4646C232.831 94.4646 232.363 94.6609 231.98 95.043L232.455 95.5173ZM233.368 95.1353H243.095V94.4646H233.368V95.1353ZM243.095 95.1353C243.451 95.1353 243.744 95.2588 243.994 95.5145L244.474 95.0458C244.098 94.6612 243.632 94.4646 243.095 94.4646V95.1353ZM244 95.5201C244.255 95.7698 244.379 96.063 244.379 96.4192H245.049C245.049 95.882 244.853 95.4159 244.468 95.0402L244 95.5201Z" fill="white"/>
<path d="M249.595 88.0999H253.441V104.527H249.595V88.0999ZM251.533 85.3928C250.836 85.3928 250.252 85.1775 249.78 84.7468C249.308 84.2957 249.072 83.7419 249.072 83.0857C249.072 82.4294 249.308 81.886 249.78 81.4553C250.252 81.0041 250.836 80.7785 251.533 80.7785C252.231 80.7785 252.815 80.9939 253.287 81.4245C253.758 81.8347 253.994 82.3576 253.994 82.9934C253.994 83.6702 253.758 84.2444 253.287 84.7161C252.836 85.1672 252.251 85.3928 251.533 85.3928ZM268.362 103.635C267.911 104.004 267.357 104.281 266.701 104.465C266.065 104.65 265.388 104.742 264.671 104.742C262.866 104.742 261.471 104.271 260.487 103.327C259.503 102.384 259.01 101.01 259.01 99.205V91.2992H256.303V88.223H259.01V84.47H262.856V88.223H267.255V91.2992H262.856V99.1127C262.856 99.9125 263.05 100.528 263.44 100.958C263.83 101.369 264.394 101.574 265.132 101.574C265.993 101.574 266.711 101.348 267.285 100.897L268.362 103.635ZM277.801 87.9153C280.221 87.9153 282.066 88.4998 283.338 89.6688C284.63 90.8172 285.276 92.5604 285.276 94.8983V104.527H281.646V102.527C281.174 103.245 280.498 103.799 279.616 104.188C278.754 104.558 277.708 104.742 276.478 104.742C275.247 104.742 274.171 104.537 273.248 104.127C272.325 103.696 271.607 103.112 271.095 102.374C270.602 101.615 270.356 100.764 270.356 99.8203C270.356 98.3437 270.9 97.1645 271.987 96.2826C273.094 95.3803 274.827 94.9291 277.185 94.9291H281.431V94.683C281.431 93.5345 281.082 92.6527 280.385 92.0374C279.708 91.4222 278.693 91.1146 277.339 91.1146C276.416 91.1146 275.504 91.2581 274.601 91.5453C273.72 91.8324 272.971 92.2323 272.356 92.745L270.848 89.9456C271.71 89.2894 272.745 88.7869 273.955 88.4383C275.165 88.0896 276.447 87.9153 277.801 87.9153ZM277.278 101.943C278.242 101.943 279.093 101.728 279.831 101.297C280.59 100.846 281.123 100.21 281.431 99.3896V97.4823H277.462C275.247 97.4823 274.14 98.2104 274.14 99.6664C274.14 100.364 274.417 100.917 274.971 101.328C275.524 101.738 276.293 101.943 277.278 101.943ZM290.211 81.7014H294.056V104.527H290.211V81.7014Z" fill="white"/>
<path d="M23.9392 124.915C26.0106 124.915 27.6512 125.52 28.8612 126.73C30.0712 127.92 30.6761 129.714 30.6761 132.114V141.527H26.8309V132.606C26.8309 131.17 26.513 130.094 25.8773 129.376C25.2415 128.638 24.3289 128.268 23.1394 128.268C21.8474 128.268 20.8118 128.699 20.0325 129.56C19.2532 130.401 18.8635 131.611 18.8635 133.19V141.527H15.0182V132.606C15.0182 131.17 14.7004 130.094 14.0646 129.376C13.4289 128.638 12.5163 128.268 11.3268 128.268C10.0143 128.268 8.96836 128.689 8.18905 129.53C7.43026 130.37 7.05086 131.591 7.05086 133.19V141.527H3.2056V125.1H6.86628V127.192C7.48153 126.453 8.25058 125.889 9.17344 125.5C10.0963 125.11 11.1217 124.915 12.2496 124.915C13.4801 124.915 14.5671 125.151 15.5104 125.623C16.4743 126.074 17.2331 126.751 17.7868 127.653C18.4636 126.792 19.3352 126.125 20.4016 125.654C21.468 125.161 22.6472 124.915 23.9392 124.915ZM41.8654 124.915C44.2853 124.915 46.131 125.5 47.4025 126.669C48.6945 127.817 49.3406 129.56 49.3406 131.898V141.527H45.7106V139.527C45.2389 140.245 44.5622 140.799 43.6803 141.188C42.819 141.558 41.7731 141.742 40.5426 141.742C39.3121 141.742 38.2354 141.537 37.3126 141.127C36.3897 140.696 35.6719 140.112 35.1592 139.374C34.667 138.615 34.4209 137.764 34.4209 136.82C34.4209 135.344 34.9644 134.164 36.0513 133.283C37.1588 132.38 38.8917 131.929 41.2501 131.929H45.4953V131.683C45.4953 130.535 45.1467 129.653 44.4494 129.037C43.7726 128.422 42.7575 128.115 41.4039 128.115C40.4811 128.115 39.5685 128.258 38.6661 128.545C37.7843 128.832 37.0357 129.232 36.4205 129.745L34.9131 126.946C35.7745 126.289 36.8101 125.787 38.0201 125.438C39.2301 125.09 40.5118 124.915 41.8654 124.915ZM41.3424 138.943C42.3063 138.943 43.1574 138.728 43.8957 138.297C44.6545 137.846 45.1877 137.21 45.4953 136.39V134.482H41.527C39.3121 134.482 38.2047 135.21 38.2047 136.666C38.2047 137.364 38.4815 137.917 39.0353 138.328C39.589 138.738 40.358 138.943 41.3424 138.943ZM57.9362 127.499C59.0436 125.777 60.9919 124.915 63.7809 124.915V128.576C63.4528 128.514 63.1555 128.484 62.8888 128.484C61.3918 128.484 60.2228 128.925 59.382 129.807C58.5411 130.668 58.1207 131.919 58.1207 133.559V141.527H54.2755V125.1H57.9362V127.499ZM73.7491 134.482L70.8882 137.189V141.527H67.0429V118.701H70.8882V132.483L78.8556 125.1H83.4699L76.6099 131.991L84.1159 141.527H79.44L73.7491 134.482ZM101.351 133.406C101.351 133.672 101.331 134.052 101.29 134.544H88.4005C88.6261 135.754 89.2105 136.718 90.1539 137.435C91.1178 138.133 92.3073 138.481 93.7223 138.481C95.527 138.481 97.0138 137.887 98.1828 136.697L100.244 139.066C99.5056 139.948 98.5725 140.614 97.4445 141.065C96.3166 141.517 95.0451 141.742 93.63 141.742C91.8253 141.742 90.2359 141.383 88.8619 140.666C87.4879 139.948 86.4214 138.953 85.6626 137.682C84.9243 136.39 84.5552 134.934 84.5552 133.313C84.5552 131.714 84.9141 130.278 85.6319 129.007C86.3702 127.715 87.3853 126.71 88.6773 125.992C89.9693 125.274 91.4254 124.915 93.0455 124.915C94.6452 124.915 96.0705 125.274 97.3215 125.992C98.593 126.689 99.5774 127.684 100.275 128.976C100.992 130.247 101.351 131.724 101.351 133.406ZM93.0455 127.992C91.8151 127.992 90.7691 128.361 89.9078 129.099C89.067 129.817 88.5543 130.781 88.3697 131.991H97.6906C97.5266 130.801 97.0241 129.837 96.1833 129.099C95.3424 128.361 94.2965 127.992 93.0455 127.992ZM114.92 140.635C114.468 141.004 113.915 141.281 113.258 141.465C112.623 141.65 111.946 141.742 111.228 141.742C109.423 141.742 108.029 141.271 107.044 140.327C106.06 139.384 105.568 138.01 105.568 136.205V128.299H102.861V125.223H105.568V121.47H109.413V125.223H113.812V128.299H109.413V136.113C109.413 136.913 109.608 137.528 109.998 137.958C110.387 138.369 110.951 138.574 111.69 138.574C112.551 138.574 113.269 138.348 113.843 137.897L114.92 140.635ZM118.083 125.1H121.928V141.527H118.083V125.1ZM120.021 122.393C119.323 122.393 118.739 122.178 118.267 121.747C117.796 121.296 117.56 120.742 117.56 120.086C117.56 119.429 117.796 118.886 118.267 118.455C118.739 118.004 119.323 117.779 120.021 117.779C120.718 117.779 121.303 117.994 121.774 118.425C122.246 118.835 122.482 119.358 122.482 119.993C122.482 120.67 122.246 121.244 121.774 121.716C121.323 122.167 120.739 122.393 120.021 122.393ZM136.296 124.915C138.367 124.915 140.028 125.52 141.279 126.73C142.53 127.94 143.156 129.735 143.156 132.114V141.527H139.311V132.606C139.311 131.17 138.972 130.094 138.295 129.376C137.619 128.638 136.655 128.268 135.404 128.268C133.989 128.268 132.871 128.699 132.051 129.56C131.23 130.401 130.82 131.621 130.82 133.221V141.527H126.975V125.1H130.636V127.222C131.271 126.464 132.071 125.889 133.035 125.5C133.999 125.11 135.086 124.915 136.296 124.915ZM164.488 125.1V139.035C164.488 144.818 161.535 147.71 155.628 147.71C154.049 147.71 152.552 147.505 151.137 147.095C149.722 146.705 148.553 146.131 147.63 145.372L149.353 142.48C150.071 143.075 150.973 143.547 152.06 143.896C153.167 144.265 154.285 144.449 155.413 144.449C157.218 144.449 158.54 144.039 159.381 143.219C160.222 142.398 160.643 141.147 160.643 139.466V138.604C159.986 139.322 159.187 139.866 158.243 140.235C157.3 140.604 156.264 140.789 155.136 140.789C153.578 140.789 152.162 140.46 150.891 139.804C149.64 139.127 148.645 138.184 147.907 136.974C147.189 135.764 146.83 134.38 146.83 132.821C146.83 131.263 147.189 129.889 147.907 128.699C148.645 127.489 149.64 126.556 150.891 125.9C152.162 125.243 153.578 124.915 155.136 124.915C156.326 124.915 157.402 125.11 158.366 125.5C159.351 125.889 160.171 126.484 160.827 127.284V125.1H164.488ZM155.721 137.528C157.177 137.528 158.366 137.097 159.289 136.236C160.232 135.354 160.704 134.216 160.704 132.821C160.704 131.447 160.232 130.329 159.289 129.468C158.366 128.607 157.177 128.176 155.721 128.176C154.244 128.176 153.034 128.607 152.091 129.468C151.168 130.329 150.706 131.447 150.706 132.821C150.706 134.216 151.168 135.354 152.091 136.236C153.034 137.097 154.244 137.528 155.721 137.528Z" fill="white"/>
</svg>
