<svg width="275" height="66" viewBox="0 0 275 66" fill="none" xmlns="http://www.w3.org/2000/svg">
<path d="M43.8658 25.6845V49.0783C43.8658 49.8843 43.577 50.5761 42.9994 51.1537C42.4352 51.7179 41.7501 52 40.9441 52C40.1381 52 39.4463 51.7179 38.8687 51.1537C38.3045 50.5761 38.0224 49.8843 38.0224 49.0783V28.6062H36.3097L13.7622 51.1537C13.198 51.7179 12.5062 52 11.6868 52H5.8434C5.03742 52 4.34561 51.7179 3.76799 51.1537C3.2038 50.5761 2.9217 49.8843 2.9217 49.0783V25.6845C2.9217 24.8785 3.2038 24.1935 3.76799 23.6293C4.34561 23.0516 5.03742 22.7628 5.8434 22.7628C6.64939 22.7628 7.33448 23.0516 7.89867 23.6293C8.47629 24.1935 8.76511 24.8785 8.76511 25.6845V46.1566H10.4778L33.0253 23.6091C33.5895 23.0449 34.2813 22.7628 35.1007 22.7628H40.9441C41.7501 22.7628 42.4352 23.0516 42.9994 23.6293C43.577 24.1935 43.8658 24.8785 43.8658 25.6845Z" fill="url(#paint0_linear_29_928)"/>
<path d="M90.8457 25.6644V49.0581C90.8457 49.8641 90.5569 50.5559 89.9792 51.1336C89.415 51.7112 88.73 52 87.924 52C87.118 52 86.4262 51.7112 85.8486 51.1336C85.2844 50.5559 85.0023 49.8641 85.0023 49.0581V40.293H55.7651V49.0581C55.7651 49.8641 55.4763 50.5559 54.8987 51.1336C54.3345 51.7112 53.6494 52 52.8434 52C52.0374 52 51.3456 51.7112 50.768 51.1336C50.2038 50.5559 49.9217 49.8641 49.9217 49.0581V25.6644C49.9217 24.8584 50.2038 24.1733 50.768 23.6091C51.3456 23.0315 52.0374 22.7427 52.8434 22.7427C53.6494 22.7427 54.3345 23.0315 54.8987 23.6091C55.4763 24.1733 55.7651 24.8584 55.7651 25.6644V34.4496H85.0023V25.6644C85.0023 24.8584 85.2844 24.1733 85.8486 23.6091C86.4262 23.0315 87.118 22.7427 87.924 22.7427C88.73 22.7427 89.415 23.0248 89.9792 23.589C90.5434 24.1532 90.8322 24.845 90.8457 25.6644Z" fill="url(#paint1_linear_29_928)"/>
<path d="M111.768 52.3803C108.761 52.3803 106.062 51.7464 103.672 50.4786C101.281 49.2108 99.4154 47.4539 98.0752 45.2081C96.7349 42.926 96.0647 40.3541 96.0647 37.4924C96.0647 34.6308 96.7349 32.077 98.0752 29.8312C99.4154 27.5853 101.263 25.8285 103.617 24.5606C106.008 23.2928 108.725 22.6589 111.768 22.6589C114.629 22.6589 117.129 23.2385 119.266 24.3976C121.439 25.5568 123.069 27.2231 124.156 29.3965L118.94 32.4393C118.107 31.099 117.056 30.1028 115.788 29.4508C114.557 28.7626 113.199 28.4184 111.713 28.4184C109.178 28.4184 107.077 29.2516 105.41 30.9179C103.744 32.5479 102.911 34.7395 102.911 37.4924C102.911 40.2454 103.726 42.4551 105.356 44.1214C107.022 45.7514 109.141 46.5665 111.713 46.5665C113.199 46.5665 114.557 46.2404 115.788 45.5884C117.056 44.9002 118.107 43.8859 118.94 42.5456L124.156 45.5884C123.033 47.7618 121.385 49.4462 119.212 50.6416C117.074 51.8008 114.593 52.3803 111.768 52.3803ZM140.949 22.6589C145.223 22.6589 148.483 23.6913 150.729 25.756C153.011 27.7845 154.152 30.8635 154.152 34.993V52H147.741V48.4682C146.908 49.736 145.712 50.7141 144.155 51.4023C142.633 52.0543 140.786 52.3803 138.612 52.3803C136.439 52.3803 134.537 52.0181 132.907 51.2936C131.277 50.5329 130.009 49.5006 129.104 48.1965C128.234 46.8562 127.8 45.353 127.8 43.6867C127.8 41.0786 128.76 38.9957 130.679 37.4381C132.635 35.8443 135.696 35.0474 139.862 35.0474H147.36V34.6127C147.36 32.5842 146.745 31.0265 145.513 29.9398C144.318 28.8531 142.524 28.3098 140.134 28.3098C138.504 28.3098 136.892 28.5633 135.298 29.0705C133.74 29.5776 132.418 30.284 131.331 31.1895L128.669 26.245C130.19 25.0859 132.02 24.1984 134.157 23.5826C136.294 22.9668 138.558 22.6589 140.949 22.6589ZM140.025 47.4358C141.728 47.4358 143.231 47.0555 144.535 46.2948C145.875 45.4979 146.817 44.3749 147.36 42.926V39.5572H140.351C136.439 39.5572 134.483 40.8431 134.483 43.415C134.483 44.6466 134.972 45.6246 135.95 46.3491C136.928 47.0736 138.286 47.4358 140.025 47.4358ZM162.557 22.9849H169.349V42.111L185.378 22.9849H191.572V52H184.78V32.8739L168.805 52H162.557V22.9849ZM176.63 19.5618C173.696 19.5618 171.45 18.8916 169.892 17.5514C168.371 16.1749 167.592 14.1826 167.556 11.5745H172.066C172.102 12.8785 172.5 13.9109 173.261 14.6716C174.058 15.4323 175.163 15.8126 176.575 15.8126C177.952 15.8126 179.039 15.4323 179.835 14.6716C180.669 13.9109 181.103 12.8785 181.14 11.5745H185.758C185.722 14.1826 184.925 16.1749 183.367 17.5514C181.81 18.8916 179.564 19.5618 176.63 19.5618ZM223.692 28.7444H213.532V52H206.74V28.7444H196.525V22.9849H223.692V28.7444ZM242.746 32.5479C246.441 32.5479 249.266 33.3811 251.222 35.0474C253.179 36.7136 254.157 39.0682 254.157 42.111C254.157 45.2986 253.07 47.7618 250.896 49.5006C248.759 51.2393 245.716 52.0906 241.768 52.0543L228.619 52V22.9849H235.411V32.4936L242.746 32.5479ZM257.906 22.9849H264.698V52H257.906V22.9849ZM241.17 47.0555C243.163 47.0917 244.684 46.6751 245.735 45.8058C246.785 44.9364 247.31 43.6686 247.31 42.0023C247.31 40.3722 246.803 39.1768 245.789 38.4162C244.775 37.6555 243.235 37.257 241.17 37.2208L235.411 37.1664V47.0011L241.17 47.0555Z" fill="black"/>
<defs>
<linearGradient id="paint0_linear_29_928" x1="18.4771" y1="48.6429" x2="47" y2="48.6429" gradientUnits="userSpaceOnUse">
<stop/>
<stop offset="1" stop-color="#EF6600"/>
</linearGradient>
<linearGradient id="paint1_linear_29_928" x1="65.4771" y1="48.6429" x2="94" y2="48.6429" gradientUnits="userSpaceOnUse">
<stop/>
<stop offset="1" stop-color="#EF6600"/>
</linearGradient>
</defs>
</svg>
