<svg width="260" height="66" viewBox="0 0 260 66" fill="none" xmlns="http://www.w3.org/2000/svg">
<path d="M43.8658 25.6845V49.0783C43.8658 49.8843 43.577 50.5761 42.9994 51.1537C42.4352 51.7179 41.7501 52 40.9441 52C40.1381 52 39.4463 51.7179 38.8687 51.1537C38.3045 50.5761 38.0224 49.8843 38.0224 49.0783V28.6062H36.3097L13.7622 51.1537C13.198 51.7179 12.5062 52 11.6868 52H5.8434C5.03742 52 4.34561 51.7179 3.76799 51.1537C3.2038 50.5761 2.9217 49.8843 2.9217 49.0783V25.6845C2.9217 24.8785 3.2038 24.1935 3.76799 23.6293C4.34561 23.0516 5.03742 22.7628 5.8434 22.7628C6.64939 22.7628 7.33448 23.0516 7.89867 23.6293C8.47629 24.1935 8.76511 24.8785 8.76511 25.6845V46.1566H10.4778L33.0253 23.6091C33.5895 23.0449 34.2813 22.7628 35.1007 22.7628H40.9441C41.7501 22.7628 42.4352 23.0516 42.9994 23.6293C43.577 24.1935 43.8658 24.8785 43.8658 25.6845Z" fill="url(#paint0_linear_29_934)"/>
<path d="M51.5642 22.9849H58.3561V34.7757H72.9723V22.9849H79.7642V52H72.9723V40.5352H58.3561V52H51.5642V22.9849ZM102.07 52.3803C99.0636 52.3803 96.365 51.7464 93.9742 50.4786C91.5835 49.2108 89.718 47.4539 88.3777 45.2081C87.0374 42.926 86.3673 40.3541 86.3673 37.4924C86.3673 34.6308 87.0374 32.077 88.3777 29.8312C89.718 27.5853 91.5654 25.8285 93.9199 24.5606C96.3106 23.2928 99.0274 22.6589 102.07 22.6589C104.932 22.6589 107.431 23.2385 109.568 24.3976C111.742 25.5568 113.372 27.2231 114.459 29.3965L109.242 32.4393C108.409 31.099 107.359 30.1028 106.091 29.4508C104.859 28.7626 103.501 28.4184 102.016 28.4184C99.4802 28.4184 97.3792 29.2516 95.713 30.9179C94.0467 32.5479 93.2135 34.7395 93.2135 37.4924C93.2135 40.2454 94.0286 42.4551 95.6586 44.1214C97.3249 45.7514 99.444 46.5665 102.016 46.5665C103.501 46.5665 104.859 46.2404 106.091 45.5884C107.359 44.9002 108.409 43.8859 109.242 42.5456L114.459 45.5884C113.336 47.7618 111.688 49.4462 109.514 50.6416C107.377 51.8008 104.896 52.3803 102.07 52.3803ZM131.251 22.6589C135.526 22.6589 138.786 23.6913 141.032 25.756C143.314 27.7845 144.455 30.8635 144.455 34.993V52H138.043V48.4682C137.21 49.736 136.015 50.7141 134.457 51.4023C132.936 52.0543 131.088 52.3803 128.915 52.3803C126.741 52.3803 124.84 52.0181 123.21 51.2936C121.58 50.5329 120.312 49.5006 119.406 48.1965C118.537 46.8562 118.102 45.353 118.102 43.6867C118.102 41.0786 119.062 38.9957 120.982 37.4381C122.938 35.8443 125.999 35.0474 130.165 35.0474H137.663V34.6127C137.663 32.5842 137.047 31.0265 135.815 29.9398C134.62 28.8531 132.827 28.3098 130.436 28.3098C128.806 28.3098 127.194 28.5633 125.6 29.0705C124.043 29.5776 122.721 30.284 121.634 31.1895L118.971 26.245C120.493 25.0859 122.322 24.1984 124.459 23.5826C126.597 22.9668 128.861 22.6589 131.251 22.6589ZM130.328 47.4358C132.03 47.4358 133.533 47.0555 134.837 46.2948C136.178 45.4979 137.119 44.3749 137.663 42.926V39.5572H130.654C126.741 39.5572 124.785 40.8431 124.785 43.415C124.785 44.6466 125.274 45.6246 126.252 46.3491C127.23 47.0736 128.589 47.4358 130.328 47.4358ZM152.859 22.9849H159.651V42.111L175.68 22.9849H181.874V52H175.083V32.8739L159.108 52H152.859V22.9849ZM166.932 19.5618C163.998 19.5618 161.752 18.8916 160.195 17.5514C158.673 16.1749 157.894 14.1826 157.858 11.5745H162.368C162.404 12.8785 162.803 13.9109 163.563 14.6716C164.36 15.4323 165.465 15.8126 166.878 15.8126C168.254 15.8126 169.341 15.4323 170.138 14.6716C170.971 13.9109 171.406 12.8785 171.442 11.5745H176.061C176.024 14.1826 175.227 16.1749 173.67 17.5514C172.112 18.8916 169.866 19.5618 166.932 19.5618ZM213.995 28.7444H203.834V52H197.042V28.7444H186.827V22.9849H213.995V28.7444ZM233.049 32.5479C236.743 32.5479 239.569 33.3811 241.525 35.0474C243.481 36.7136 244.459 39.0682 244.459 42.111C244.459 45.2986 243.372 47.7618 241.199 49.5006C239.062 51.2393 236.019 52.0906 232.071 52.0543L218.921 52V22.9849H225.713V32.4936L233.049 32.5479ZM248.208 22.9849H255V52H248.208V22.9849ZM231.473 47.0555C233.465 47.0917 234.987 46.6751 236.037 45.8058C237.088 44.9364 237.613 43.6686 237.613 42.0023C237.613 40.3722 237.106 39.1768 236.091 38.4162C235.077 37.6555 233.538 37.257 231.473 37.2208L225.713 37.1664V47.0011L231.473 47.0555Z" fill="black"/>
<defs>
<linearGradient id="paint0_linear_29_934" x1="18.4771" y1="48.6429" x2="47" y2="48.6429" gradientUnits="userSpaceOnUse">
<stop/>
<stop offset="1" stop-color="#EF6600"/>
</linearGradient>
</defs>
</svg>
