<svg width="331" height="152" viewBox="0 0 331 152" fill="none" xmlns="http://www.w3.org/2000/svg">
<path d="M36.8101 20.291C34.2325 20.291 31.9414 19.7898 29.9366 18.7874C28.0034 17.7134 25.8912 16.2456 23.6 14.384C21.5952 12.8804 20.0558 11.8422 18.9819 11.2694C17.9795 10.6966 16.9055 10.4102 15.7599 10.4102C13.6835 10.4102 12.0009 11.2336 10.7121 12.8804C9.49492 14.5272 8.81473 16.711 8.67153 19.4318H0.0795907C0.22279 13.2026 1.65478 8.47704 4.37556 5.25506C7.09634 1.96148 10.6763 0.314697 15.1155 0.314697C17.7647 0.314697 20.0558 0.851694 21.989 1.92569C23.9938 2.92808 26.1776 4.39587 28.5404 6.32906C30.2588 7.68945 31.655 8.69184 32.729 9.33623C33.8745 9.98063 35.0201 10.3028 36.1657 10.3028C38.3137 10.3028 39.9963 9.47943 41.2135 7.83265C42.5023 6.18586 43.2183 3.96627 43.3615 1.17389L51.846 1.1739C51.7744 7.47465 50.3782 12.236 47.6574 15.458C44.9367 18.68 41.3209 20.291 36.8101 20.291Z" fill="white"/>
<path d="M129.84 20.291C127.263 20.291 124.972 19.7898 122.967 18.7874C121.034 17.7134 118.922 16.2456 116.63 14.384C114.626 12.8804 113.086 11.8422 112.012 11.2694C111.01 10.6966 109.936 10.4102 108.79 10.4102C106.714 10.4102 105.031 11.2336 103.742 12.8804C102.525 14.5272 101.845 16.711 101.702 19.4318L93.11 19.4318C93.2532 13.2026 94.6851 8.47705 97.4059 5.25507C100.127 1.96149 103.707 0.314704 108.146 0.314704C110.795 0.314704 113.086 0.851701 115.019 1.92569C117.024 2.92809 119.208 4.39588 121.571 6.32906C123.289 7.68945 124.685 8.69184 125.759 9.33624C126.905 9.98064 128.05 10.3028 129.196 10.3028C131.344 10.3028 133.027 9.47944 134.244 7.83265C135.533 6.18587 136.249 3.96628 136.392 1.1739L144.876 1.1739C144.805 7.47466 143.409 12.236 140.688 15.458C137.967 18.68 134.351 20.291 129.84 20.291Z" fill="white"/>
<path d="M222.871 20.291C220.293 20.291 218.002 19.7898 215.997 18.7874C214.064 17.7134 211.952 16.2456 209.661 14.384C207.656 12.8804 206.117 11.8422 205.043 11.2694C204.04 10.6966 202.966 10.4102 201.821 10.4102C199.744 10.4102 198.062 11.2336 196.773 12.8804C195.556 14.5272 194.875 16.711 194.732 19.4318H186.14C186.284 13.2026 187.716 8.47705 190.436 5.25507C193.157 1.9615 196.737 0.31471 201.176 0.314711C203.825 0.314711 206.117 0.851708 208.05 1.9257C210.055 2.92809 212.238 4.39588 214.601 6.32907C216.319 7.68946 217.716 8.69185 218.79 9.33625C219.935 9.98064 221.081 10.3028 222.226 10.3028C224.374 10.3028 226.057 9.47945 227.274 7.83266C228.563 6.18587 229.279 3.96629 229.422 1.17391L237.907 1.17391C237.835 7.47466 236.439 12.236 233.718 15.458C230.997 18.68 227.382 20.291 222.871 20.291Z" fill="white"/>
<path d="M315.901 20.291C313.324 20.291 311.032 19.7898 309.028 18.7874C307.094 17.7134 304.982 16.2456 302.691 14.384C300.686 12.8804 299.147 11.8422 298.073 11.2694C297.071 10.6966 295.997 10.4102 294.851 10.4102C292.775 10.4102 291.092 11.2336 289.803 12.8804C288.586 14.5272 287.906 16.711 287.763 19.4318H279.171C279.314 13.2026 280.746 8.47706 283.467 5.25508C286.187 1.9615 289.767 0.314717 294.207 0.314718C296.856 0.314718 299.147 0.851714 301.08 1.92571C303.085 2.9281 305.269 4.39589 307.631 6.32908C309.35 7.68947 310.746 8.69186 311.82 9.33625C312.966 9.98065 314.111 10.3028 315.257 10.3028C317.405 10.3028 319.087 9.47945 320.305 7.83267C321.593 6.18588 322.309 3.96629 322.453 1.17391L330.937 1.17392C330.866 7.47467 329.469 12.236 326.749 15.458C324.028 18.68 320.412 20.291 315.901 20.291Z" fill="white"/>
<path d="M36.8101 151.291C34.2325 151.291 31.9414 150.79 29.9366 149.787C28.0034 148.713 25.8912 147.246 23.6 145.384C21.5952 143.88 20.0558 142.842 18.9819 142.269C17.9795 141.697 16.9055 141.41 15.7599 141.41C13.6835 141.41 12.0009 142.234 10.7121 143.88C9.49492 145.527 8.81473 147.711 8.67153 150.432H0.0795898C0.222789 144.203 1.65478 139.477 4.37556 136.255C7.09634 132.961 10.6763 131.315 15.1155 131.315C17.7647 131.315 20.0558 131.852 21.989 132.926C23.9938 133.928 26.1776 135.396 28.5404 137.329C30.2588 138.689 31.655 139.692 32.729 140.336C33.8745 140.981 35.0201 141.303 36.1657 141.303C38.3137 141.303 39.9963 140.479 41.2135 138.833C42.5023 137.186 43.2183 134.966 43.3615 132.174H51.846C51.7744 138.475 50.3782 143.236 47.6574 146.458C44.9367 149.68 41.3209 151.291 36.8101 151.291Z" fill="white"/>
<path d="M129.84 151.291C127.263 151.291 124.972 150.79 122.967 149.787C121.034 148.713 118.922 147.246 116.63 145.384C114.626 143.88 113.086 142.842 112.012 142.269C111.01 141.697 109.936 141.41 108.79 141.41C106.714 141.41 105.031 142.234 103.742 143.88C102.525 145.527 101.845 147.711 101.702 150.432H93.11C93.2532 144.203 94.6851 139.477 97.4059 136.255C100.127 132.961 103.707 131.315 108.146 131.315C110.795 131.315 113.086 131.852 115.019 132.926C117.024 133.928 119.208 135.396 121.571 137.329C123.289 138.689 124.685 139.692 125.759 140.336C126.905 140.981 128.05 141.303 129.196 141.303C131.344 141.303 133.027 140.479 134.244 138.833C135.533 137.186 136.249 134.966 136.392 132.174H144.876C144.805 138.475 143.409 143.236 140.688 146.458C137.967 149.68 134.351 151.291 129.84 151.291Z" fill="white"/>
<path d="M222.871 151.291C220.293 151.291 218.002 150.79 215.997 149.787C214.064 148.713 211.952 147.246 209.661 145.384C207.656 143.88 206.117 142.842 205.043 142.269C204.04 141.697 202.966 141.41 201.821 141.41C199.744 141.41 198.062 142.234 196.773 143.88C195.556 145.527 194.875 147.711 194.732 150.432H186.14C186.284 144.203 187.716 139.477 190.436 136.255C193.157 132.962 196.737 131.315 201.176 131.315C203.825 131.315 206.117 131.852 208.05 132.926C210.055 133.928 212.238 135.396 214.601 137.329C216.319 138.689 217.716 139.692 218.79 140.336C219.935 140.981 221.081 141.303 222.226 141.303C224.374 141.303 226.057 140.479 227.274 138.833C228.563 137.186 229.279 134.966 229.422 132.174H237.907C237.835 138.475 236.439 143.236 233.718 146.458C230.997 149.68 227.382 151.291 222.871 151.291Z" fill="white"/>
<path d="M315.901 151.291C313.324 151.291 311.032 150.79 309.028 149.787C307.094 148.713 304.982 147.246 302.691 145.384C300.686 143.88 299.147 142.842 298.073 142.269C297.071 141.697 295.997 141.41 294.851 141.41C292.775 141.41 291.092 142.234 289.803 143.88C288.586 145.527 287.906 147.711 287.763 150.432H279.171C279.314 144.203 280.746 139.477 283.467 136.255C286.187 132.962 289.767 131.315 294.207 131.315C296.856 131.315 299.147 131.852 301.08 132.926C303.085 133.928 305.269 135.396 307.631 137.329C309.35 138.689 310.746 139.692 311.82 140.336C312.966 140.981 314.111 141.303 315.257 141.303C317.405 141.303 319.087 140.479 320.305 138.833C321.593 137.186 322.309 134.966 322.453 132.174H330.937C330.866 138.475 329.469 143.236 326.749 146.458C324.028 149.68 320.412 151.291 315.901 151.291Z" fill="white"/>
</svg>
