<svg width="439" height="104" viewBox="0 0 439 104" fill="none" xmlns="http://www.w3.org/2000/svg">
<path d="M36.1566 0L41.1966 3.66039e-07L5.04001 103.211H0L36.1566 0Z" fill="black"/>
<path d="M99.3922 4.59258e-06L104.432 4.95862e-06L68.2756 103.211H63.2356L99.3922 4.59258e-06Z" fill="black"/>
<path d="M162.628 9.18516e-06L167.668 9.5512e-06L131.511 103.211H126.471L162.628 9.18516e-06Z" fill="black"/>
<path d="M225.863 1.37777e-05L230.903 1.41438e-05L194.747 103.211H189.707L225.863 1.37777e-05Z" fill="black"/>
<path d="M289.099 1.83703e-05L294.139 1.87364e-05L257.982 103.211H252.942L289.099 1.83703e-05Z" fill="black"/>
<path d="M352.334 2.29629e-05L357.374 2.33289e-05L321.218 103.211H316.178L352.334 2.29629e-05Z" fill="black"/>
<path d="M415.57 2.75555e-05L420.61 2.79215e-05L384.453 103.211H379.413L415.57 2.75555e-05Z" fill="black"/>
<path d="M478.806 3.21481e-05L483.846 3.25141e-05L447.689 103.211H442.649L478.806 3.21481e-05Z" fill="black"/>
<path d="M542.041 3.67407e-05L547.081 3.71067e-05L510.924 103.211H505.884L542.041 3.67407e-05Z" fill="black"/>
<path d="M605.277 4.13332e-05L610.317 4.16993e-05L574.16 103.211H569.12L605.277 4.13332e-05Z" fill="black"/>
<path d="M668.512 4.59258e-05L673.552 4.62919e-05L637.396 103.211H632.356L668.512 4.59258e-05Z" fill="black"/>
<path d="M731.748 5.05184e-05L736.788 5.08844e-05L700.631 103.211H695.591L731.748 5.05184e-05Z" fill="black"/>
<path d="M794.983 5.5111e-05L800.023 5.5477e-05L763.867 103.211H758.827L794.983 5.5111e-05Z" fill="black"/>
<path d="M858.219 5.97036e-05L863.259 6.00696e-05L827.102 103.211H822.062L858.219 5.97036e-05Z" fill="black"/>
<path d="M921.454 6.42961e-05L926.495 6.46622e-05L890.338 103.211H885.298L921.454 6.42961e-05Z" fill="black"/>
<path d="M984.69 6.88887e-05L989.73 6.92548e-05L953.573 103.211H948.533L984.69 6.88887e-05Z" fill="black"/>
<path d="M1047.93 7.34813e-05L1052.97 7.38473e-05L1016.81 103.211H1011.77L1047.93 7.34813e-05Z" fill="black"/>
</svg>
