<svg width="104" height="461" viewBox="0 0 104 461" fill="none" xmlns="http://www.w3.org/2000/svg">
<path d="M103.254 36.9652V39.1565L0.0429872 2.9999L0.0429873 0.808594L103.254 36.9652Z" fill="#262626"/>
<path d="M103.254 97.2048V99.3961L0.0429845 63.2395L0.0429846 61.0482L103.254 97.2048Z" fill="#262626"/>
<path d="M103.254 157.444V159.636L0.0429819 123.479L0.042982 121.288L103.254 157.444Z" fill="#262626"/>
<path d="M103.254 217.684V219.875L0.0429793 183.719L0.0429794 181.527L103.254 217.684Z" fill="#262626"/>
<path d="M103.254 277.924V280.115L0.0429766 243.958L0.0429767 241.767L103.254 277.924Z" fill="#262626"/>
<path d="M103.254 338.163V340.355L0.042974 304.198L0.0429741 302.007L103.254 338.163Z" fill="#262626"/>
<path d="M103.254 398.403V400.594L0.0429714 364.438L0.0429715 362.246L103.254 398.403Z" fill="#262626"/>
<path d="M103.254 458.643V460.834L0.0429688 424.677L0.0429688 422.486L103.254 458.643Z" fill="#262626"/>
</svg>
